<?xml version='1.0' encoding='utf-8'?>
<svg width="400" height="400" viewBox="0 0 400 400" xmlns="http://www.w3.org/2000/svg">
  <metadata>Cell tracing skeleton generated by CellTracing plugin</metadata>
  <g id="skeleton" stroke="red" stroke-width="2" fill="none">
    <path id="segment_0" d="M 4,1 L 5,1 L 6,1 L 7,2 L 8,3 L 9,4 L 9,5 L 10,6 L 11,7 L 12,7" />
    <path id="segment_1" d="M 24,1 L 23,2" />
    <path id="segment_2" d="M 25,1 L 24,2" />
    <path id="segment_3" d="M 335,1 L 334,2" />
    <path id="segment_4" d="M 336,1 L 337,1 L 338,1 L 339,1 L 340,1 L 341,1 L 342,2 L 343,2 L 344,2 L 345,2 L 346,2 L 347,2 L 348,2 L 349,2 L 350,2 L 351,2 L 352,2 L 353,2 L 354,2 L 355,2 L 356,2 L 357,2 L 358,2 L 359,2 L 360,2 L 361,2 L 362,2 L 363,2 L 364,2 L 365,2 L 366,2 L 367,2 L 368,2 L 369,2 L 370,2 L 371,2 L 372,2 L 373,2 L 374,2 L 375,2 L 376,2 L 377,2 L 378,2 L 379,2 L 380,2 L 381,2 L 382,2 L 383,2 L 384,2 L 385,2 L 386,2 L 387,2 L 388,2 L 389,2 L 390,2" />
    <path id="segment_5" d="M 204,2 L 203,3" />
    <path id="segment_6" d="M 205,2 L 206,2 L 207,2 L 208,2 L 209,2 L 210,2 L 211,2 L 212,2 L 213,2 L 214,3 L 215,3 L 216,4 L 217,4 L 218,5 L 219,5 L 220,6 L 221,6 L 222,6 L 223,7 L 224,7 L 225,8 L 226,8 L 227,9 L 228,9 L 229,10 L 230,10 L 231,11 L 232,11 L 233,12 L 234,12 L 235,12 L 236,12 L 237,12 L 238,12 L 239,12 L 240,12 L 241,11 L 242,11 L 243,11 L 244,11 L 245,11 L 246,11 L 247,11 L 248,11 L 249,11 L 250,11 L 251,11 L 252,11 L 253,11 L 254,10 L 255,10 L 256,10 L 257,10 L 258,10 L 259,10 L 260,10 L 261,10 L 262,9 L 263,9 L 264,9 L 265,9 L 266,9 L 267,9 L 268,9 L 269,9 L 270,8 L 271,8 L 272,8 L 273,8 L 274,8 L 275,8 L 276,7 L 277,6 L 278,6 L 279,5 L 280,4 L 281,3 L 282,3 L 283,2 L 284,2 L 285,2 L 286,2 L 287,2 L 288,2 L 289,2 L 290,2 L 291,3 L 292,3 L 293,3 L 294,3 L 295,4 L 296,5 L 297,6 L 298,5" />
    <path id="segment_7" d="M 329,2 L 328,3" />
    <path id="segment_8" d="M 330,2 L 331,2 L 332,2 L 333,2" />
    <path id="segment_9" d="M 21,3 L 20,4" />
    <path id="segment_10" d="M 22,3 L 23,3" />
    <path id="segment_11" d="M 129,3 L 128,4" />
    <path id="segment_12" d="M 130,3 L 131,3 L 132,3 L 133,3 L 134,3 L 135,3 L 136,3 L 137,3 L 138,3 L 139,3 L 140,3 L 141,3 L 142,3 L 143,3 L 144,3 L 145,3 L 146,3" />
    <path id="segment_13" d="M 147,3 L 146,4" />
    <path id="segment_14" d="M 156,3 L 155,4" />
    <path id="segment_15" d="M 157,3 L 158,3 L 159,3 L 160,3 L 161,3 L 162,3 L 163,3 L 164,3 L 165,3 L 166,3 L 167,3 L 168,4 L 169,5 L 170,6 L 171,7 L 172,8 L 173,9 L 174,9 L 175,9 L 176,9 L 177,9 L 178,9 L 179,9 L 180,10 L 181,10 L 182,10 L 183,10 L 184,10 L 185,10 L 186,10 L 187,10 L 188,10 L 189,9 L 190,9 L 191,9 L 192,9 L 193,8 L 194,8 L 195,8 L 196,8 L 197,8 L 198,7 L 199,6 L 200,5 L 201,5 L 202,4" />
    <path id="segment_16" d="M 318,3 L 317,4" />
    <path id="segment_17" d="M 319,3 L 320,3 L 321,3 L 322,3 L 323,3 L 324,3 L 325,3 L 326,3 L 327,3" />
    <path id="segment_18" d="M 19,4 L 18,5" />
    <path id="segment_19" d="M 127,4 L 126,5 L 125,6 L 124,7 L 123,7 L 122,8 L 121,9 L 120,9 L 119,10 L 118,11 L 117,11 L 116,12 L 115,13 L 114,14 L 113,14 L 112,15 L 111,15 L 110,15 L 109,15 L 108,15 L 107,15 L 106,15 L 105,15 L 104,16 L 103,16 L 102,16 L 101,16 L 100,16 L 99,15 L 98,14 L 97,13 L 97,12 L 96,11 L 95,10 L 94,9 L 93,9 L 92,9 L 91,9 L 90,9 L 89,9 L 88,10 L 87,10 L 86,10 L 85,10 L 84,10 L 83,10 L 82,10 L 81,10 L 80,10 L 79,10 L 78,10 L 77,9 L 76,9 L 75,9 L 74,9 L 73,9 L 72,9 L 71,9 L 70,10 L 69,11 L 68,12 L 67,13 L 66,13 L 65,14 L 64,15 L 63,16 L 62,16 L 61,16 L 60,16 L 59,16 L 58,16 L 57,16 L 56,16 L 55,16 L 54,16 L 53,16 L 52,16 L 51,16 L 50,16 L 49,16 L 48,16 L 47,16 L 46,16 L 45,16 L 44,17 L 43,17 L 42,18 L 41,18 L 40,18 L 39,19 L 38,19 L 37,20 L 36,20 L 35,20 L 34,20 L 33,20 L 32,20 L 31,20 L 30,20 L 29,20 L 28,21 L 27,21 L 26,22 L 25,22 L 24,22 L 23,22 L 22,22 L 21,22 L 20,22 L 19,23 L 18,24 L 18,25 L 17,26 L 16,27 L 15,28 L 14,29 L 14,30 L 13,31 L 12,32 L 11,32 L 10,32 L 9,32 L 8,32 L 7,31 L 6,31 L 5,31" />
    <path id="segment_20" d="M 148,4 L 149,4" />
    <path id="segment_21" d="M 150,4 L 149,5" />
    <path id="segment_22" d="M 151,4 L 152,4 L 153,4 L 154,4" />
    <path id="segment_23" d="M 315,4 L 316,4" />
    <path id="segment_24" d="M 17,5 L 16,6" />
    <path id="segment_25" d="M 19,5 L 18,6 L 17,6 L 16,7 L 15,7 L 14,7 L 13,7" />
    <path id="segment_26" d="M 317,5 L 316,6 L 315,7 L 315,8 L 314,9 L 314,10 L 313,11 L 312,12 L 312,13 L 311,14 L 310,15 L 309,16" />
    <path id="segment_27" d="M 298,7 L 299,7 L 300,8 L 301,9 L 302,10 L 303,11 L 304,12 L 305,13 L 306,14 L 307,15 L 308,15" />
    <path id="segment_28" d="M 12,8 L 11,9" />
    <path id="segment_29" d="M 13,8 L 14,8" />
    <path id="segment_30" d="M 10,9 L 9,10 L 8,10 L 7,11 L 6,11 L 5,12 L 4,12" />
    <path id="segment_31" d="M 377,11 L 378,11" />
    <path id="segment_32" d="M 78,12 L 79,12" />
    <path id="segment_33" d="M 259,13 L 260,13" />
    <path id="segment_34" d="M 378,13 L 377,14" />
    <path id="segment_35" d="M 379,13 L 380,13 L 381,13 L 382,13 L 383,13 L 384,13 L 385,13 L 386,13 L 387,13 L 388,13" />
    <path id="segment_36" d="M 374,14 L 373,15" />
    <path id="segment_37" d="M 375,14 L 376,14" />
    <path id="segment_38" d="M 370,15 L 369,16" />
    <path id="segment_39" d="M 371,15 L 372,15" />
    <path id="segment_40" d="M 310,16 L 309,17" />
    <path id="segment_41" d="M 344,16 L 345,16" />
    <path id="segment_42" d="M 366,16 L 365,17" />
    <path id="segment_43" d="M 367,16 L 368,16" />
    <path id="segment_44" d="M 310,17 L 309,18" />
    <path id="segment_45" d="M 347,17 L 346,18" />
    <path id="segment_46" d="M 348,17 L 349,17 L 350,17 L 351,18 L 352,18 L 353,18 L 354,18 L 355,18 L 356,18 L 357,18 L 358,18 L 359,18 L 360,18 L 361,18 L 362,17 L 363,17 L 364,17" />
    <path id="segment_47" d="M 311,18 L 312,19 L 313,20 L 314,21 L 315,22 L 316,23 L 317,23 L 318,24 L 319,25 L 320,26 L 321,27 L 321,28" />
    <path id="segment_48" d="M 343,18 L 342,19" />
    <path id="segment_49" d="M 344,18 L 345,18" />
    <path id="segment_50" d="M 308,19 L 307,20 L 307,21 L 306,22 L 305,22 L 304,22 L 303,22 L 302,22 L 301,22 L 300,22 L 299,22 L 298,21 L 297,21 L 296,20 L 295,20 L 294,20 L 293,20 L 292,20 L 291,20 L 290,21 L 289,21 L 288,21 L 287,21 L 286,21 L 285,21 L 284,21 L 283,21 L 282,21 L 281,21 L 280,21 L 279,22 L 278,22 L 277,23 L 276,24 L 275,24 L 274,25 L 273,26 L 272,26 L 271,27 L 270,28 L 269,28 L 268,29 L 267,30 L 266,30 L 265,31 L 264,32 L 263,33 L 262,33 L 261,34 L 260,35" />
    <path id="segment_51" d="M 339,19 L 338,20" />
    <path id="segment_52" d="M 340,19 L 341,19" />
    <path id="segment_53" d="M 327,20 L 326,21" />
    <path id="segment_54" d="M 328,20 L 329,20 L 330,20 L 331,20 L 332,20 L 333,20 L 334,20 L 335,20 L 336,20 L 337,20" />
    <path id="segment_55" d="M 326,22 L 325,23 L 324,24 L 323,25 L 323,26 L 322,27 L 322,28 L 323,29 L 324,30 L 325,31 L 326,31 L 327,32 L 328,33 L 327,34" />
    <path id="segment_56" d="M 209,23 L 210,23" />
    <path id="segment_57" d="M 168,24 L 167,25" />
    <path id="segment_58" d="M 169,24 L 170,24 L 171,24 L 172,25 L 173,25 L 174,25 L 175,25 L 176,26 L 177,26 L 178,26 L 179,26 L 180,26 L 181,26 L 182,27 L 182,28 L 183,29 L 184,30 L 185,31 L 185,32 L 186,33 L 187,34 L 187,35 L 188,36 L 189,37 L 190,38 L 190,39 L 191,40 L 192,41 L 193,42 L 193,43 L 192,44" />
    <path id="segment_59" d="M 165,25 L 164,26" />
    <path id="segment_60" d="M 166,25 L 167,25" />
    <path id="segment_61" d="M 162,26 L 161,27" />
    <path id="segment_62" d="M 163,26 L 164,26" />
    <path id="segment_63" d="M 159,27 L 158,28" />
    <path id="segment_64" d="M 160,27 L 161,27" />
    <path id="segment_65" d="M 124,28 L 123,29" />
    <path id="segment_66" d="M 125,28 L 126,28 L 127,28 L 128,28 L 129,28 L 130,28 L 131,28 L 132,28 L 133,28 L 134,28 L 135,28 L 136,28 L 137,28 L 138,28 L 139,28 L 140,28 L 141,28 L 142,28 L 143,28 L 144,28 L 145,28 L 146,28 L 147,28 L 148,28 L 149,28 L 150,28 L 151,28 L 152,28 L 153,28 L 154,28 L 155,28 L 156,28 L 157,28" />
    <path id="segment_67" d="M 218,28 L 219,28 L 220,29 L 221,29 L 222,30 L 223,30 L 224,31 L 225,31 L 226,31 L 227,31 L 228,31" />
    <path id="segment_68" d="M 320,29 L 320,30 L 319,31 L 318,31 L 317,31 L 316,31 L 315,31 L 314,31 L 313,31 L 312,31 L 311,32 L 311,33 L 310,34 L 310,35 L 309,36 L 308,37 L 308,38 L 307,39 L 306,39 L 305,39 L 304,39 L 303,39 L 302,39 L 301,40 L 300,40 L 299,41 L 298,41 L 297,42 L 296,42 L 295,43 L 294,42" />
    <path id="segment_69" d="M 381,29 L 380,30" />
    <path id="segment_70" d="M 382,29 L 383,29 L 384,29 L 385,29 L 386,29 L 387,29 L 388,29 L 389,29" />
    <path id="segment_71" d="M 122,30 L 121,31 L 120,32 L 119,32 L 118,33 L 117,34 L 116,35 L 115,36 L 114,37" />
    <path id="segment_72" d="M 229,30 L 229,31" />
    <path id="segment_73" d="M 230,30 L 231,30" />
    <path id="segment_74" d="M 232,30 L 231,31" />
    <path id="segment_75" d="M 233,30 L 232,31" />
    <path id="segment_76" d="M 234,30 L 235,30 L 236,30 L 237,30 L 238,30 L 239,30 L 240,30 L 241,30 L 242,30 L 243,30 L 244,30 L 245,30 L 246,30 L 247,30 L 248,30 L 249,30 L 250,30 L 251,30 L 252,30 L 253,30 L 254,30 L 255,30 L 256,31 L 257,32 L 257,33 L 258,34 L 259,35 L 258,36 L 257,37 L 256,37 L 255,38 L 254,39 L 253,39 L 252,40 L 251,41 L 250,41 L 249,42 L 248,42 L 247,41 L 246,41 L 245,40 L 244,39" />
    <path id="segment_77" d="M 392,30 L 393,30" />
    <path id="segment_78" d="M 379,31 L 378,32 L 377,33 L 376,34 L 375,35 L 374,35 L 373,35 L 372,35 L 371,35 L 370,35" />
    <path id="segment_79" d="M 228,32 L 228,33 L 227,34 L 226,35 L 226,36 L 225,37 L 225,38 L 224,39 L 223,40 L 223,41 L 222,42 L 221,42 L 220,42 L 219,42 L 218,42 L 217,42 L 216,42 L 215,42 L 214,42 L 213,42 L 212,42 L 211,42 L 210,43 L 209,43 L 208,43 L 207,43 L 206,43 L 205,43 L 204,43 L 203,43 L 202,43 L 201,44 L 200,44 L 199,44 L 198,44 L 197,44 L 196,44 L 195,44" />
    <path id="segment_80" d="M 233,32 L 234,33 L 235,33 L 236,34 L 237,35 L 238,35 L 239,36 L 240,37 L 241,37 L 242,38 L 243,39 L 244,40" />
    <path id="segment_81" d="M 322,32 L 323,32" />
    <path id="segment_82" d="M 277,33 L 276,34" />
    <path id="segment_83" d="M 278,33 L 279,33 L 280,33 L 281,33 L 282,33 L 283,33 L 284,33 L 285,33 L 286,33 L 287,33 L 288,34 L 288,35 L 289,36 L 290,37 L 291,38 L 291,39 L 292,40 L 293,41" />
    <path id="segment_84" d="M 338,33 L 339,33" />
    <path id="segment_85" d="M 271,34 L 270,35" />
    <path id="segment_86" d="M 272,34 L 273,34 L 274,34 L 275,34" />
    <path id="segment_87" d="M 329,34 L 330,35 L 331,35 L 332,35 L 333,35 L 334,35 L 335,35 L 336,35 L 337,35 L 338,35 L 339,35 L 340,35 L 341,34" />
    <path id="segment_88" d="M 42,35 L 43,35" />
    <path id="segment_89" d="M 44,35 L 43,36" />
    <path id="segment_90" d="M 45,35 L 46,35 L 47,35 L 48,36 L 49,36 L 50,37 L 51,38 L 52,38 L 53,39 L 54,40 L 55,40 L 56,41 L 57,42 L 56,43" />
    <path id="segment_91" d="M 261,35 L 262,35 L 263,35 L 264,35 L 265,35 L 266,35 L 267,35 L 268,35 L 269,35" />
    <path id="segment_92" d="M 341,35 L 342,35" />
    <path id="segment_93" d="M 361,35 L 360,36" />
    <path id="segment_94" d="M 362,35 L 363,35 L 364,35 L 365,35 L 366,35 L 367,35 L 368,35 L 369,35 L 370,36" />
    <path id="segment_95" d="M 342,36 L 343,36" />
    <path id="segment_96" d="M 344,36 L 343,37" />
    <path id="segment_97" d="M 345,36 L 346,36 L 347,36 L 348,36 L 349,36 L 350,36 L 351,36 L 352,36 L 353,36 L 354,36 L 355,36 L 356,36 L 357,36 L 358,36 L 359,36" />
    <path id="segment_98" d="M 44,37 L 45,38 L 46,39 L 47,39 L 48,40 L 49,41 L 50,42 L 51,43 L 52,43" />
    <path id="segment_99" d="M 115,37 L 116,37 L 117,37 L 118,37 L 119,37 L 120,38 L 120,39 L 121,40 L 121,41 L 122,42 L 122,43 L 123,44 L 124,45 L 124,46 L 125,47 L 125,48 L 126,49 L 127,50 L 127,51 L 128,52 L 128,53 L 129,54 L 128,55" />
    <path id="segment_100" d="M 89,38 L 88,39" />
    <path id="segment_101" d="M 90,38 L 91,38 L 92,38 L 93,38 L 94,39 L 94,40 L 95,41 L 96,42 L 96,43 L 97,44 L 98,45 L 99,46 L 99,47 L 100,48 L 101,49 L 101,50 L 102,51 L 103,52 L 103,53 L 104,54 L 105,55 L 106,56 L 106,57 L 107,58 L 108,59 L 108,60 L 109,61 L 110,62 L 110,63 L 111,64 L 112,65 L 113,66 L 113,67 L 114,68 L 114,69" />
    <path id="segment_102" d="M 343,38 L 343,39 L 344,40 L 344,41 L 344,42 L 345,43 L 345,44 L 345,45 L 345,46 L 346,47 L 346,48 L 346,49 L 347,50 L 347,51 L 347,52 L 348,53 L 348,54 L 349,55 L 348,56" />
    <path id="segment_103" d="M 87,39 L 86,40 L 85,40 L 84,41 L 83,41 L 82,42 L 81,42 L 80,43 L 79,43 L 78,43 L 77,43 L 76,44 L 75,44 L 74,45 L 73,45 L 72,45 L 71,46 L 70,46 L 69,46 L 68,46 L 67,46 L 66,46 L 65,46" />
    <path id="segment_104" d="M 14,40 L 15,40" />
    <path id="segment_105" d="M 17,41 L 16,42" />
    <path id="segment_106" d="M 18,41 L 19,41 L 20,41 L 21,42 L 22,42 L 23,42" />
    <path id="segment_107" d="M 58,42 L 57,43" />
    <path id="segment_108" d="M 15,43 L 14,44 L 13,45 L 12,46 L 11,47 L 10,48 L 9,49" />
    <path id="segment_109" d="M 23,43 L 24,43 L 25,44 L 26,44 L 27,44 L 28,45 L 29,45 L 30,46 L 31,46 L 32,47 L 33,47" />
    <path id="segment_110" d="M 53,43 L 52,44" />
    <path id="segment_111" d="M 54,43 L 53,44" />
    <path id="segment_112" d="M 55,43 L 54,44" />
    <path id="segment_113" d="M 58,43 L 59,43" />
    <path id="segment_114" d="M 252,43 L 253,43" />
    <path id="segment_115" d="M 294,43 L 293,44" />
    <path id="segment_116" d="M 59,44 L 59,45" />
    <path id="segment_117" d="M 60,44 L 61,44 L 62,45 L 63,46 L 62,47" />
    <path id="segment_118" d="M 185,44 L 184,45" />
    <path id="segment_119" d="M 186,44 L 187,44 L 188,44 L 189,44 L 190,44 L 191,44" />
    <path id="segment_120" d="M 193,44 L 194,44 L 195,45 L 194,46 L 193,47 L 192,48 L 191,49 L 190,50 L 190,51 L 189,52 L 188,53 L 187,54 L 186,55 L 185,55 L 184,55 L 183,55 L 182,55 L 181,56 L 180,56 L 179,56 L 178,55" />
    <path id="segment_121" d="M 291,44 L 290,45" />
    <path id="segment_122" d="M 292,44 L 293,44" />
    <path id="segment_123" d="M 294,44 L 295,44" />
    <path id="segment_124" d="M 49,45 L 48,46" />
    <path id="segment_125" d="M 50,45 L 51,45" />
    <path id="segment_126" d="M 191,45 L 192,45" />
    <path id="segment_127" d="M 287,45 L 288,45 L 289,45" />
    <path id="segment_128" d="M 47,46 L 46,47 L 45,47 L 44,47 L 43,48 L 42,48 L 41,48 L 40,49 L 39,49 L 38,49 L 37,49 L 36,48 L 35,48 L 34,48 L 33,48 L 32,49 L 31,49 L 30,49 L 29,49 L 28,49 L 27,50 L 27,51 L 26,52 L 25,53 L 25,54 L 24,55 L 24,56 L 23,57 L 22,57 L 21,57 L 20,57 L 19,57 L 18,57 L 17,57 L 16,57 L 15,56 L 15,55 L 14,54 L 13,53 L 12,52 L 12,51 L 11,50 L 10,49" />
    <path id="segment_129" d="M 60,46 L 61,47" />
    <path id="segment_130" d="M 64,46 L 63,47" />
    <path id="segment_131" d="M 165,46 L 166,46" />
    <path id="segment_132" d="M 184,46 L 183,47 L 182,48 L 182,49 L 181,50 L 180,51 L 180,52 L 179,53 L 178,54" />
    <path id="segment_133" d="M 64,47 L 65,47" />
    <path id="segment_134" d="M 373,51 L 374,51" />
    <path id="segment_135" d="M 352,53 L 351,54" />
    <path id="segment_136" d="M 353,53 L 354,53 L 355,53 L 356,54 L 357,54 L 358,55 L 359,55 L 360,56 L 361,56 L 362,56 L 363,57 L 364,58 L 365,59 L 366,60 L 367,61 L 367,62 L 368,63 L 369,64 L 370,65 L 369,66" />
    <path id="segment_137" d="M 379,53 L 380,53" />
    <path id="segment_138" d="M 382,54 L 381,55" />
    <path id="segment_139" d="M 383,54 L 384,54" />
    <path id="segment_140" d="M 124,55 L 123,56" />
    <path id="segment_141" d="M 125,55 L 126,55 L 127,55" />
    <path id="segment_142" d="M 129,55 L 129,56" />
    <path id="segment_143" d="M 152,55 L 151,56" />
    <path id="segment_144" d="M 153,55 L 154,55 L 155,55 L 156,55 L 157,55 L 158,55 L 159,55 L 160,55 L 161,55 L 162,55 L 163,56 L 164,56 L 165,56 L 166,57 L 166,58" />
    <path id="segment_145" d="M 350,55 L 351,55" />
    <path id="segment_146" d="M 130,56 L 131,57 L 132,57 L 133,57 L 134,57 L 135,58 L 136,58 L 137,58 L 138,58 L 139,58 L 140,58 L 141,58 L 142,58 L 143,58 L 144,58 L 145,58 L 146,58 L 147,58 L 148,57 L 149,57 L 150,56" />
    <path id="segment_147" d="M 177,56 L 176,57" />
    <path id="segment_148" d="M 178,56 L 179,56" />
    <path id="segment_149" d="M 381,56 L 380,57 L 379,58 L 378,59 L 378,60 L 377,61 L 376,62 L 375,63 L 375,64 L 374,65 L 373,66 L 372,66" />
    <path id="segment_150" d="M 123,57 L 122,58 L 121,59 L 120,60 L 120,61 L 119,62 L 118,63 L 117,64 L 117,65 L 116,66 L 115,67" />
    <path id="segment_151" d="M 167,57 L 168,57 L 169,57 L 170,58 L 169,59" />
    <path id="segment_152" d="M 173,57 L 172,58" />
    <path id="segment_153" d="M 174,57 L 175,57 L 176,58 L 175,59 L 174,59 L 173,59" />
    <path id="segment_154" d="M 347,57 L 346,58 L 345,58 L 344,59 L 343,60 L 342,60 L 341,59 L 340,59 L 339,58 L 338,58 L 337,58 L 336,58 L 335,59 L 334,59 L 333,60 L 332,60 L 331,61 L 330,62 L 329,62 L 328,63 L 327,63 L 326,64 L 325,64 L 324,64 L 323,63 L 322,62 L 321,61 L 321,60 L 320,59 L 319,58 L 318,58 L 317,58 L 316,58 L 315,58 L 314,58 L 313,58 L 312,58 L 311,59 L 310,59 L 309,60 L 308,60 L 307,60 L 306,60 L 305,60 L 304,60 L 303,60 L 302,60 L 301,60 L 300,60 L 299,60 L 298,60 L 297,60 L 296,60 L 295,61 L 294,61 L 293,62 L 292,62 L 291,63 L 290,63 L 289,62 L 289,61 L 288,60 L 287,60 L 286,61 L 285,62 L 284,63 L 283,64 L 282,65 L 281,65" />
    <path id="segment_155" d="M 387,57 L 388,57" />
    <path id="segment_156" d="M 171,58 L 172,58" />
    <path id="segment_157" d="M 272,63 L 271,64" />
    <path id="segment_158" d="M 273,63 L 274,63 L 275,63 L 276,63 L 277,63 L 278,63 L 279,63 L 280,64" />
    <path id="segment_159" d="M 352,63 L 351,64" />
    <path id="segment_160" d="M 353,63 L 354,63 L 355,63 L 356,63 L 357,64 L 358,64 L 359,64 L 360,64 L 361,64 L 362,64 L 363,65 L 364,65 L 365,65 L 366,65 L 367,65 L 368,66" />
    <path id="segment_161" d="M 348,64 L 349,64" />
    <path id="segment_162" d="M 269,65 L 268,66" />
    <path id="segment_163" d="M 270,65 L 271,65" />
    <path id="segment_164" d="M 351,65 L 350,66 L 350,67 L 349,68 L 348,69 L 348,70 L 347,71 L 347,72 L 346,73 L 345,74 L 345,75 L 344,76 L 344,77 L 343,78" />
    <path id="segment_165" d="M 3,66 L 4,66" />
    <path id="segment_166" d="M 281,66 L 281,67" />
    <path id="segment_167" d="M 370,66 L 371,66 L 372,67 L 373,67 L 374,67 L 375,67 L 376,67" />
    <path id="segment_168" d="M 96,67 L 95,68" />
    <path id="segment_169" d="M 97,67 L 98,67 L 99,67 L 100,67 L 101,67 L 102,67 L 103,67 L 104,67 L 105,67 L 106,68 L 107,68 L 108,68 L 109,69 L 110,69 L 111,70 L 112,70 L 113,70" />
    <path id="segment_170" d="M 264,67 L 265,67" />
    <path id="segment_171" d="M 266,67 L 265,68" />
    <path id="segment_172" d="M 267,67 L 266,68 L 267,69 L 268,70 L 269,70 L 270,71 L 271,72 L 272,72 L 273,73 L 274,73 L 275,73 L 276,72 L 277,71 L 278,70 L 279,69 L 280,68" />
    <path id="segment_173" d="M 282,67 L 283,68 L 284,69 L 285,69 L 286,69 L 287,69 L 288,69 L 289,69 L 290,70 L 291,70 L 292,70 L 293,70 L 294,70 L 295,71 L 296,71 L 297,71 L 298,71 L 299,71 L 300,71 L 301,72 L 302,72 L 303,72 L 304,72 L 305,72 L 306,73 L 307,73 L 308,73 L 309,73 L 310,74 L 311,74 L 312,74" />
    <path id="segment_174" d="M 94,68 L 93,69 L 92,69 L 91,69 L 90,69 L 89,69 L 88,69 L 87,70 L 86,70 L 85,70 L 84,70 L 83,70 L 82,70 L 81,71 L 80,71 L 79,71 L 78,71 L 77,71 L 76,71 L 75,72 L 74,72 L 73,72 L 72,72 L 71,72 L 70,72 L 69,73 L 68,73 L 67,73 L 66,73 L 65,73 L 64,73 L 63,74 L 62,74 L 61,74 L 60,74 L 59,74 L 58,73 L 57,73 L 56,72 L 55,72 L 54,72 L 53,72 L 52,73 L 51,73 L 50,73 L 49,73 L 48,73 L 47,73 L 46,74 L 45,74 L 44,75 L 43,75 L 42,76 L 41,76 L 40,77 L 39,77 L 38,78 L 37,78 L 36,78 L 35,78 L 34,77 L 33,76 L 32,76 L 31,75 L 30,74 L 29,73 L 28,73 L 27,72 L 26,72 L 25,72 L 24,72 L 23,73 L 22,73 L 21,73 L 20,74 L 19,74 L 18,74 L 17,75 L 16,75 L 15,75 L 14,75 L 13,75 L 12,75 L 11,75 L 10,75 L 9,75 L 8,75" />
    <path id="segment_175" d="M 122,68 L 123,68" />
    <path id="segment_176" d="M 216,68 L 215,69" />
    <path id="segment_177" d="M 217,68 L 218,68 L 219,68 L 220,69 L 221,70 L 222,71 L 223,72 L 224,73 L 225,74 L 226,75 L 227,76 L 228,77 L 229,78 L 230,79 L 229,80" />
    <path id="segment_178" d="M 115,69 L 115,70 L 116,71 L 117,71 L 118,71 L 119,72 L 120,73 L 121,74 L 122,75 L 123,76 L 124,77 L 125,78 L 126,79 L 127,79 L 128,79 L 129,79 L 130,79 L 131,79 L 132,79 L 133,79 L 134,79 L 135,79 L 136,79 L 137,79 L 138,79 L 139,79 L 140,80 L 140,81 L 141,82 L 142,83 L 143,84 L 143,85 L 144,86 L 145,86 L 146,86 L 147,86 L 148,87 L 149,87 L 150,87 L 151,87 L 152,87 L 153,87" />
    <path id="segment_179" d="M 211,69 L 210,70" />
    <path id="segment_180" d="M 212,69 L 213,69 L 214,69" />
    <path id="segment_181" d="M 256,70 L 257,70" />
    <path id="segment_182" d="M 210,71 L 209,72 L 208,73 L 207,74 L 207,75 L 206,76 L 205,77 L 204,78 L 204,79 L 203,80" />
    <path id="segment_183" d="M 253,71 L 254,71" />
    <path id="segment_184" d="M 250,72 L 251,72" />
    <path id="segment_185" d="M 247,73 L 248,73" />
    <path id="segment_186" d="M 312,75 L 313,75" />
    <path id="segment_187" d="M 65,76 L 66,76" />
    <path id="segment_188" d="M 313,76 L 312,77" />
    <path id="segment_189" d="M 314,76 L 315,77 L 316,77 L 317,78 L 318,79 L 319,79 L 320,80 L 321,80 L 322,81 L 323,81 L 324,81 L 325,80 L 326,80 L 327,80 L 328,80 L 329,79 L 330,79 L 331,79 L 332,79 L 333,79 L 334,79 L 335,79 L 336,79 L 337,79 L 338,79 L 339,78 L 340,78 L 341,78 L 342,78" />
    <path id="segment_190" d="M 348,77 L 349,77" />
    <path id="segment_191" d="M 237,78 L 236,79" />
    <path id="segment_192" d="M 238,78 L 239,78" />
    <path id="segment_193" d="M 312,78 L 312,79 L 311,80 L 311,81 L 311,82 L 310,83 L 310,84 L 310,85 L 309,86 L 308,87" />
    <path id="segment_194" d="M 344,78 L 345,78" />
    <path id="segment_195" d="M 234,79 L 235,79" />
    <path id="segment_196" d="M 376,79 L 377,79 L 378,79 L 379,79 L 380,79" />
    <path id="segment_197" d="M 204,80 L 205,80 L 206,80 L 207,80 L 208,81 L 209,81 L 210,81 L 211,81 L 212,81 L 213,81" />
    <path id="segment_198" d="M 228,80 L 227,81 L 226,81 L 225,81 L 224,81 L 223,81 L 222,81 L 221,81 L 220,81 L 219,81 L 218,81 L 217,81 L 216,81 L 215,81 L 214,81 L 213,82" />
    <path id="segment_199" d="M 230,80 L 231,80" />
    <path id="segment_200" d="M 236,80 L 235,81 L 234,82 L 234,83 L 233,84 L 232,85 L 232,86 L 231,87 L 230,88 L 230,89 L 229,90 L 228,91 L 228,92 L 227,93" />
    <path id="segment_201" d="M 200,81 L 199,82" />
    <path id="segment_202" d="M 201,81 L 202,81" />
    <path id="segment_203" d="M 337,81 L 338,81" />
    <path id="segment_204" d="M 198,82 L 197,83 L 196,83 L 195,83 L 194,84 L 193,84 L 192,85 L 191,85" />
    <path id="segment_205" d="M 294,82 L 293,83" />
    <path id="segment_206" d="M 295,82 L 296,82 L 297,82 L 298,82 L 299,82 L 300,83 L 301,83 L 302,84 L 303,84 L 304,85 L 305,85 L 306,86 L 307,86" />
    <path id="segment_207" d="M 359,82 L 360,82" />
    <path id="segment_208" d="M 292,83 L 291,84 L 290,85 L 289,86 L 288,86 L 287,87 L 286,87 L 285,87 L 284,87 L 283,87 L 282,87 L 281,87 L 280,87 L 279,87 L 278,87 L 277,87 L 276,87 L 275,86 L 274,86 L 273,86 L 272,86 L 271,86 L 270,86 L 269,86 L 268,87 L 267,88 L 266,89 L 265,90 L 264,90 L 263,90 L 262,91 L 261,91 L 260,91 L 259,91 L 258,91 L 257,91 L 256,92 L 255,92 L 254,92 L 253,92 L 252,92 L 251,92 L 250,92 L 249,92 L 248,92 L 247,92 L 246,92 L 245,92 L 244,92 L 243,92 L 242,92 L 241,92 L 240,92 L 239,92 L 238,92 L 237,92 L 236,92 L 235,92 L 234,92 L 233,92 L 232,92 L 231,92 L 230,92 L 229,93 L 228,93" />
    <path id="segment_209" d="M 175,84 L 176,84" />
    <path id="segment_210" d="M 82,85 L 81,86" />
    <path id="segment_211" d="M 83,85 L 84,85 L 85,85 L 86,85 L 87,85 L 88,85 L 89,85 L 90,85 L 91,85 L 92,85 L 93,85 L 94,85 L 95,85 L 96,85 L 97,85 L 98,86 L 99,86 L 100,86 L 101,86 L 102,86 L 103,86 L 104,86 L 105,86 L 106,87 L 106,88 L 107,89 L 107,90 L 108,91 L 108,92" />
    <path id="segment_212" d="M 178,85 L 177,86" />
    <path id="segment_213" d="M 182,85 L 181,86" />
    <path id="segment_214" d="M 183,85 L 182,86" />
    <path id="segment_215" d="M 184,85 L 183,86" />
    <path id="segment_216" d="M 185,85 L 186,85 L 187,85 L 188,85 L 189,85 L 190,85 L 191,86 L 190,87 L 189,88 L 189,89 L 188,90" />
    <path id="segment_217" d="M 174,86 L 173,87" />
    <path id="segment_218" d="M 175,86 L 176,86" />
    <path id="segment_219" d="M 178,86 L 179,86 L 180,86" />
    <path id="segment_220" d="M 312,86 L 313,86" />
    <path id="segment_221" d="M 80,87 L 79,88 L 78,89 L 77,90 L 76,91 L 75,92 L 74,92 L 73,93 L 72,94 L 71,95 L 70,96 L 69,97 L 68,98 L 67,99 L 66,99 L 65,99 L 64,99 L 63,99 L 62,99 L 61,99 L 60,100 L 59,101 L 58,102 L 58,103 L 57,104 L 56,105 L 55,106 L 54,107 L 53,108 L 53,109 L 52,110 L 51,111 L 50,111 L 49,111 L 48,111 L 47,111 L 46,111 L 45,111 L 44,111 L 43,111 L 42,111 L 41,111 L 40,111 L 39,111 L 38,111 L 37,111 L 36,112 L 35,112 L 34,112 L 33,112 L 32,112 L 31,112 L 30,112 L 29,112 L 28,112 L 27,112 L 26,112 L 25,112 L 24,112 L 23,112 L 22,112 L 21,112 L 20,113 L 19,113 L 18,113 L 17,113 L 16,113 L 15,112 L 14,111 L 13,110 L 12,109 L 11,109 L 10,108 L 9,107 L 8,106 L 7,105 L 6,105 L 5,104" />
    <path id="segment_222" d="M 160,87 L 159,88" />
    <path id="segment_223" d="M 161,87 L 160,88" />
    <path id="segment_224" d="M 162,87 L 161,88" />
    <path id="segment_225" d="M 163,87 L 164,87 L 165,87 L 166,87 L 167,87 L 168,87 L 169,87 L 170,87 L 171,87 L 172,87" />
    <path id="segment_226" d="M 184,87 L 185,87 L 186,88 L 187,89" />
    <path id="segment_227" d="M 309,87 L 310,87" />
    <path id="segment_228" d="M 153,88 L 152,89" />
    <path id="segment_229" d="M 154,88 L 155,88 L 156,88 L 157,88 L 158,88" />
    <path id="segment_230" d="M 32,89 L 31,90" />
    <path id="segment_231" d="M 33,89 L 34,89" />
    <path id="segment_232" d="M 116,89 L 115,90" />
    <path id="segment_233" d="M 117,89 L 118,89 L 119,89 L 120,89 L 121,89 L 122,89 L 123,89 L 124,89 L 125,90 L 126,90 L 127,90 L 128,90 L 129,90 L 130,90 L 131,90 L 132,90 L 133,90 L 134,90 L 135,90 L 136,90 L 137,90 L 138,90 L 139,90 L 140,89 L 141,89 L 142,89 L 143,89 L 144,89 L 145,89 L 146,89 L 147,89 L 148,89 L 149,89 L 150,89 L 151,89" />
    <path id="segment_234" d="M 161,89 L 162,90 L 162,91 L 163,92 L 164,93 L 164,94 L 165,95 L 166,96 L 166,97 L 167,98 L 167,99 L 168,100 L 169,100 L 170,100 L 171,100 L 172,100 L 173,100 L 174,100 L 175,100 L 176,100 L 177,100 L 178,100 L 179,100 L 180,99 L 181,98 L 182,97 L 182,96 L 183,95 L 184,94 L 185,93 L 186,92 L 187,91" />
    <path id="segment_235" d="M 110,90 L 109,91" />
    <path id="segment_236" d="M 111,90 L 112,90 L 113,90 L 114,90" />
    <path id="segment_237" d="M 189,90 L 190,91 L 191,92 L 192,93 L 193,93 L 194,94 L 195,94 L 196,94 L 197,94 L 198,94 L 199,94 L 200,94 L 201,94 L 202,94 L 203,94 L 204,94 L 205,94 L 206,94 L 207,94 L 208,94 L 209,94 L 210,94 L 211,94 L 212,94 L 213,94 L 214,94 L 215,95 L 216,95 L 217,95 L 218,95 L 219,95 L 220,95 L 221,95 L 222,95 L 223,94 L 224,94 L 225,94 L 226,94" />
    <path id="segment_238" d="M 379,90 L 378,91" />
    <path id="segment_239" d="M 380,90 L 381,90 L 382,90 L 383,90" />
    <path id="segment_240" d="M 30,91 L 29,92 L 28,92 L 27,93 L 26,94 L 25,95 L 24,95 L 23,95 L 22,95 L 21,94 L 20,94 L 19,94 L 18,94 L 17,94 L 16,94 L 15,94 L 14,94 L 13,94 L 12,94 L 11,94 L 10,94 L 9,94 L 8,94 L 7,94" />
    <path id="segment_241" d="M 375,91 L 374,92" />
    <path id="segment_242" d="M 376,91 L 377,91" />
    <path id="segment_243" d="M 387,91 L 388,91" />
    <path id="segment_244" d="M 392,91 L 393,91" />
    <path id="segment_245" d="M 369,92 L 368,93" />
    <path id="segment_246" d="M 370,92 L 371,92 L 372,92 L 373,92" />
    <path id="segment_247" d="M 107,93 L 106,94 L 105,95 L 104,96 L 103,97 L 102,98 L 101,98 L 100,98 L 99,98 L 98,98 L 97,98 L 96,98 L 95,97 L 94,97 L 93,97 L 92,97" />
    <path id="segment_248" d="M 109,93 L 110,94 L 110,95 L 111,96 L 111,97 L 112,98 L 113,99 L 113,100 L 114,101 L 114,102 L 115,103 L 115,104 L 116,105 L 117,105 L 118,105 L 119,105 L 120,105 L 121,105 L 122,105 L 123,106 L 124,106 L 125,106" />
    <path id="segment_249" d="M 362,93 L 361,94" />
    <path id="segment_250" d="M 363,93 L 364,93 L 365,93 L 366,93 L 367,93" />
    <path id="segment_251" d="M 360,94 L 359,95 L 358,95 L 357,95 L 356,95 L 355,95 L 354,95 L 353,95 L 352,96 L 351,96 L 350,96 L 349,96 L 348,96 L 347,97 L 346,97 L 345,97 L 344,97 L 343,98 L 342,98 L 341,98 L 340,99 L 339,99 L 338,99 L 337,99 L 336,99 L 335,100 L 334,100 L 333,100 L 332,100 L 331,100 L 330,100 L 329,100 L 328,100 L 327,100 L 326,100 L 325,99 L 324,99 L 323,99 L 322,99 L 321,99 L 320,99 L 319,100 L 318,100 L 317,101 L 316,101 L 315,102 L 314,102 L 313,102 L 312,103 L 311,103 L 310,104 L 309,104 L 308,105 L 307,105 L 306,105 L 305,105 L 304,105 L 303,105 L 302,105 L 301,105 L 300,105 L 299,105 L 298,105 L 297,105 L 296,105 L 295,105 L 294,105 L 293,106 L 292,106 L 291,106 L 290,106 L 289,106 L 288,106 L 287,106 L 286,106 L 285,106 L 284,106 L 283,106 L 282,106 L 281,106 L 280,106 L 279,106 L 278,106 L 277,106 L 276,107 L 275,107 L 274,107 L 273,107 L 272,108 L 271,108 L 270,108 L 269,108 L 268,108 L 267,108 L 266,108 L 265,108 L 264,108 L 263,108 L 262,109 L 261,109 L 260,109 L 259,109 L 258,109 L 257,109 L 256,108" />
    <path id="segment_252" d="M 7,95 L 7,96 L 6,97 L 6,98 L 6,99 L 6,100 L 6,101 L 6,102 L 5,103" />
    <path id="segment_253" d="M 87,99 L 88,99" />
    <path id="segment_254" d="M 76,103 L 77,103" />
    <path id="segment_255" d="M 5,105 L 6,105" />
    <path id="segment_256" d="M 243,107 L 242,108" />
    <path id="segment_257" d="M 244,107 L 245,107 L 246,107 L 247,107 L 248,107 L 249,107 L 250,107 L 251,107" />
    <path id="segment_258" d="M 237,108 L 236,109" />
    <path id="segment_259" d="M 238,108 L 239,108 L 240,108 L 241,108" />
    <path id="segment_260" d="M 251,108 L 252,108 L 253,108" />
    <path id="segment_261" d="M 254,108 L 253,109" />
    <path id="segment_262" d="M 255,108 L 254,109 L 255,110 L 256,110 L 257,111 L 258,111 L 259,112 L 260,113 L 261,113 L 262,114 L 263,114 L 264,115 L 265,115 L 266,116 L 267,117 L 268,117 L 269,118 L 270,118 L 271,119 L 272,119 L 273,120 L 274,121 L 275,121 L 276,122 L 277,122 L 278,123 L 279,123 L 280,124 L 281,124 L 282,124 L 283,124 L 284,124 L 285,124 L 286,124 L 287,124 L 288,123 L 289,123 L 290,123 L 291,123 L 292,122 L 293,122 L 294,122 L 295,122 L 296,122 L 297,122 L 298,122 L 299,122 L 300,122 L 301,122 L 302,122 L 303,122 L 304,122 L 305,121 L 306,121 L 307,120 L 308,120 L 309,120 L 310,120 L 311,120 L 312,120 L 313,120 L 314,120 L 315,120 L 316,120 L 317,120 L 318,120 L 319,120 L 320,120 L 321,120 L 322,120 L 323,121 L 324,121 L 325,121 L 326,121 L 327,120 L 328,119 L 329,118 L 330,118 L 331,117 L 332,116 L 333,116 L 334,116 L 335,116 L 336,116 L 337,116 L 338,116 L 339,116 L 340,117 L 341,117 L 342,117 L 343,117 L 344,117 L 345,116 L 346,116 L 347,116 L 348,115 L 349,115 L 350,115 L 351,114 L 352,114 L 353,114 L 354,113 L 355,113 L 356,113 L 357,112 L 358,112 L 359,112 L 360,112 L 361,111 L 362,111 L 363,111 L 364,111 L 365,111 L 366,111 L 367,111" />
    <path id="segment_263" d="M 215,109 L 214,110" />
    <path id="segment_264" d="M 216,109 L 217,109 L 218,109 L 219,109 L 220,109 L 221,109 L 222,109 L 223,110 L 224,110 L 225,110 L 226,110 L 227,109 L 228,109 L 229,109 L 230,109 L 231,109 L 232,109 L 233,109 L 234,109 L 235,109" />
    <path id="segment_265" d="M 212,110 L 211,111" />
    <path id="segment_266" d="M 213,110 L 214,110" />
    <path id="segment_267" d="M 209,111 L 208,112" />
    <path id="segment_268" d="M 210,111 L 211,111" />
    <path id="segment_269" d="M 368,111 L 367,112" />
    <path id="segment_270" d="M 369,111 L 370,111 L 371,111 L 372,111 L 373,111 L 374,111 L 375,111 L 376,111 L 377,111 L 378,111 L 379,111 L 380,111 L 381,111 L 382,111 L 383,111 L 384,111 L 385,111 L 386,111 L 387,111 L 388,111 L 389,111" />
    <path id="segment_271" d="M 390,111 L 389,112 L 389,113 L 388,114 L 387,115 L 387,116 L 386,117 L 385,118 L 384,119 L 384,120 L 383,121 L 382,122 L 382,123 L 381,124 L 380,125 L 380,126 L 379,127 L 378,127 L 377,127 L 376,127 L 375,127 L 374,128 L 373,128 L 372,128 L 371,128 L 370,129 L 369,129 L 368,129 L 367,129 L 366,129 L 365,129 L 364,130 L 363,130 L 362,130 L 361,130 L 360,130 L 359,130 L 358,130 L 357,130 L 356,130 L 355,130 L 354,130 L 353,130 L 352,130 L 351,130 L 350,131 L 349,131 L 348,131 L 347,131 L 346,131 L 345,131 L 344,131 L 343,131 L 342,131 L 341,132 L 340,132 L 339,132 L 338,132 L 337,132 L 336,132 L 335,132 L 334,132 L 333,132 L 332,132 L 331,132 L 330,132 L 329,132 L 328,132 L 327,132 L 326,132 L 325,133 L 324,133 L 323,134 L 322,134 L 321,134 L 320,134 L 319,134 L 318,134 L 317,134 L 316,135 L 315,135 L 314,135 L 313,135 L 312,135 L 311,135 L 310,136 L 309,136 L 308,136 L 307,136 L 306,136 L 305,136 L 304,136 L 303,136 L 302,136 L 301,136 L 300,136 L 299,136 L 298,136 L 297,136 L 296,136 L 295,137 L 294,137 L 293,137 L 292,137 L 291,137 L 290,137 L 289,137 L 288,137 L 287,137 L 286,137 L 285,137 L 284,137 L 283,137 L 282,137 L 281,138 L 280,138 L 279,138 L 278,138 L 277,138 L 276,137 L 275,136 L 274,135 L 274,134 L 273,133 L 272,132 L 271,131 L 270,131 L 269,131 L 268,131 L 267,131 L 266,131 L 265,131 L 264,131 L 263,131 L 262,131 L 261,130 L 260,130 L 259,129 L 258,128 L 257,127 L 256,127 L 255,126 L 254,125 L 253,125 L 252,125 L 251,125 L 250,125 L 249,125 L 248,126 L 247,126 L 246,126 L 245,126 L 244,127 L 243,127 L 242,127 L 241,128 L 240,128 L 239,128 L 238,128 L 237,128 L 236,128 L 235,129 L 234,129 L 233,129 L 232,129 L 231,129 L 230,130 L 229,130 L 228,130 L 227,130 L 226,130 L 225,130 L 224,130 L 223,131 L 222,131 L 221,131 L 220,131 L 219,131 L 218,131 L 217,131 L 216,131 L 215,131 L 214,131 L 213,132 L 212,132 L 211,132 L 210,132 L 209,132 L 208,132 L 207,132 L 206,132 L 205,132 L 204,132 L 203,132 L 202,132 L 201,132 L 200,132 L 199,133 L 198,133 L 197,133 L 196,133 L 195,133 L 194,133 L 193,133 L 192,133 L 191,133 L 190,133 L 189,134 L 188,134 L 187,134 L 186,134 L 185,134 L 184,134 L 183,135 L 182,135 L 181,135 L 180,135 L 179,135 L 178,135 L 177,135 L 176,135 L 175,135 L 174,136 L 173,136 L 172,136 L 171,136 L 170,136 L 169,137 L 168,137" />
    <path id="segment_272" d="M 206,112 L 205,113" />
    <path id="segment_273" d="M 207,112 L 208,112" />
    <path id="segment_274" d="M 203,113 L 202,114" />
    <path id="segment_275" d="M 204,113 L 205,113" />
    <path id="segment_276" d="M 200,114 L 199,115" />
    <path id="segment_277" d="M 201,114 L 202,114" />
    <path id="segment_278" d="M 180,115 L 179,116" />
    <path id="segment_279" d="M 181,115 L 182,115 L 183,115 L 184,115 L 185,115 L 186,115 L 187,115 L 188,115 L 189,115 L 190,115 L 191,115 L 192,115 L 193,115 L 194,115 L 195,115 L 196,115 L 197,115 L 198,115" />
    <path id="segment_280" d="M 178,116 L 177,117 L 176,117 L 175,118 L 174,118 L 173,118 L 172,118 L 171,119 L 170,119 L 169,119 L 168,120 L 167,120 L 166,120 L 165,120 L 164,120 L 163,120 L 162,120 L 161,120 L 160,120 L 159,120 L 158,120 L 157,119 L 156,119 L 155,119 L 154,119 L 153,119 L 152,119 L 151,119 L 150,119 L 149,119 L 148,120 L 147,120 L 146,120 L 145,120 L 144,120 L 143,121 L 142,121 L 141,121 L 140,121 L 139,122 L 138,122 L 137,122 L 136,122 L 135,122 L 134,122 L 133,122 L 132,122 L 131,122 L 130,122 L 129,122 L 128,122 L 127,122 L 126,123 L 125,123 L 124,124 L 123,124 L 122,125 L 121,125 L 120,126 L 119,126 L 118,127 L 117,127 L 116,128 L 115,128 L 114,128 L 113,128 L 112,128 L 111,127 L 110,127 L 109,127 L 108,127 L 107,127 L 106,127 L 105,128 L 104,128 L 103,128 L 102,129 L 101,129 L 100,130 L 99,130 L 98,130 L 97,131 L 96,131 L 95,131 L 94,131 L 93,130 L 92,129 L 91,129 L 90,128 L 89,127 L 88,126 L 87,126 L 86,125 L 85,124 L 84,124 L 83,124 L 82,124 L 81,124 L 80,124 L 79,124 L 78,124 L 77,124 L 76,123 L 75,123 L 74,123 L 73,123 L 72,123 L 71,124 L 70,124 L 69,125 L 68,125 L 67,126 L 66,126 L 65,126 L 64,127 L 63,127 L 62,128 L 61,128 L 60,128 L 59,128 L 58,128 L 57,128 L 56,128 L 55,128 L 54,128 L 53,129 L 52,129 L 51,130 L 50,130 L 49,131 L 48,131 L 47,131 L 46,131 L 45,131 L 44,132 L 43,132 L 42,132 L 41,132 L 40,132 L 39,132 L 38,133 L 37,133 L 36,133 L 35,133 L 34,133 L 33,133 L 32,134 L 31,134 L 30,134 L 29,134 L 28,134 L 27,134 L 26,134 L 25,134 L 24,134 L 23,134 L 22,134 L 21,133 L 20,133 L 19,132 L 18,132 L 17,131 L 16,131 L 15,130 L 14,130 L 13,130 L 12,130 L 11,130 L 10,130 L 9,130" />
    <path id="segment_281" d="M 100,118 L 101,118" />
    <path id="segment_282" d="M 382,128 L 383,128" />
    <path id="segment_283" d="M 385,129 L 386,129" />
    <path id="segment_284" d="M 160,137 L 159,138" />
    <path id="segment_285" d="M 161,137 L 162,137 L 163,137 L 164,137 L 165,137 L 166,137 L 167,137 L 168,138 L 167,139 L 167,140 L 166,141 L 165,142 L 164,143 L 164,144 L 163,145 L 162,146 L 161,146 L 160,146 L 159,146 L 158,145 L 157,145 L 156,144 L 155,144 L 154,143 L 153,143 L 152,143 L 151,142" />
    <path id="segment_286" d="M 158,138 L 157,139 L 156,139 L 155,140 L 154,140 L 153,141 L 152,141" />
    <path id="segment_287" d="M 253,141 L 252,142" />
    <path id="segment_288" d="M 254,141 L 255,141 L 256,141 L 257,141 L 258,141 L 259,141 L 260,142 L 261,143 L 262,144 L 263,144 L 264,145 L 265,146 L 266,147 L 267,148 L 268,149 L 269,150 L 270,151 L 271,151 L 272,152 L 273,153 L 274,154 L 273,155" />
    <path id="segment_289" d="M 380,141 L 379,142" />
    <path id="segment_290" d="M 381,141 L 382,141 L 383,141" />
    <path id="segment_291" d="M 150,142 L 149,143" />
    <path id="segment_292" d="M 247,142 L 246,143" />
    <path id="segment_293" d="M 248,142 L 249,142 L 250,142 L 251,142" />
    <path id="segment_294" d="M 378,142 L 377,143 L 376,143 L 375,143 L 374,143 L 373,143 L 372,143 L 371,144 L 370,144 L 369,144 L 368,144 L 367,145 L 366,145 L 365,145 L 364,145 L 363,146 L 362,146 L 361,146 L 360,146 L 359,146 L 358,146 L 357,146 L 356,146 L 355,145 L 354,145 L 353,145 L 352,145 L 351,145 L 350,145 L 349,146 L 348,146 L 347,146 L 346,146 L 345,147 L 344,147 L 343,147 L 342,147 L 341,147 L 340,147 L 339,147 L 338,148 L 337,148 L 336,148 L 335,148 L 334,149 L 333,149 L 332,149 L 331,149 L 330,150 L 329,150 L 328,151 L 327,151 L 326,151 L 325,151 L 324,151 L 323,151 L 322,151 L 321,151 L 320,151 L 319,151 L 318,151 L 317,151 L 316,151 L 315,150 L 314,150 L 313,150 L 312,150 L 311,150 L 310,150 L 309,151 L 308,151 L 307,151 L 306,152 L 305,152 L 304,152 L 303,153 L 302,153 L 301,153 L 300,154 L 299,154 L 298,154 L 297,154 L 296,154 L 295,154 L 294,154 L 293,154 L 292,154 L 291,154 L 290,155 L 289,155 L 288,155 L 287,155 L 286,155 L 285,156 L 284,156 L 283,156 L 282,156 L 281,156 L 280,156 L 279,156 L 278,156 L 277,156 L 276,156 L 275,155 L 274,155" />
    <path id="segment_295" d="M 148,143 L 147,144" />
    <path id="segment_296" d="M 150,143 L 151,143" />
    <path id="segment_297" d="M 236,143 L 235,144" />
    <path id="segment_298" d="M 237,143 L 238,143 L 239,143 L 240,143 L 241,143 L 242,143 L 243,143 L 244,143 L 245,143" />
    <path id="segment_299" d="M 85,144 L 86,144" />
    <path id="segment_300" d="M 144,144 L 143,145" />
    <path id="segment_301" d="M 145,144 L 146,144" />
    <path id="segment_302" d="M 148,144 L 149,144" />
    <path id="segment_303" d="M 234,144 L 233,145 L 232,145 L 231,146 L 230,146 L 229,146 L 228,146 L 227,146 L 226,146 L 225,146 L 224,146 L 223,146 L 222,146 L 221,146 L 220,146 L 219,146 L 218,146 L 217,146 L 216,146 L 215,146 L 214,146 L 213,146 L 212,146 L 211,146 L 210,146 L 209,146 L 208,146 L 207,147 L 206,147 L 205,147 L 204,147 L 203,148 L 202,148 L 201,149 L 200,149 L 199,149 L 198,149 L 197,149 L 196,149 L 195,149 L 194,150 L 193,150 L 192,150 L 191,150 L 190,150 L 189,150 L 188,150 L 187,150 L 186,151 L 185,151 L 184,151 L 183,151 L 182,151 L 181,152 L 180,152 L 179,152 L 178,153 L 177,153 L 176,153 L 175,153 L 174,153 L 173,153 L 172,154 L 171,154 L 170,154 L 169,154 L 168,154 L 167,154 L 166,154 L 165,154 L 164,155 L 163,155 L 162,155 L 161,155 L 160,156 L 159,156 L 158,156 L 157,156 L 156,156 L 155,157 L 154,158 L 153,159 L 152,159 L 151,159 L 150,159 L 149,159 L 148,159 L 147,159 L 146,159 L 145,159 L 144,159 L 143,159 L 142,158 L 141,158 L 140,158 L 139,158 L 138,157 L 137,157 L 136,157 L 135,157 L 134,157 L 133,157 L 132,157 L 131,157 L 130,157 L 129,157 L 128,158 L 127,158 L 126,158 L 125,158 L 124,159 L 123,159 L 122,159 L 121,159 L 120,159 L 119,159 L 118,160 L 117,160 L 116,160 L 115,160 L 114,160 L 113,160 L 112,160 L 111,160 L 110,160 L 109,160 L 108,160 L 107,160 L 106,160 L 105,160 L 104,160 L 103,160 L 102,160 L 101,160 L 100,161 L 99,161 L 98,162 L 97,162 L 96,163 L 95,163 L 94,163 L 93,163 L 92,163 L 91,163 L 90,163 L 89,164 L 88,164 L 87,164 L 86,164 L 85,164 L 84,164 L 83,164 L 82,164 L 81,164 L 80,164 L 79,165 L 78,165 L 77,166 L 76,166 L 75,167 L 74,167 L 73,168 L 72,168 L 71,168 L 70,168 L 69,168 L 68,168 L 67,168 L 66,168 L 65,168 L 64,168 L 63,168 L 62,168 L 61,167 L 60,166 L 59,165 L 59,164 L 58,163 L 57,162 L 56,161 L 55,160 L 54,160 L 53,160 L 52,160 L 51,160 L 50,160 L 49,160 L 48,160 L 47,160 L 46,161 L 45,161 L 44,161 L 43,161 L 42,161 L 41,162 L 40,162 L 39,162 L 38,162 L 37,163 L 36,163 L 35,163 L 34,163 L 33,164 L 32,164 L 31,164 L 30,164 L 29,164 L 28,164 L 27,164 L 26,164 L 25,164 L 24,164 L 23,164 L 22,164 L 21,164 L 20,164 L 19,165 L 18,165 L 17,165 L 16,164 L 15,163 L 14,162 L 13,162 L 12,161 L 11,160 L 10,159 L 9,158 L 8,157 L 7,157 L 6,156 L 5,155 L 4,154" />
    <path id="segment_304" d="M 82,145 L 81,146" />
    <path id="segment_305" d="M 114,145 L 113,146" />
    <path id="segment_306" d="M 115,145 L 116,145 L 117,145 L 118,145 L 119,145 L 120,145 L 121,145 L 122,145 L 123,145 L 124,145 L 125,145 L 126,145 L 127,145 L 128,145 L 129,145 L 130,146 L 131,146 L 132,146" />
    <path id="segment_307" d="M 140,145 L 139,146" />
    <path id="segment_308" d="M 141,145 L 142,145" />
    <path id="segment_309" d="M 55,146 L 54,147" />
    <path id="segment_310" d="M 56,146 L 57,146 L 58,146 L 59,146 L 60,146 L 61,146 L 62,146 L 63,146 L 64,146 L 65,146 L 66,146 L 67,147 L 68,147 L 69,147 L 70,147 L 71,147 L 72,147 L 73,147 L 74,147 L 75,146 L 76,146 L 77,146 L 78,146 L 79,146 L 80,146" />
    <path id="segment_311" d="M 82,146 L 83,146 L 84,146 L 85,146 L 86,146 L 87,147 L 88,147 L 89,147 L 90,147 L 91,146" />
    <path id="segment_312" d="M 102,146 L 101,147" />
    <path id="segment_313" d="M 103,146 L 104,146 L 105,146 L 106,146 L 107,146 L 108,146 L 109,146 L 110,146 L 111,146 L 112,146" />
    <path id="segment_314" d="M 133,146 L 132,147" />
    <path id="segment_315" d="M 134,146 L 135,146 L 136,146 L 137,146 L 138,146" />
    <path id="segment_316" d="M 52,147 L 51,148" />
    <path id="segment_317" d="M 53,147 L 54,147" />
    <path id="segment_318" d="M 91,147 L 92,147 L 93,147 L 94,147 L 95,147 L 96,147 L 97,147 L 98,147 L 99,147" />
    <path id="segment_319" d="M 100,147 L 99,148" />
    <path id="segment_320" d="M 127,147 L 128,147" />
    <path id="segment_321" d="M 49,148 L 48,149" />
    <path id="segment_322" d="M 50,148 L 51,148" />
    <path id="segment_323" d="M 104,148 L 105,148" />
    <path id="segment_324" d="M 45,149 L 44,150" />
    <path id="segment_325" d="M 46,149 L 47,149" />
    <path id="segment_326" d="M 35,150 L 34,151" />
    <path id="segment_327" d="M 36,150 L 37,150 L 38,150 L 39,150 L 40,150 L 41,150 L 42,150 L 43,150" />
    <path id="segment_328" d="M 18,151 L 17,152" />
    <path id="segment_329" d="M 19,151 L 20,151 L 21,151 L 22,151 L 23,151 L 24,151 L 25,151 L 26,151 L 27,151 L 28,151 L 29,151 L 30,151 L 31,151 L 32,151 L 33,151" />
    <path id="segment_330" d="M 14,152 L 13,153" />
    <path id="segment_331" d="M 15,152 L 16,152" />
    <path id="segment_332" d="M 10,153 L 9,154" />
    <path id="segment_333" d="M 11,153 L 12,153" />
    <path id="segment_334" d="M 5,154 L 6,154 L 7,154 L 8,154" />
    <path id="segment_335" d="M 269,155 L 268,156" />
    <path id="segment_336" d="M 270,155 L 271,155 L 272,155" />
    <path id="segment_337" d="M 267,156 L 266,157 L 265,157 L 264,158 L 263,158 L 262,158 L 261,159 L 260,159 L 259,160 L 258,160 L 257,160 L 256,160 L 255,160 L 254,160 L 253,160 L 252,160 L 251,160 L 250,160 L 249,161 L 248,161 L 247,161 L 246,161 L 245,162 L 244,162 L 243,162 L 242,163 L 241,163 L 240,163 L 239,163 L 238,163 L 237,163 L 236,163 L 235,163 L 234,163 L 233,164 L 232,164 L 231,164 L 230,164 L 229,164 L 228,164 L 227,164 L 226,164 L 225,164 L 224,164 L 223,164 L 222,165 L 221,165 L 220,165 L 219,165 L 218,165 L 217,165 L 216,165 L 215,166 L 214,166 L 213,166 L 212,167 L 211,167 L 210,167 L 209,167 L 208,167 L 207,167 L 206,167 L 205,167 L 204,167 L 203,167 L 202,167 L 201,167 L 200,167 L 199,167 L 198,167 L 197,167 L 196,167 L 195,167 L 194,167 L 193,168 L 192,168 L 191,168 L 190,168 L 189,168 L 188,168 L 187,168 L 186,168 L 185,168 L 184,168 L 183,168 L 182,169 L 181,169 L 180,169 L 179,169 L 178,170 L 177,170 L 176,171 L 175,171 L 174,171 L 173,171 L 172,171 L 171,171 L 170,171 L 169,171 L 168,171" />
    <path id="segment_338" d="M 362,158 L 361,159" />
    <path id="segment_339" d="M 363,158 L 364,158 L 365,158 L 366,158 L 367,159 L 368,159 L 369,160 L 370,160 L 371,161 L 372,161 L 373,162 L 374,162 L 375,163 L 376,163 L 377,163 L 378,163 L 379,163 L 380,163 L 381,163 L 382,163" />
    <path id="segment_340" d="M 360,160 L 359,161 L 358,162 L 357,163 L 356,164 L 355,165 L 354,165" />
    <path id="segment_341" d="M 232,162 L 233,162" />
    <path id="segment_342" d="M 383,162 L 384,162" />
    <path id="segment_343" d="M 385,162 L 384,163" />
    <path id="segment_344" d="M 386,162 L 385,163" />
    <path id="segment_345" d="M 387,162 L 388,162" />
    <path id="segment_346" d="M 341,163 L 340,164" />
    <path id="segment_347" d="M 342,163 L 343,163 L 344,163 L 345,163 L 346,163 L 347,163 L 348,163 L 349,163 L 350,163 L 351,163 L 352,163 L 353,164" />
    <path id="segment_348" d="M 336,164 L 335,165" />
    <path id="segment_349" d="M 337,164 L 338,164 L 339,164" />
    <path id="segment_350" d="M 382,164 L 381,165" />
    <path id="segment_351" d="M 383,164 L 384,164" />
    <path id="segment_352" d="M 332,165 L 331,166" />
    <path id="segment_353" d="M 333,165 L 334,165" />
    <path id="segment_354" d="M 380,165 L 379,166 L 378,166 L 377,167 L 376,167 L 375,168 L 374,168 L 373,169 L 372,169 L 371,170 L 370,170 L 369,171 L 368,171 L 367,172 L 366,172 L 365,172 L 364,172 L 363,172 L 362,172 L 361,172 L 360,171 L 359,171 L 358,170" />
    <path id="segment_355" d="M 327,166 L 326,167" />
    <path id="segment_356" d="M 328,166 L 329,166 L 330,166" />
    <path id="segment_357" d="M 354,166 L 353,167" />
    <path id="segment_358" d="M 355,166 L 355,167 L 356,168 L 357,169" />
    <path id="segment_359" d="M 307,167 L 306,168" />
    <path id="segment_360" d="M 308,167 L 309,167 L 310,167 L 311,167 L 312,167 L 313,167 L 314,167 L 315,167 L 316,167 L 317,167 L 318,167 L 319,167 L 320,167 L 321,167 L 322,167 L 323,167 L 324,167 L 325,167" />
    <path id="segment_361" d="M 299,168 L 298,169" />
    <path id="segment_362" d="M 300,168 L 301,168 L 302,168 L 303,168 L 304,168 L 305,168" />
    <path id="segment_363" d="M 352,168 L 351,169 L 350,170 L 349,171 L 348,172" />
    <path id="segment_364" d="M 295,169 L 294,170" />
    <path id="segment_365" d="M 296,169 L 297,169" />
    <path id="segment_366" d="M 289,170 L 288,171" />
    <path id="segment_367" d="M 290,170 L 291,170 L 292,170 L 293,170" />
    <path id="segment_368" d="M 156,171 L 155,172" />
    <path id="segment_369" d="M 157,171 L 158,171 L 159,171 L 160,171 L 161,171 L 162,171 L 163,171 L 164,171 L 165,171 L 166,171 L 167,171 L 168,172" />
    <path id="segment_370" d="M 266,171 L 265,172" />
    <path id="segment_371" d="M 267,171 L 268,171 L 269,171 L 270,171 L 271,171 L 272,171 L 273,171 L 274,171 L 275,171 L 276,171 L 277,171 L 278,171 L 279,171 L 280,171 L 281,171 L 282,171 L 283,171 L 284,171 L 285,171 L 286,171 L 287,171" />
    <path id="segment_372" d="M 352,171 L 351,172" />
    <path id="segment_373" d="M 353,171 L 354,171 L 355,171 L 356,171 L 357,171 L 358,171" />
    <path id="segment_374" d="M 154,172 L 153,173 L 152,174 L 151,174 L 150,175 L 149,176 L 148,176 L 147,177 L 146,177 L 145,177 L 144,177 L 143,177 L 142,177 L 141,177 L 140,177 L 139,177 L 138,177 L 137,177 L 136,177 L 135,177 L 134,177 L 133,177 L 132,177 L 131,177 L 130,177 L 129,177 L 128,177 L 127,177 L 126,177 L 125,177 L 124,177 L 123,177 L 122,177 L 121,177 L 120,177 L 119,177 L 118,177 L 117,177 L 116,178 L 115,178 L 114,179 L 113,179 L 112,179 L 111,180 L 110,180 L 109,181 L 108,181 L 107,182 L 106,182 L 105,182 L 104,182 L 103,182 L 102,181 L 101,181 L 100,181 L 99,181 L 98,181 L 97,181 L 96,181 L 95,181 L 94,181 L 93,182 L 92,182 L 91,182 L 90,182 L 89,181 L 88,181 L 87,181 L 86,181 L 85,181 L 84,181 L 83,181 L 82,180 L 81,180 L 80,180 L 79,180 L 78,180 L 77,180 L 76,180 L 75,180 L 74,181 L 73,181 L 72,181 L 71,182 L 70,182 L 69,182 L 68,183 L 67,183 L 66,183 L 65,184 L 64,184 L 63,184 L 62,185 L 61,185 L 60,185 L 59,185 L 58,185 L 57,185 L 56,184 L 55,184 L 54,183 L 53,183 L 52,182 L 51,182 L 50,181 L 49,181 L 48,180 L 47,180 L 46,180 L 45,180 L 44,180 L 43,181 L 42,181 L 41,181 L 40,181 L 39,181 L 38,181 L 37,182 L 36,182 L 35,182 L 34,182 L 33,182 L 32,182 L 31,182 L 30,182 L 29,182 L 28,182 L 27,181 L 26,181 L 25,181 L 24,181 L 23,181 L 22,181 L 21,181 L 20,181 L 19,181 L 18,181 L 17,181 L 16,181 L 15,181 L 14,181 L 13,181 L 12,181 L 11,181 L 10,181 L 9,181 L 8,181 L 7,181 L 6,181 L 5,181" />
    <path id="segment_375" d="M 259,172 L 258,173" />
    <path id="segment_376" d="M 260,172 L 261,172 L 262,172 L 263,172 L 264,172" />
    <path id="segment_377" d="M 350,172 L 349,173 L 348,173 L 347,173" />
    <path id="segment_378" d="M 257,173 L 256,174 L 255,174" />
    <path id="segment_379" d="M 346,174 L 345,175" />
    <path id="segment_380" d="M 347,174 L 348,174" />
    <path id="segment_381" d="M 253,175 L 252,176" />
    <path id="segment_382" d="M 254,175 L 255,175" />
    <path id="segment_383" d="M 344,175 L 343,176" />
    <path id="segment_384" d="M 244,176 L 243,177" />
    <path id="segment_385" d="M 245,176 L 246,176 L 247,176 L 248,176 L 249,176 L 250,176 L 251,176" />
    <path id="segment_386" d="M 342,176 L 341,177 L 340,177 L 339,177 L 338,178 L 337,178 L 336,179 L 335,179 L 334,179 L 333,179 L 332,179 L 331,179 L 330,179 L 329,179 L 328,179 L 327,179 L 326,179 L 325,179 L 324,179 L 323,179 L 322,179 L 321,179 L 320,179 L 319,179 L 318,180 L 317,180 L 316,180 L 315,180 L 314,181 L 313,181 L 312,182 L 311,181" />
    <path id="segment_387" d="M 344,176 L 345,176" />
    <path id="segment_388" d="M 234,177 L 233,178" />
    <path id="segment_389" d="M 235,177 L 236,177 L 237,177 L 238,177 L 239,177 L 240,177 L 241,177 L 242,177" />
    <path id="segment_390" d="M 227,178 L 226,179" />
    <path id="segment_391" d="M 228,178 L 229,178 L 230,178 L 231,178 L 232,178" />
    <path id="segment_392" d="M 221,179 L 220,180" />
    <path id="segment_393" d="M 222,179 L 223,179 L 224,179 L 225,179" />
    <path id="segment_394" d="M 191,180 L 190,181" />
    <path id="segment_395" d="M 192,180 L 193,180 L 194,180 L 195,180 L 196,180 L 197,180 L 198,180 L 199,180 L 200,180 L 201,180 L 202,180 L 203,180 L 204,180 L 205,180 L 206,180 L 207,180 L 208,180 L 209,180 L 210,180 L 211,180 L 212,180 L 213,180 L 214,180 L 215,180 L 216,180 L 217,180 L 218,180 L 219,180" />
    <path id="segment_396" d="M 188,181 L 187,182" />
    <path id="segment_397" d="M 189,181 L 190,181" />
    <path id="segment_398" d="M 186,182 L 185,183 L 184,183 L 183,183 L 182,184 L 181,184 L 180,184 L 179,184 L 178,184 L 177,184 L 176,184 L 175,184 L 174,185 L 173,185 L 172,186 L 171,186 L 170,186 L 169,186 L 168,187 L 167,187 L 166,187 L 165,187 L 164,188 L 163,188 L 162,188 L 161,188 L 160,188 L 159,188 L 158,189 L 157,189 L 156,189 L 155,189 L 154,189 L 153,189 L 152,189 L 151,189 L 150,189 L 149,189 L 148,190 L 147,190 L 146,191 L 145,191 L 144,191 L 143,191 L 142,191 L 141,191 L 140,191 L 139,191 L 138,191 L 137,191 L 136,191 L 135,191 L 134,191 L 133,191 L 132,191 L 131,191 L 130,191 L 129,191 L 128,191 L 127,191 L 126,191 L 125,191 L 124,192 L 123,192 L 122,192 L 121,192 L 120,193 L 119,193 L 118,193 L 117,193 L 116,193 L 115,193 L 114,194 L 113,194 L 112,194 L 111,194 L 110,195 L 109,196 L 109,197 L 108,198 L 107,199 L 106,199 L 105,199 L 104,199 L 103,199 L 102,199 L 101,199 L 100,199 L 99,199 L 98,199 L 97,199 L 96,200 L 95,200 L 94,200 L 93,200 L 92,201 L 91,201 L 90,201 L 89,201 L 88,202 L 87,202 L 86,202 L 85,202 L 84,202 L 83,202 L 82,202 L 81,203 L 80,203 L 79,203 L 78,203 L 77,203 L 76,203 L 75,203 L 74,203 L 73,203 L 72,203 L 71,203 L 70,203 L 69,203 L 68,203 L 67,202 L 66,202 L 65,202 L 64,202 L 63,202 L 62,203 L 61,203 L 60,204 L 59,204 L 58,204 L 57,205 L 56,205 L 55,205 L 54,205 L 53,205 L 52,205 L 51,206 L 50,206 L 49,206 L 48,206 L 47,206 L 46,206 L 45,206 L 44,207 L 43,207 L 42,207 L 41,207 L 40,208 L 39,208 L 38,209 L 37,209 L 36,209 L 35,209 L 34,209 L 33,209 L 32,208 L 31,208 L 30,208 L 29,208 L 28,207 L 27,207 L 26,207 L 25,207 L 24,207 L 23,207 L 22,207 L 21,207 L 20,207 L 19,207 L 18,208 L 17,208 L 16,209 L 15,209 L 14,210 L 13,210 L 12,210 L 11,210 L 10,210 L 9,210 L 8,210" />
    <path id="segment_399" d="M 311,182 L 310,183 L 309,184 L 308,184 L 307,185 L 306,185 L 305,186 L 304,187 L 303,187 L 302,188 L 301,188 L 300,189 L 299,190 L 298,190 L 297,191 L 296,191 L 295,192 L 294,192" />
    <path id="segment_400" d="M 305,183 L 306,183" />
    <path id="segment_401" d="M 392,186 L 393,186" />
    <path id="segment_402" d="M 248,187 L 247,188" />
    <path id="segment_403" d="M 249,187 L 250,187 L 251,187 L 252,187 L 253,187 L 254,187 L 255,187 L 256,187 L 257,187 L 258,187 L 259,187 L 260,187 L 261,187 L 262,187 L 263,187 L 264,187 L 265,187 L 266,188 L 267,188 L 268,188 L 269,188 L 270,188 L 271,188 L 272,188 L 273,188 L 274,188 L 275,188 L 276,188 L 277,188 L 278,188" />
    <path id="segment_404" d="M 388,187 L 389,187" />
    <path id="segment_405" d="M 246,188 L 245,189 L 244,189 L 243,189 L 242,189 L 241,190 L 240,191 L 239,190" />
    <path id="segment_406" d="M 279,188 L 278,189" />
    <path id="segment_407" d="M 280,188 L 281,188 L 282,188 L 283,188 L 284,188 L 285,188" />
    <path id="segment_408" d="M 286,188 L 285,189" />
    <path id="segment_409" d="M 287,188 L 288,188 L 289,189 L 290,190 L 291,190 L 292,191 L 293,192" />
    <path id="segment_410" d="M 382,188 L 381,189" />
    <path id="segment_411" d="M 383,188 L 384,188 L 385,188" />
    <path id="segment_412" d="M 379,189 L 378,190" />
    <path id="segment_413" d="M 380,189 L 381,189" />
    <path id="segment_414" d="M 284,190 L 283,191 L 283,192 L 282,193 L 281,194 L 280,195 L 279,196 L 278,197 L 278,198 L 277,199 L 276,200 L 275,201 L 274,201 L 273,201 L 272,201 L 271,201 L 270,201 L 269,201 L 268,201 L 267,201 L 266,201 L 265,201 L 264,201 L 263,201 L 262,201 L 261,201 L 260,201 L 259,202 L 258,202 L 257,202 L 256,202 L 255,203 L 254,203 L 253,203 L 252,204 L 251,204 L 250,204 L 249,205 L 248,205 L 247,206 L 246,206 L 245,206 L 244,207 L 243,207 L 242,207 L 241,208 L 240,208 L 239,208 L 238,208 L 237,208 L 236,208 L 235,207" />
    <path id="segment_415" d="M 376,190 L 375,191" />
    <path id="segment_416" d="M 377,190 L 378,190" />
    <path id="segment_417" d="M 372,191 L 371,192" />
    <path id="segment_418" d="M 373,191 L 374,191" />
    <path id="segment_419" d="M 240,192 L 239,193 L 238,194 L 237,195 L 237,196 L 236,197 L 235,198 L 234,199 L 234,200 L 233,201 L 232,202 L 231,203 L 231,204 L 230,205 L 229,206 L 228,206" />
    <path id="segment_420" d="M 334,192 L 333,193" />
    <path id="segment_421" d="M 335,192 L 336,192 L 337,192 L 338,192 L 339,192 L 340,192 L 341,192 L 342,192 L 343,192 L 344,192 L 345,192 L 346,192 L 347,192 L 348,192 L 349,192 L 350,192 L 351,192 L 352,192 L 353,192 L 354,192 L 355,192 L 356,192 L 357,192 L 358,192 L 359,192 L 360,192 L 361,193 L 362,193 L 363,193 L 364,193 L 365,193 L 366,193 L 367,193 L 368,193 L 369,192 L 370,192" />
    <path id="segment_422" d="M 295,193 L 296,193 L 297,193 L 298,193 L 299,194 L 300,194 L 301,194 L 302,195 L 303,195 L 304,195 L 305,196 L 306,196 L 307,196 L 308,196 L 309,197 L 310,197 L 311,197 L 312,197 L 313,198 L 314,198 L 315,199 L 316,199 L 317,199 L 318,199 L 319,199 L 320,199 L 321,199 L 322,199 L 323,198 L 324,198 L 325,197" />
    <path id="segment_423" d="M 332,193 L 331,194 L 330,194 L 329,195 L 328,195 L 327,196 L 326,197 L 325,198" />
    <path id="segment_424" d="M 287,197 L 288,197" />
    <path id="segment_425" d="M 283,198 L 284,198" />
    <path id="segment_426" d="M 183,200 L 182,201" />
    <path id="segment_427" d="M 184,200 L 185,200 L 186,200 L 187,200 L 188,201 L 189,201 L 190,201 L 191,201 L 192,201 L 193,201 L 194,201 L 195,201 L 196,201 L 197,201 L 198,202 L 199,202 L 200,203 L 201,203 L 202,204 L 203,204 L 204,205 L 205,205 L 206,206 L 207,206 L 208,207 L 209,207 L 210,208 L 211,208 L 212,208 L 213,208 L 214,208 L 215,208 L 216,208 L 217,207 L 218,207 L 219,207 L 220,207 L 221,207 L 222,207 L 223,207 L 224,207 L 225,206 L 224,205" />
    <path id="segment_428" d="M 181,201 L 180,202 L 179,202 L 178,203 L 177,203 L 176,204 L 175,204 L 174,205 L 173,205 L 172,206 L 171,206 L 170,206 L 169,206 L 168,205 L 167,205 L 166,205 L 165,205 L 164,205 L 163,205 L 162,205 L 161,205 L 160,205 L 159,205 L 158,205 L 157,205 L 156,205 L 155,205 L 154,205 L 153,205 L 152,204 L 151,204 L 150,204 L 149,204 L 148,204 L 147,205 L 146,205 L 145,206 L 144,206 L 143,207 L 142,207 L 141,208 L 140,208 L 139,209 L 138,209 L 137,210 L 136,210 L 135,210 L 134,210 L 133,210 L 132,211 L 131,211 L 130,211 L 129,211 L 128,212 L 127,213 L 126,214 L 125,214 L 124,215 L 123,216 L 122,217 L 121,218 L 120,218 L 119,218 L 118,217 L 117,216 L 116,215 L 115,215 L 114,214 L 113,213 L 112,212 L 111,212 L 110,212 L 109,212 L 108,212 L 107,213 L 106,213 L 105,213 L 104,213 L 103,213 L 102,214 L 101,214 L 100,214 L 99,214 L 98,214 L 97,214 L 96,214 L 95,214 L 94,215 L 93,215 L 92,215 L 91,215 L 90,215 L 89,215 L 88,215 L 87,215 L 86,215 L 85,215 L 84,215 L 83,215 L 82,215 L 81,215 L 80,215 L 79,216 L 78,216 L 77,216 L 76,216 L 75,216 L 74,216 L 73,216 L 72,216 L 71,217 L 70,217 L 69,217 L 68,217 L 67,217 L 66,217 L 65,217 L 64,217 L 63,217 L 62,218 L 61,218 L 60,218 L 59,218 L 58,218 L 57,218 L 56,218 L 55,218 L 54,219 L 53,219 L 52,219 L 51,219 L 50,219 L 49,219 L 48,219 L 47,219" />
    <path id="segment_429" d="M 226,206 L 227,206" />
    <path id="segment_430" d="M 229,207 L 230,207 L 231,207 L 232,207 L 233,207 L 234,207 L 235,208" />
    <path id="segment_431" d="M 367,208 L 366,209" />
    <path id="segment_432" d="M 368,208 L 369,208 L 370,208 L 371,209 L 372,209 L 373,209 L 374,209 L 375,209 L 376,209 L 377,209 L 378,210 L 379,210 L 380,210 L 381,210 L 382,210 L 383,209 L 384,209 L 385,209 L 386,209 L 387,209 L 388,209 L 389,209 L 390,209 L 391,209 L 392,209 L 393,209 L 394,209" />
    <path id="segment_433" d="M 365,209 L 364,210 L 363,210 L 362,210 L 361,210 L 360,211 L 359,211 L 358,211 L 357,211 L 356,211 L 355,211 L 354,212 L 353,212 L 352,212 L 351,212 L 350,212 L 349,212 L 348,212 L 347,212 L 346,212 L 345,212 L 344,212 L 343,212 L 342,212 L 341,212 L 340,213 L 339,213 L 338,213 L 337,213 L 336,213 L 335,213 L 334,213 L 333,213 L 332,213 L 331,213 L 330,214 L 329,214 L 328,214 L 327,214 L 326,214 L 325,214 L 324,214 L 323,215 L 322,215 L 321,215 L 320,215 L 319,216 L 318,216 L 317,217 L 316,217 L 315,218 L 314,218 L 313,218 L 312,219 L 311,219 L 310,219 L 309,219 L 308,219 L 307,219 L 306,219 L 305,219 L 304,219 L 303,219 L 302,219 L 301,219 L 300,219 L 299,219 L 298,219 L 297,219 L 296,219 L 295,219 L 294,219 L 293,219 L 292,219 L 291,219 L 290,220 L 289,220 L 288,220 L 287,220 L 286,220 L 285,220 L 284,220 L 283,220 L 282,219 L 281,219 L 280,219 L 279,219 L 278,219 L 277,219 L 276,219 L 275,219 L 274,219 L 273,219 L 272,220 L 271,220 L 270,220 L 269,220 L 268,221 L 267,221 L 266,221 L 265,221 L 264,222 L 263,222 L 262,222 L 261,223 L 260,223 L 259,223 L 258,223 L 257,223 L 256,224 L 255,224 L 254,224 L 253,224 L 252,225 L 251,225 L 250,226 L 249,226 L 248,226 L 247,226 L 246,226 L 245,226 L 244,227 L 243,227 L 242,227 L 241,227 L 240,227 L 239,227 L 238,227 L 237,227 L 236,228 L 235,228 L 234,229 L 233,229 L 232,230 L 231,230 L 230,230 L 229,231 L 228,231" />
    <path id="segment_434" d="M 172,214 L 171,215" />
    <path id="segment_435" d="M 173,214 L 174,214 L 175,214 L 176,214 L 177,214 L 178,214 L 179,214 L 180,214 L 181,214 L 182,214 L 183,214 L 184,214 L 185,214 L 186,214 L 187,215 L 188,215 L 189,215 L 190,215" />
    <path id="segment_436" d="M 170,215 L 169,216 L 168,216 L 167,217 L 166,217 L 165,217 L 164,217 L 163,217 L 162,217 L 161,217 L 160,217 L 159,217 L 158,218 L 157,218 L 156,218 L 155,218 L 154,219 L 153,219 L 152,219 L 151,219 L 150,220 L 149,220 L 148,220 L 147,220 L 146,221 L 145,221 L 144,221 L 143,221 L 142,221 L 141,222 L 140,222 L 139,222 L 138,222 L 137,222 L 136,222 L 135,222 L 134,222 L 133,222 L 132,222 L 131,222 L 130,222 L 129,222 L 128,221 L 127,221 L 126,221 L 125,221 L 124,221 L 123,222 L 122,222 L 121,222 L 120,222 L 119,222 L 118,223 L 117,223 L 116,223 L 115,223 L 114,224 L 113,224 L 112,224 L 111,224 L 110,224 L 109,225 L 108,225 L 107,225 L 106,225 L 105,225 L 104,225 L 103,226 L 102,226 L 101,226 L 100,226 L 99,226 L 98,227 L 97,227 L 96,227 L 95,228 L 94,228 L 93,228 L 92,229 L 91,229 L 90,229 L 89,229 L 88,229 L 87,229 L 86,229 L 85,229 L 84,229 L 83,229 L 82,229 L 81,229 L 80,229 L 79,229 L 78,229 L 77,229 L 76,228 L 75,228 L 74,228 L 73,228 L 72,228 L 71,228 L 70,228 L 69,228 L 68,228 L 67,228 L 66,228 L 65,228 L 64,228 L 63,228 L 62,228 L 61,228 L 60,227 L 59,227 L 58,227 L 57,227 L 56,227 L 55,226 L 54,225 L 53,225 L 52,224 L 51,223 L 50,222 L 49,221 L 48,221 L 47,220 L 46,219 L 45,219" />
    <path id="segment_437" d="M 191,215 L 190,216" />
    <path id="segment_438" d="M 197,215 L 196,216" />
    <path id="segment_439" d="M 198,215 L 199,215" />
    <path id="segment_440" d="M 192,216 L 193,216 L 194,216 L 195,216" />
    <path id="segment_441" d="M 36,219 L 35,220" />
    <path id="segment_442" d="M 37,219 L 37,220" />
    <path id="segment_443" d="M 38,219 L 38,220" />
    <path id="segment_444" d="M 39,219 L 39,220" />
    <path id="segment_445" d="M 40,219 L 40,220" />
    <path id="segment_446" d="M 41,219 L 41,220" />
    <path id="segment_447" d="M 42,219 L 42,220" />
    <path id="segment_448" d="M 43,219 L 43,220" />
    <path id="segment_449" d="M 44,219 L 44,220" />
    <path id="segment_450" d="M 33,220 L 32,221" />
    <path id="segment_451" d="M 34,220 L 33,221" />
    <path id="segment_452" d="M 45,220 L 46,220" />
    <path id="segment_453" d="M 14,221 L 13,222" />
    <path id="segment_454" d="M 29,221 L 28,222" />
    <path id="segment_455" d="M 30,221 L 29,222" />
    <path id="segment_456" d="M 31,221 L 30,222" />
    <path id="segment_457" d="M 34,221 L 35,221 L 36,221" />
    <path id="segment_458" d="M 8,222 L 9,222 L 10,222 L 11,222 L 12,222" />
    <path id="segment_459" d="M 14,222 L 15,222 L 16,222 L 17,222 L 18,222 L 19,222 L 20,222 L 21,222 L 22,222 L 23,222" />
    <path id="segment_460" d="M 24,222 L 23,223" />
    <path id="segment_461" d="M 25,222 L 26,222 L 27,222" />
    <path id="segment_462" d="M 47,231 L 46,232" />
    <path id="segment_463" d="M 48,231 L 49,231 L 50,232 L 50,233 L 51,234 L 52,235 L 52,236 L 53,237 L 54,238 L 54,239 L 55,240 L 55,241 L 56,242 L 57,243 L 57,244 L 58,245 L 59,246 L 59,247 L 60,248 L 61,249 L 61,250 L 62,251 L 63,251 L 64,251 L 65,250 L 66,250 L 67,250 L 68,249 L 69,249 L 70,249 L 71,248 L 72,248 L 73,248 L 74,248 L 75,248 L 76,248 L 77,247 L 78,247 L 79,247 L 80,246 L 81,246 L 82,246 L 83,246 L 84,246 L 85,246 L 86,246 L 87,246 L 88,246 L 89,247 L 90,247 L 91,247 L 92,247 L 93,247 L 94,247 L 95,247 L 96,247 L 97,247 L 98,247 L 99,247 L 100,247 L 101,247 L 102,247 L 103,247 L 104,246 L 105,246 L 106,246 L 107,246 L 108,246 L 109,246 L 110,245 L 111,245 L 112,245 L 113,245 L 114,244 L 115,244 L 116,244 L 117,244 L 118,243 L 119,243 L 120,243 L 121,243 L 122,243 L 123,243 L 124,243 L 125,242 L 126,242 L 127,242 L 128,242 L 129,241 L 130,241 L 131,241 L 132,240 L 133,240 L 134,240 L 135,240 L 136,240 L 137,241 L 138,241 L 139,241 L 140,241 L 141,241 L 142,241 L 143,241 L 144,241 L 145,240 L 146,240 L 147,240 L 148,240 L 149,239 L 150,239 L 151,239 L 152,239 L 153,238 L 154,238 L 155,238 L 156,238 L 157,238 L 158,238 L 159,238 L 160,238 L 161,238 L 162,238 L 163,238 L 164,237 L 165,237 L 166,237 L 167,237 L 168,237 L 169,237 L 170,237 L 171,237 L 172,237 L 173,237 L 174,237 L 175,237 L 176,237 L 177,237 L 178,237 L 179,237 L 180,237 L 181,237 L 182,237 L 183,237 L 184,236 L 185,236 L 186,236 L 187,235 L 188,235 L 189,235 L 190,235 L 191,234 L 192,234 L 193,234 L 194,234 L 195,234 L 196,234 L 197,234 L 198,234 L 199,234 L 200,233 L 201,233 L 202,233 L 203,233 L 204,233 L 205,233 L 206,233 L 207,233 L 208,233 L 209,233 L 210,233 L 211,233 L 212,233 L 213,233 L 214,233 L 215,233 L 216,233 L 217,233 L 218,233 L 219,233 L 220,233 L 221,233 L 222,233 L 223,233 L 224,233 L 225,233 L 226,232 L 227,232 L 228,232" />
    <path id="segment_464" d="M 387,231 L 386,232" />
    <path id="segment_465" d="M 388,231 L 389,231 L 390,231 L 391,231 L 392,231" />
    <path id="segment_466" d="M 41,232 L 40,233" />
    <path id="segment_467" d="M 42,232 L 43,232 L 44,232 L 45,232" />
    <path id="segment_468" d="M 384,232 L 385,232" />
    <path id="segment_469" d="M 39,233 L 38,234 L 37,234 L 36,234 L 35,235 L 34,235 L 33,235 L 32,236 L 31,236 L 30,237 L 29,237 L 28,237 L 27,237 L 26,237 L 25,237 L 24,237 L 23,237 L 22,237 L 21,236 L 20,236 L 19,236 L 18,236 L 17,236 L 16,236 L 15,236 L 14,235 L 13,235 L 12,235 L 11,235 L 10,235 L 9,235 L 8,235 L 7,235" />
    <path id="segment_470" d="M 325,239 L 324,240" />
    <path id="segment_471" d="M 326,239 L 326,240" />
    <path id="segment_472" d="M 327,239 L 328,239 L 329,239 L 330,239 L 331,239 L 332,239 L 333,239 L 334,239 L 335,239 L 336,239 L 337,239 L 338,239 L 339,239 L 340,239 L 341,239 L 342,239 L 343,239 L 344,239 L 345,239 L 346,239 L 347,239 L 348,239 L 349,239 L 350,239 L 351,239 L 352,240 L 353,240 L 354,240 L 355,240 L 356,241 L 357,241 L 358,241 L 359,242 L 360,242 L 361,242 L 362,242 L 363,242 L 364,242 L 365,242 L 366,242 L 367,242 L 368,242 L 369,242 L 370,242 L 371,242 L 372,242 L 373,242 L 374,242 L 375,242 L 376,243 L 377,243 L 378,243 L 379,243 L 380,243 L 381,243 L 382,244 L 383,244 L 384,244 L 385,244 L 386,244 L 387,244 L 388,244" />
    <path id="segment_473" d="M 317,240 L 316,241" />
    <path id="segment_474" d="M 318,240 L 319,240 L 320,240 L 321,240 L 322,240 L 323,240" />
    <path id="segment_475" d="M 309,241 L 308,242" />
    <path id="segment_476" d="M 310,241 L 311,241 L 312,241 L 313,241 L 314,241 L 315,241" />
    <path id="segment_477" d="M 301,242 L 300,243" />
    <path id="segment_478" d="M 302,242 L 303,242 L 304,242 L 305,242 L 306,242 L 307,242" />
    <path id="segment_479" d="M 293,243 L 292,244" />
    <path id="segment_480" d="M 294,243 L 295,243 L 296,243 L 297,243 L 298,243 L 299,243" />
    <path id="segment_481" d="M 287,244 L 286,245" />
    <path id="segment_482" d="M 288,244 L 289,244 L 290,244 L 291,244" />
    <path id="segment_483" d="M 269,245 L 268,246" />
    <path id="segment_484" d="M 270,245 L 271,245 L 272,245 L 273,245 L 274,245 L 275,245 L 276,245 L 277,245 L 278,245 L 279,245 L 280,245 L 281,245 L 282,245 L 283,245 L 284,245 L 285,245" />
    <path id="segment_485" d="M 380,245 L 381,245" />
    <path id="segment_486" d="M 265,246 L 264,247" />
    <path id="segment_487" d="M 266,246 L 267,246" />
    <path id="segment_488" d="M 314,246 L 315,246" />
    <path id="segment_489" d="M 260,247 L 259,248" />
    <path id="segment_490" d="M 261,247 L 262,247 L 263,247" />
    <path id="segment_491" d="M 253,248 L 252,249" />
    <path id="segment_492" d="M 254,248 L 255,248 L 256,248 L 257,248 L 258,248" />
    <path id="segment_493" d="M 245,249 L 244,250" />
    <path id="segment_494" d="M 246,249 L 247,249 L 248,249 L 249,249 L 250,249 L 251,249" />
    <path id="segment_495" d="M 239,250 L 238,251" />
    <path id="segment_496" d="M 240,250 L 241,250 L 242,250 L 243,250" />
    <path id="segment_497" d="M 233,251 L 232,252" />
    <path id="segment_498" d="M 234,251 L 235,251 L 236,251 L 237,251" />
    <path id="segment_499" d="M 57,252 L 56,253" />
    <path id="segment_500" d="M 58,252 L 59,252" />
    <path id="segment_501" d="M 226,252 L 225,253" />
    <path id="segment_502" d="M 227,252 L 228,252 L 229,252 L 230,252 L 231,252" />
    <path id="segment_503" d="M 51,253 L 50,254" />
    <path id="segment_504" d="M 52,253 L 53,253 L 54,253 L 55,253" />
    <path id="segment_505" d="M 28,254 L 27,255" />
    <path id="segment_506" d="M 29,254 L 30,254 L 31,254 L 32,254 L 33,254 L 34,254 L 35,254 L 36,254 L 37,254 L 38,254 L 39,254 L 40,254 L 41,254 L 42,254 L 43,255 L 44,255 L 45,255 L 46,255 L 47,254 L 48,254 L 49,254" />
    <path id="segment_507" d="M 224,254 L 223,255 L 222,256 L 222,257 L 221,258 L 220,259 L 219,260 L 218,261 L 217,261 L 216,261 L 215,261 L 214,260 L 213,260 L 212,260 L 211,259 L 210,259 L 209,259 L 208,259 L 207,259 L 206,258 L 205,258 L 204,258 L 203,258 L 202,259 L 201,259 L 200,259 L 199,260 L 198,260 L 197,260 L 196,260 L 195,261 L 194,261 L 193,261 L 192,262 L 191,262 L 190,262 L 189,262 L 188,262 L 187,262 L 186,262 L 185,262" />
    <path id="segment_508" d="M 20,255 L 19,256" />
    <path id="segment_509" d="M 21,255 L 22,255 L 23,255 L 24,255 L 25,255 L 26,255" />
    <path id="segment_510" d="M 14,256 L 13,257" />
    <path id="segment_511" d="M 15,256 L 16,256 L 17,256 L 18,256" />
    <path id="segment_512" d="M 10,257 L 11,257 L 12,257" />
    <path id="segment_513" d="M 7,258 L 8,258" />
    <path id="segment_514" d="M 179,262 L 178,263" />
    <path id="segment_515" d="M 180,262 L 181,262 L 182,262 L 183,262 L 184,262 L 185,263" />
    <path id="segment_516" d="M 177,263 L 176,264 L 175,264 L 174,264 L 173,264 L 172,264 L 171,264 L 170,264 L 169,264 L 168,264 L 167,264 L 166,264 L 165,264 L 164,264 L 163,264 L 162,264 L 161,264 L 160,264 L 159,264 L 158,264 L 157,264 L 156,264 L 155,264 L 154,264 L 153,264 L 152,264 L 151,264 L 150,264 L 149,264 L 148,264 L 147,264 L 146,264 L 145,264 L 144,264 L 143,264 L 142,264 L 141,264 L 140,264 L 139,264 L 138,265 L 137,265 L 136,266 L 135,267 L 134,267 L 133,268 L 132,269 L 131,269 L 130,270 L 129,271 L 128,272 L 127,272 L 126,273 L 125,274 L 124,274 L 123,275 L 122,275 L 121,275 L 120,275 L 119,275 L 118,274 L 117,274 L 116,274 L 115,273 L 114,273 L 113,273 L 112,272 L 111,272 L 110,271 L 109,271 L 108,271 L 107,270 L 106,270 L 105,270 L 104,269 L 103,269 L 102,269 L 101,269 L 100,269 L 99,269 L 98,269 L 97,269 L 96,269 L 95,269 L 94,270 L 93,270 L 92,270 L 91,270 L 90,270 L 89,270 L 88,270 L 87,270 L 86,270 L 85,270 L 84,270 L 83,270 L 82,270 L 81,270 L 80,270 L 79,270 L 78,270 L 77,271 L 76,271 L 75,272 L 74,273 L 73,274 L 72,274 L 71,275 L 70,275 L 69,275 L 68,275 L 67,275 L 66,275 L 65,275 L 64,275 L 63,275 L 62,276 L 61,276 L 60,277 L 59,277 L 58,277 L 57,277 L 56,277 L 55,277 L 54,278 L 53,278 L 52,278 L 51,278 L 50,278 L 49,278 L 48,278 L 47,278 L 46,279 L 45,279 L 44,279 L 43,279 L 42,279 L 41,279 L 40,279 L 39,280 L 38,280 L 37,280 L 36,280 L 35,280 L 34,280 L 33,281 L 32,281 L 31,281 L 30,281 L 29,281 L 28,281 L 27,281 L 26,282 L 25,282 L 24,282 L 23,282 L 22,282 L 21,282 L 20,282 L 19,282 L 18,282 L 17,282 L 16,282 L 15,282 L 14,282 L 13,282" />
    <path id="segment_517" d="M 390,265 L 391,265" />
    <path id="segment_518" d="M 387,266 L 388,266" />
    <path id="segment_519" d="M 380,267 L 379,268" />
    <path id="segment_520" d="M 381,267 L 382,267 L 383,267" />
    <path id="segment_521" d="M 373,268 L 372,269" />
    <path id="segment_522" d="M 374,268 L 375,268 L 376,268 L 377,268 L 378,268" />
    <path id="segment_523" d="M 362,269 L 361,270" />
    <path id="segment_524" d="M 363,269 L 364,269 L 365,269 L 366,269 L 367,269 L 368,269 L 369,269 L 370,269 L 371,269" />
    <path id="segment_525" d="M 360,270 L 359,271 L 358,271 L 357,272 L 356,272 L 355,273 L 354,273 L 353,274 L 352,274 L 351,274 L 350,274 L 349,274 L 348,274 L 347,274 L 346,274 L 345,274 L 344,274 L 343,274 L 342,274 L 341,274 L 340,275 L 339,275 L 338,275 L 337,275 L 336,275 L 335,275 L 334,275 L 333,276 L 332,276 L 331,276 L 330,276 L 329,275 L 328,275 L 327,275 L 326,275 L 325,275 L 324,275 L 323,275 L 322,275 L 321,275 L 320,275 L 319,275 L 318,275 L 317,275 L 316,275 L 315,274 L 314,274 L 313,274 L 312,274 L 311,275 L 310,275 L 309,276 L 308,275" />
    <path id="segment_526" d="M 308,276 L 307,277 L 306,277 L 305,278 L 304,278 L 303,279 L 302,279 L 301,280 L 300,280 L 299,281 L 298,281 L 297,282 L 296,282 L 295,283 L 294,283 L 293,283 L 292,283 L 291,283 L 290,283 L 289,283 L 288,283 L 287,283 L 286,283 L 285,283 L 284,283 L 283,283 L 282,283 L 281,283 L 280,283 L 279,283 L 278,283 L 277,284 L 276,284 L 275,284 L 274,284 L 273,284 L 272,285 L 271,285 L 270,286 L 269,286 L 268,287 L 267,287 L 266,287 L 265,288 L 264,288 L 263,289 L 262,289 L 261,290 L 260,290 L 259,290 L 258,290 L 257,290 L 256,290 L 255,290 L 254,290 L 253,291 L 252,292 L 251,293 L 250,294 L 249,295 L 248,295 L 247,295 L 246,295 L 245,295 L 244,295 L 243,295 L 242,295 L 241,295 L 240,296 L 239,296 L 238,296 L 237,296 L 236,297 L 235,297 L 234,297 L 233,297 L 232,297 L 231,297 L 230,298 L 229,298 L 228,298 L 227,298 L 226,298 L 225,299 L 224,299 L 223,300 L 222,301 L 221,301 L 220,302 L 219,303 L 218,303 L 217,304 L 216,304 L 215,304 L 214,304 L 213,303 L 212,302 L 211,301 L 210,300 L 209,299 L 208,299 L 207,299 L 206,299 L 205,299 L 204,299 L 203,299 L 202,299 L 201,299 L 200,299 L 199,299 L 198,299 L 197,300 L 196,300 L 195,300 L 194,300 L 193,300 L 192,301 L 191,301 L 190,301 L 189,301 L 188,301 L 187,302 L 186,302 L 185,302 L 184,303 L 183,303 L 182,303 L 181,303 L 180,303 L 179,304 L 178,304 L 177,304 L 176,304 L 175,304 L 174,305 L 173,305 L 172,305 L 171,305 L 170,305 L 169,306 L 168,306 L 167,306 L 166,306 L 165,306 L 164,307 L 163,307 L 162,307 L 161,307 L 160,307 L 159,308 L 158,308 L 157,308 L 156,308 L 155,308 L 154,309 L 153,309" />
    <path id="segment_527" d="M 7,280 L 8,280" />
    <path id="segment_528" d="M 391,287 L 392,287" />
    <path id="segment_529" d="M 36,288 L 37,288" />
    <path id="segment_530" d="M 372,288 L 371,289" />
    <path id="segment_531" d="M 373,288 L 374,288 L 375,288 L 376,288 L 377,288 L 378,288 L 379,289 L 380,289 L 381,289 L 382,289 L 383,288 L 384,288 L 385,288 L 386,288" />
    <path id="segment_532" d="M 387,288 L 386,289 L 385,290 L 384,290 L 383,291 L 382,292 L 381,293 L 380,293 L 379,294 L 378,295 L 377,296 L 376,296 L 375,297 L 374,297 L 373,297 L 372,297" />
    <path id="segment_533" d="M 369,290 L 368,291" />
    <path id="segment_534" d="M 370,290 L 371,290" />
    <path id="segment_535" d="M 353,292 L 352,293" />
    <path id="segment_536" d="M 354,292 L 355,292 L 356,292 L 357,292 L 358,292 L 359,292 L 360,292 L 361,292 L 362,292 L 363,292 L 364,292 L 365,292 L 366,292 L 367,292" />
    <path id="segment_537" d="M 351,293 L 350,294 L 349,294 L 348,294 L 347,294 L 346,295 L 345,295 L 344,296 L 343,296 L 342,296 L 341,296 L 340,296 L 339,296 L 338,296 L 337,296 L 336,296 L 335,296 L 334,296 L 333,296 L 332,296 L 331,296 L 330,296 L 329,296 L 328,296 L 327,297 L 326,297 L 325,298 L 324,298 L 323,298 L 322,299 L 321,299 L 320,300 L 319,300 L 318,300 L 317,300 L 316,300 L 315,300 L 314,300 L 313,300 L 312,300 L 311,300 L 310,300 L 309,300 L 308,301 L 307,301 L 306,302 L 305,303 L 304,304 L 303,304 L 302,305 L 301,305 L 300,305 L 299,304 L 298,303 L 297,302 L 296,301 L 295,300 L 294,299 L 293,298 L 292,297 L 291,296 L 290,296 L 289,296 L 288,296 L 287,296" />
    <path id="segment_538" d="M 218,294 L 219,294" />
    <path id="segment_539" d="M 283,297 L 284,297" />
    <path id="segment_540" d="M 287,297 L 286,298 L 286,299 L 285,300 L 285,301 L 285,302 L 284,303 L 284,304 L 283,305 L 283,306 L 283,307 L 282,308 L 282,309 L 282,310 L 281,311 L 281,312 L 280,313 L 280,314 L 280,315 L 279,316 L 279,317 L 278,318" />
    <path id="segment_541" d="M 279,298 L 280,298" />
    <path id="segment_542" d="M 372,298 L 372,299 L 371,300 L 371,301 L 371,302 L 371,303 L 371,304 L 371,305 L 370,306 L 370,307 L 370,308 L 370,309 L 370,310 L 370,311 L 369,312 L 369,313 L 369,314 L 369,315 L 369,316 L 369,317 L 368,318 L 368,319 L 368,320 L 367,321" />
    <path id="segment_543" d="M 174,300 L 175,300" />
    <path id="segment_544" d="M 252,304 L 253,304 L 254,304 L 255,304 L 256,305 L 257,305 L 258,305 L 259,305 L 260,305 L 261,305 L 262,305 L 263,305 L 264,305 L 265,305 L 266,305 L 267,305 L 268,305 L 269,305 L 270,305 L 271,306 L 271,307 L 272,308 L 272,309 L 273,310 L 274,311 L 274,312 L 275,313 L 275,314 L 276,315 L 277,316 L 277,317" />
    <path id="segment_545" d="M 124,307 L 125,307" />
    <path id="segment_546" d="M 121,308 L 122,308" />
    <path id="segment_547" d="M 150,309 L 149,310" />
    <path id="segment_548" d="M 151,309 L 150,310" />
    <path id="segment_549" d="M 152,309 L 151,310" />
    <path id="segment_550" d="M 307,309 L 306,310" />
    <path id="segment_551" d="M 308,309 L 309,309" />
    <path id="segment_552" d="M 145,310 L 144,311" />
    <path id="segment_553" d="M 146,310 L 147,310 L 148,310" />
    <path id="segment_554" d="M 152,310 L 153,310 L 154,310 L 155,310 L 156,310 L 157,310 L 158,310 L 159,310 L 160,310 L 161,310 L 162,310 L 163,311 L 164,312 L 165,313 L 166,314 L 167,314 L 168,314 L 169,314 L 170,314 L 171,314 L 172,314 L 173,314 L 174,314 L 175,314 L 176,313 L 177,313 L 178,313 L 179,313 L 180,313 L 181,314 L 182,314 L 183,314 L 184,315 L 185,315 L 186,315 L 187,316 L 188,316 L 189,316 L 190,316 L 191,316 L 192,316 L 193,317 L 194,317 L 195,317" />
    <path id="segment_555" d="M 305,310 L 304,311 L 303,311 L 302,311 L 301,312 L 300,312 L 299,313 L 298,313 L 297,314 L 296,314 L 295,314 L 294,315 L 293,315 L 292,316 L 291,316 L 290,316 L 289,316 L 288,316 L 287,317 L 286,317 L 285,317 L 284,317" />
    <path id="segment_556" d="M 140,311 L 139,312" />
    <path id="segment_557" d="M 141,311 L 140,312" />
    <path id="segment_558" d="M 142,311 L 143,311" />
    <path id="segment_559" d="M 135,312 L 134,313" />
    <path id="segment_560" d="M 136,312 L 137,312 L 138,312" />
    <path id="segment_561" d="M 132,313 L 133,313" />
    <path id="segment_562" d="M 66,317 L 65,318" />
    <path id="segment_563" d="M 67,317 L 68,317 L 69,317 L 70,317 L 71,317 L 72,317 L 73,317 L 74,317 L 75,317 L 76,317 L 77,317 L 78,317 L 79,317 L 80,317 L 81,318 L 82,318 L 83,319 L 84,319 L 85,319 L 86,319 L 87,320 L 88,320 L 89,321 L 90,321 L 91,321 L 92,322 L 93,323 L 94,324 L 95,325 L 96,326 L 97,327 L 98,328 L 99,329 L 100,330 L 101,331 L 102,332 L 103,333 L 104,334 L 105,335 L 106,336 L 107,337 L 108,338 L 109,339 L 110,340 L 111,341 L 112,342 L 113,343 L 114,343 L 115,344 L 116,345 L 117,346 L 118,347 L 119,348 L 118,349" />
    <path id="segment_564" d="M 377,317 L 376,318" />
    <path id="segment_565" d="M 378,317 L 379,317 L 380,317 L 381,317 L 382,317 L 383,317 L 384,317 L 385,317 L 386,317 L 387,317 L 388,317 L 389,317 L 390,317 L 391,317" />
    <path id="segment_566" d="M 392,317 L 391,318 L 390,319 L 389,320 L 388,321 L 387,322 L 386,323 L 385,324 L 384,325 L 383,326 L 382,326 L 381,327 L 380,328 L 379,329 L 378,330 L 377,331 L 376,332 L 375,333" />
    <path id="segment_567" d="M 63,318 L 62,319" />
    <path id="segment_568" d="M 64,318 L 65,318" />
    <path id="segment_569" d="M 195,318 L 194,319" />
    <path id="segment_570" d="M 196,318 L 197,319 L 198,319 L 199,320 L 200,320 L 201,321 L 202,321 L 203,321 L 204,321 L 205,322 L 206,322 L 207,323 L 208,324 L 209,324 L 210,325 L 211,325 L 212,325 L 213,326 L 214,326 L 215,326 L 216,326 L 217,326 L 218,326 L 219,326 L 220,326 L 221,326 L 222,326 L 223,326 L 224,326 L 225,326 L 226,326 L 227,326 L 228,326 L 229,325 L 230,325 L 231,325 L 232,325 L 233,324 L 234,324 L 235,324 L 236,324 L 237,324 L 238,324 L 239,324 L 240,324 L 241,324 L 242,324 L 243,324 L 244,324 L 245,324 L 246,324 L 247,323 L 248,323 L 249,323 L 250,323 L 251,323 L 252,323 L 253,323 L 254,323 L 255,322 L 256,322 L 257,322 L 258,322 L 259,322 L 260,322 L 261,322 L 262,321 L 263,321 L 264,321 L 265,321 L 266,321 L 267,321 L 268,321 L 269,321 L 270,321 L 271,320 L 272,320 L 273,320 L 274,320 L 275,320 L 276,320 L 277,320 L 278,319" />
    <path id="segment_571" d="M 280,318 L 279,319" />
    <path id="segment_572" d="M 281,318 L 282,318 L 283,318 L 284,318" />
    <path id="segment_573" d="M 375,318 L 374,319 L 373,319 L 372,319 L 371,320 L 370,320 L 369,321 L 368,321" />
    <path id="segment_574" d="M 59,319 L 58,320" />
    <path id="segment_575" d="M 60,319 L 61,319" />
    <path id="segment_576" d="M 126,319 L 127,319" />
    <path id="segment_577" d="M 56,320 L 55,321" />
    <path id="segment_578" d="M 57,320 L 58,320" />
    <path id="segment_579" d="M 194,320 L 193,321 L 192,322 L 192,323 L 191,324 L 190,325 L 190,326 L 189,327 L 189,328 L 188,329 L 187,330 L 187,331 L 186,332 L 185,333 L 185,334 L 184,335 L 183,335 L 182,335 L 181,335 L 180,336 L 179,336 L 178,336 L 177,336 L 176,337 L 175,337 L 174,337 L 173,337 L 172,337 L 171,337 L 170,338 L 169,338 L 168,338 L 167,338 L 166,338 L 165,338 L 164,338 L 163,338 L 162,338 L 161,338 L 160,338 L 159,338 L 158,338 L 157,338 L 156,338 L 155,338 L 154,337 L 153,337 L 152,337 L 151,337 L 150,337 L 149,337 L 148,338 L 147,338 L 146,339 L 145,339 L 144,340 L 143,340 L 142,341 L 141,341 L 140,342 L 139,342 L 138,342 L 137,343 L 136,343 L 135,344 L 134,344 L 133,345 L 132,345 L 131,346 L 130,346 L 129,347 L 128,347 L 127,347 L 126,347 L 125,348 L 124,348 L 123,348 L 122,348 L 121,348 L 120,348" />
    <path id="segment_580" d="M 278,320 L 279,320" />
    <path id="segment_581" d="M 18,321 L 17,322" />
    <path id="segment_582" d="M 19,321 L 20,321 L 21,321 L 22,321 L 23,321 L 24,322 L 25,323 L 26,324 L 27,325 L 28,326 L 29,327 L 30,328 L 31,328 L 32,328 L 33,328 L 34,327 L 35,327 L 36,326 L 37,326 L 38,325 L 39,325 L 40,324 L 41,324 L 42,323 L 43,323 L 44,322 L 45,322 L 46,322 L 47,322 L 48,322 L 49,322 L 50,322 L 51,322 L 52,322 L 53,321 L 54,321" />
    <path id="segment_583" d="M 152,321 L 153,321" />
    <path id="segment_584" d="M 12,322 L 11,323" />
    <path id="segment_585" d="M 13,322 L 14,322 L 15,322 L 16,322" />
    <path id="segment_586" d="M 365,322 L 364,323" />
    <path id="segment_587" d="M 366,322 L 367,322" />
    <path id="segment_588" d="M 8,323 L 9,323 L 10,323" />
    <path id="segment_589" d="M 355,323 L 354,324" />
    <path id="segment_590" d="M 356,323 L 357,323 L 358,323 L 359,323 L 360,323 L 361,323 L 362,323 L 363,323" />
    <path id="segment_591" d="M 351,324 L 350,325" />
    <path id="segment_592" d="M 352,324 L 353,324" />
    <path id="segment_593" d="M 348,325 L 347,326" />
    <path id="segment_594" d="M 349,325 L 350,325" />
    <path id="segment_595" d="M 342,326 L 341,327" />
    <path id="segment_596" d="M 343,326 L 344,326 L 345,326 L 346,326" />
    <path id="segment_597" d="M 323,327 L 322,328" />
    <path id="segment_598" d="M 324,327 L 325,327 L 326,327 L 327,327 L 328,327 L 329,327 L 330,327 L 331,327 L 332,327 L 333,327 L 334,327 L 335,327 L 336,327 L 337,327 L 338,327 L 339,327 L 340,327" />
    <path id="segment_599" d="M 320,328 L 319,329" />
    <path id="segment_600" d="M 321,328 L 322,329 L 321,330" />
    <path id="segment_601" d="M 318,329 L 317,330 L 316,330 L 315,331 L 314,331 L 313,331 L 312,332 L 311,332 L 310,333 L 309,333 L 308,333 L 307,333 L 306,333 L 305,334 L 304,334 L 303,334 L 302,334 L 301,334 L 300,334 L 299,334 L 298,335 L 297,335 L 296,335 L 295,335 L 294,335 L 293,335 L 292,336 L 291,336 L 290,336 L 289,336 L 288,336 L 287,337 L 286,337 L 285,337 L 284,337 L 283,337 L 282,337 L 281,337 L 280,337 L 279,337 L 278,337 L 277,337 L 276,337 L 275,337 L 274,337 L 273,337 L 272,338 L 271,338 L 270,338 L 269,338 L 268,338 L 267,339 L 266,339 L 265,339 L 264,339 L 263,339 L 262,339 L 261,340 L 260,340 L 259,340 L 258,340 L 257,341 L 256,341 L 255,341 L 254,341 L 253,341 L 252,341 L 251,341 L 250,341 L 249,341 L 248,341 L 247,341 L 246,341 L 245,341 L 244,341 L 243,341 L 242,341 L 241,341 L 240,341 L 239,341 L 238,341 L 237,341 L 236,341 L 235,341 L 234,342 L 233,342 L 232,342 L 231,342 L 230,342 L 229,342 L 228,342 L 227,342 L 226,342 L 225,343 L 224,343 L 223,343 L 222,343 L 221,344 L 220,344 L 219,344 L 218,344 L 217,345 L 216,345 L 215,345 L 214,346 L 213,346 L 212,346 L 211,347 L 210,347 L 209,347 L 208,347 L 207,348 L 206,348 L 205,348 L 204,348 L 203,348 L 202,349 L 201,349 L 200,349 L 199,350 L 198,350 L 197,350 L 196,351 L 195,351 L 194,351 L 193,351 L 192,351 L 191,351 L 190,351 L 189,351 L 188,352 L 187,352" />
    <path id="segment_602" d="M 323,329 L 323,330 L 324,331 L 324,332 L 325,333 L 326,334 L 326,335 L 327,336 L 327,337 L 328,338 L 329,338 L 330,338 L 331,338 L 332,338 L 333,338 L 334,338 L 335,338 L 336,338 L 337,338 L 338,338 L 339,338 L 340,338 L 341,338 L 342,338 L 343,338 L 344,338 L 345,338 L 346,338 L 347,338 L 348,338 L 349,338 L 350,338 L 351,338 L 352,337 L 353,337 L 354,337 L 355,337 L 356,337 L 357,337 L 358,337 L 359,336 L 360,336 L 361,336 L 362,335 L 363,335 L 364,334 L 365,334 L 366,334 L 367,334 L 368,334 L 369,334 L 370,334 L 371,334 L 372,334 L 373,334 L 374,334" />
    <path id="segment_603" d="M 321,331 L 321,332 L 321,333 L 320,334 L 320,335 L 320,336 L 320,337 L 319,338 L 319,339 L 319,340 L 318,341 L 318,342 L 318,343 L 318,344 L 317,345 L 317,346 L 317,347 L 316,348 L 316,349 L 316,350 L 316,351 L 315,352 L 315,353 L 315,354 L 315,355 L 314,356 L 313,357" />
    <path id="segment_604" d="M 377,333 L 377,334 L 377,335 L 377,336 L 377,337 L 377,338 L 377,339 L 377,340 L 377,341 L 377,342 L 377,343 L 377,344 L 377,345 L 377,346 L 377,347 L 377,348 L 377,349 L 377,350 L 377,351 L 377,352 L 377,353 L 377,354 L 377,355 L 377,356 L 376,357" />
    <path id="segment_605" d="M 380,334 L 381,334" />
    <path id="segment_606" d="M 103,344 L 104,344 L 105,344 L 106,345 L 107,345 L 108,345 L 109,346 L 110,346 L 111,346 L 112,347 L 113,347 L 114,348 L 115,348 L 116,348" />
    <path id="segment_607" d="M 116,349 L 115,350" />
    <path id="segment_608" d="M 117,349 L 118,349" />
    <path id="segment_609" d="M 119,349 L 120,349 L 121,350 L 122,351 L 123,352 L 124,353 L 125,354 L 126,355 L 127,356 L 128,357 L 129,358 L 130,359 L 131,360 L 132,361 L 133,362 L 134,363 L 135,364 L 136,365 L 135,366" />
    <path id="segment_610" d="M 295,349 L 294,350" />
    <path id="segment_611" d="M 296,349 L 297,349 L 298,349 L 299,349 L 300,349 L 301,349 L 302,350 L 303,351 L 304,352 L 305,353 L 306,354 L 307,355 L 308,356 L 309,357 L 310,357 L 311,357 L 312,357" />
    <path id="segment_612" d="M 109,350 L 108,351" />
    <path id="segment_613" d="M 110,350 L 111,350 L 112,350 L 113,350 L 114,350" />
    <path id="segment_614" d="M 291,350 L 290,351" />
    <path id="segment_615" d="M 292,350 L 293,350" />
    <path id="segment_616" d="M 85,351 L 86,351" />
    <path id="segment_617" d="M 105,351 L 104,352" />
    <path id="segment_618" d="M 106,351 L 107,351" />
    <path id="segment_619" d="M 287,351 L 286,352" />
    <path id="segment_620" d="M 288,351 L 289,351" />
    <path id="segment_621" d="M 103,352 L 102,353 L 101,353 L 100,354 L 99,354 L 98,355 L 97,355 L 96,355 L 95,355 L 94,355 L 93,355 L 92,355 L 91,355 L 90,355 L 89,355 L 88,355 L 87,354 L 86,354 L 85,354 L 84,354 L 83,354 L 82,354 L 81,354 L 80,354 L 79,354 L 78,354 L 77,354 L 76,354 L 75,354 L 74,354 L 73,354 L 72,354 L 71,354 L 70,354 L 69,354 L 68,354 L 67,354 L 66,354 L 65,354 L 64,354 L 63,355 L 62,355 L 61,355 L 60,355 L 59,355 L 58,355 L 57,355 L 56,355 L 55,355 L 54,355 L 53,355 L 52,356 L 51,356 L 50,356 L 49,356 L 48,356 L 47,356 L 46,356 L 45,356 L 44,356 L 43,356 L 42,356 L 41,356 L 40,356 L 39,356 L 38,356 L 37,356 L 36,356 L 35,356 L 34,356 L 33,356 L 32,356 L 31,355 L 30,355 L 29,355 L 28,355 L 27,355 L 26,356 L 25,356 L 24,356 L 23,357 L 22,357 L 21,357 L 20,358 L 19,358 L 18,358 L 17,359 L 16,359 L 15,359 L 14,359 L 13,359 L 12,359 L 11,359 L 10,359 L 9,360 L 8,360 L 7,360 L 6,360" />
    <path id="segment_622" d="M 186,352 L 187,353 L 188,353 L 189,354 L 190,355 L 191,356 L 192,356 L 193,357 L 194,358 L 195,358 L 196,359 L 197,360 L 198,361 L 199,361 L 200,362 L 201,362 L 202,362 L 203,362 L 204,362 L 205,362 L 206,362 L 207,361 L 208,361 L 209,361 L 210,361 L 211,360 L 212,360 L 213,360 L 214,360 L 215,360 L 216,360 L 217,359 L 218,359 L 219,359 L 220,359 L 221,359 L 222,359 L 223,359 L 224,360 L 225,360 L 226,360 L 227,360 L 228,361 L 229,361 L 230,361 L 231,362 L 232,362 L 233,362 L 234,362 L 235,362 L 236,363 L 237,363 L 238,363 L 239,363 L 240,363 L 241,363 L 242,363 L 243,363 L 244,363 L 245,364 L 246,364 L 247,364 L 248,364 L 249,365 L 250,365 L 251,365 L 252,366 L 253,366 L 254,366 L 255,367 L 256,367 L 257,367 L 258,367 L 259,367 L 260,367 L 261,367 L 262,367 L 263,367 L 264,366 L 265,365 L 266,365 L 267,364" />
    <path id="segment_623" d="M 282,352 L 281,353" />
    <path id="segment_624" d="M 283,352 L 284,352 L 285,352" />
    <path id="segment_625" d="M 387,352 L 388,352" />
    <path id="segment_626" d="M 268,353 L 269,353" />
    <path id="segment_627" d="M 279,354 L 278,355" />
    <path id="segment_628" d="M 280,354 L 281,354" />
    <path id="segment_629" d="M 275,355 L 276,355" />
    <path id="segment_630" d="M 157,356 L 158,356" />
    <path id="segment_631" d="M 277,356 L 276,357 L 275,358 L 274,358 L 273,359 L 272,360 L 271,361 L 270,361 L 269,362 L 268,363" />
    <path id="segment_632" d="M 154,357 L 155,357" />
    <path id="segment_633" d="M 160,357 L 161,357" />
    <path id="segment_634" d="M 314,357 L 315,357" />
    <path id="segment_635" d="M 373,357 L 374,357 L 375,357" />
    <path id="segment_636" d="M 377,357 L 378,357" />
    <path id="segment_637" d="M 151,358 L 152,358" />
    <path id="segment_638" d="M 171,361 L 172,361" />
    <path id="segment_639" d="M 167,362 L 168,362" />
    <path id="segment_640" d="M 134,366 L 133,367 L 132,367 L 131,367 L 130,367 L 129,367 L 128,367 L 127,368 L 126,368 L 125,368 L 124,368 L 123,368 L 122,368 L 121,368 L 120,369 L 119,369 L 118,369 L 117,369 L 116,369 L 115,369 L 114,369 L 113,369 L 112,369 L 111,369 L 110,369 L 109,369 L 108,369 L 107,369 L 106,369 L 105,369 L 104,369 L 103,369 L 102,369 L 101,369 L 100,369 L 99,369 L 98,369 L 97,369 L 96,369 L 95,369 L 94,369 L 93,369 L 92,369 L 91,369 L 90,369 L 89,369 L 88,369 L 87,369 L 86,369 L 85,369 L 84,369 L 83,369 L 82,369 L 81,369 L 80,369 L 79,369 L 78,370 L 77,370 L 76,371 L 75,371 L 74,371 L 73,372 L 72,373 L 71,373 L 70,374 L 69,375 L 68,376 L 67,377 L 66,378 L 65,378 L 64,379 L 63,380 L 62,380 L 61,380 L 60,380 L 59,380 L 58,380 L 57,380 L 56,381 L 55,381 L 54,382 L 53,382 L 52,383 L 51,383 L 50,383 L 49,383" />
    <path id="segment_641" d="M 136,366 L 137,366 L 138,366" />
    <path id="segment_642" d="M 139,366 L 138,367 L 137,368 L 136,369 L 135,370 L 134,371 L 133,372 L 132,373 L 132,374 L 131,375 L 130,376 L 129,377 L 128,378 L 127,379 L 126,380 L 125,380 L 124,380 L 123,380 L 122,381 L 121,381 L 120,382 L 119,382 L 118,383 L 117,383 L 116,384 L 115,384 L 114,384 L 113,384 L 112,384 L 111,384 L 110,384 L 109,384 L 108,384 L 107,383 L 106,383 L 105,383 L 104,383 L 103,383 L 102,382 L 101,382 L 100,382 L 99,382 L 98,382 L 97,382 L 96,382 L 95,382 L 94,383 L 93,383 L 92,383 L 91,383 L 90,384 L 89,384 L 88,384 L 87,384 L 86,385 L 85,385 L 84,385 L 83,385 L 82,385 L 81,386 L 80,386 L 79,386 L 78,386 L 77,387 L 76,387 L 75,387 L 74,387 L 73,388 L 72,388 L 71,388 L 70,388 L 69,388 L 68,389 L 67,389 L 66,389 L 65,389 L 64,390 L 63,390 L 62,390 L 61,390 L 60,391 L 59,391 L 58,391 L 57,391 L 56,390 L 55,389 L 54,389 L 53,388 L 52,387 L 51,386 L 50,385 L 49,384 L 48,383" />
    <path id="segment_643" d="M 267,366 L 268,366" />
    <path id="segment_644" d="M 358,367 L 359,367" />
    <path id="segment_645" d="M 19,372 L 18,373" />
    <path id="segment_646" d="M 20,372 L 21,372 L 22,372 L 23,372 L 24,372 L 25,372 L 26,373 L 27,373 L 28,373 L 29,373 L 30,373 L 31,373 L 32,373 L 33,373 L 34,373 L 35,373 L 36,374 L 37,375 L 38,375 L 39,376 L 40,377 L 41,378 L 42,379 L 43,380 L 44,380 L 45,381 L 46,382 L 45,383" />
    <path id="segment_647" d="M 16,373 L 15,374" />
    <path id="segment_648" d="M 17,373 L 16,374" />
    <path id="segment_649" d="M 13,374 L 12,375" />
    <path id="segment_650" d="M 14,374 L 15,374" />
    <path id="segment_651" d="M 10,375 L 9,376" />
    <path id="segment_652" d="M 11,375 L 10,376" />
    <path id="segment_653" d="M 8,376 L 9,376" />
    <path id="segment_654" d="M 11,376 L 12,377 L 13,378 L 14,379 L 15,380 L 16,381 L 16,382 L 17,383 L 18,384 L 19,385 L 20,386 L 21,386 L 22,386 L 23,386 L 24,386 L 25,386 L 26,386 L 27,386 L 28,386 L 29,386 L 30,386 L 31,386 L 32,386 L 33,386 L 34,386 L 35,385 L 36,385 L 37,384 L 38,384 L 39,383 L 40,383 L 41,383 L 42,383 L 43,383 L 44,383" />
    <path id="segment_655" d="M 341,376 L 340,377" />
    <path id="segment_656" d="M 342,376 L 343,376" />
    <path id="segment_657" d="M 337,377 L 338,377 L 339,377" />
    <path id="segment_658" d="M 334,378 L 335,378" />
    <path id="segment_659" d="M 387,380 L 388,380" />
    <path id="segment_660" d="M 46,383 L 47,383 L 48,384" />
    <path id="segment_661" d="M 328,384 L 329,384" />
    <path id="segment_662" d="M 92,395 L 93,395" />
  </g>
  <g id="endpoints" fill="blue">
    <circle cx="4" cy="1" r="3" id="endpoint_0" />
    <circle cx="390" cy="2" r="3" id="endpoint_1" />
    <circle cx="298" cy="5" r="3" id="endpoint_2" />
    <circle cx="4" cy="12" r="3" id="endpoint_3" />
    <circle cx="388" cy="13" r="3" id="endpoint_4" />
    <circle cx="218" cy="28" r="3" id="endpoint_5" />
    <circle cx="389" cy="29" r="3" id="endpoint_6" />
    <circle cx="5" cy="31" r="3" id="endpoint_7" />
    <circle cx="327" cy="34" r="3" id="endpoint_8" />
    <circle cx="287" cy="45" r="3" id="endpoint_9" />
    <circle cx="383" cy="54" r="3" id="endpoint_10" />
    <circle cx="169" cy="59" r="3" id="endpoint_11" />
    <circle cx="376" cy="67" r="3" id="endpoint_12" />
    <circle cx="8" cy="75" r="3" id="endpoint_13" />
    <circle cx="239" cy="78" r="3" id="endpoint_14" />
    <circle cx="376" cy="79" r="3" id="endpoint_15" />
    <circle cx="380" cy="79" r="3" id="endpoint_16" />
    <circle cx="34" cy="89" r="3" id="endpoint_17" />
    <circle cx="383" cy="90" r="3" id="endpoint_18" />
    <circle cx="92" cy="97" r="3" id="endpoint_19" />
    <circle cx="125" cy="106" r="3" id="endpoint_20" />
    <circle cx="9" cy="130" r="3" id="endpoint_21" />
    <circle cx="383" cy="141" r="3" id="endpoint_22" />
    <circle cx="387" cy="162" r="3" id="endpoint_23" />
    <circle cx="5" cy="181" r="3" id="endpoint_24" />
    <circle cx="385" cy="188" r="3" id="endpoint_25" />
    <circle cx="239" cy="190" r="3" id="endpoint_26" />
    <circle cx="224" cy="205" r="3" id="endpoint_27" />
    <circle cx="394" cy="209" r="3" id="endpoint_28" />
    <circle cx="8" cy="210" r="3" id="endpoint_29" />
    <circle cx="199" cy="215" r="3" id="endpoint_30" />
    <circle cx="8" cy="222" r="3" id="endpoint_31" />
    <circle cx="392" cy="231" r="3" id="endpoint_32" />
    <circle cx="384" cy="232" r="3" id="endpoint_33" />
    <circle cx="7" cy="235" r="3" id="endpoint_34" />
    <circle cx="388" cy="244" r="3" id="endpoint_35" />
    <circle cx="59" cy="252" r="3" id="endpoint_36" />
    <circle cx="10" cy="257" r="3" id="endpoint_37" />
    <circle cx="383" cy="267" r="3" id="endpoint_38" />
    <circle cx="13" cy="282" r="3" id="endpoint_39" />
    <circle cx="252" cy="304" r="3" id="endpoint_40" />
    <circle cx="309" cy="309" r="3" id="endpoint_41" />
    <circle cx="132" cy="313" r="3" id="endpoint_42" />
    <circle cx="8" cy="323" r="3" id="endpoint_43" />
    <circle cx="103" cy="344" r="3" id="endpoint_44" />
    <circle cx="373" cy="357" r="3" id="endpoint_45" />
    <circle cx="6" cy="360" r="3" id="endpoint_46" />
    <circle cx="267" cy="366" r="3" id="endpoint_47" />
    <circle cx="8" cy="376" r="3" id="endpoint_48" />
    <circle cx="343" cy="376" r="3" id="endpoint_49" />
    <circle cx="337" cy="377" r="3" id="endpoint_50" />
  </g>
</svg>