<?xml version='1.0' encoding='utf-8'?>
<svg width="400" height="400" viewBox="0 0 400 400" xmlns="http://www.w3.org/2000/svg">
  <metadata>Cell tracing skeleton generated by CellTracing plugin</metadata>
  <g id="skeleton" stroke="red" stroke-width="2" fill="none">
    <path id="segment_0" d="M 349,30 L 350,30 L 351,30 L 352,30 L 353,31 L 354,31 L 355,32 L 356,33 L 357,33 L 358,34 L 359,34 L 360,35 L 361,36 L 362,36 L 363,37 L 364,38 L 365,38 L 366,39 L 367,39 L 368,40 L 369,40 L 370,40 L 371,41 L 372,41 L 373,41 L 374,42 L 375,42 L 376,42" />
    <path id="segment_1" d="M 189,129 L 189,130 L 189,131 L 188,132 L 188,133 L 188,134 L 187,135 L 186,136" />
    <path id="segment_2" d="M 275,131 L 274,132" />
    <path id="segment_3" d="M 276,131 L 277,131 L 278,131 L 279,131 L 280,131 L 281,131 L 282,131 L 283,131 L 284,131 L 285,131 L 286,131 L 287,131 L 288,131 L 289,131 L 290,131 L 291,132 L 292,132 L 293,133 L 294,133 L 295,133 L 296,134 L 297,134 L 298,134 L 299,135 L 300,135 L 301,135 L 302,136 L 303,136 L 304,136 L 305,136 L 306,137 L 307,137 L 308,137" />
    <path id="segment_4" d="M 271,132 L 270,133" />
    <path id="segment_5" d="M 272,132 L 273,132" />
    <path id="segment_6" d="M 269,133 L 268,134 L 267,134 L 266,135 L 265,135 L 264,135 L 263,136 L 262,137 L 261,138 L 260,139 L 259,140 L 258,141 L 257,142 L 257,143 L 256,144 L 255,145 L 254,146 L 253,147 L 252,148 L 251,149 L 250,150 L 249,150 L 248,150 L 247,150 L 246,150 L 245,150 L 244,150 L 243,150 L 242,150 L 241,150 L 240,150 L 239,150 L 238,151 L 237,151 L 236,151 L 235,151 L 234,151 L 233,151 L 232,151 L 231,151 L 230,151 L 229,152 L 228,152 L 227,153 L 226,154 L 225,154 L 224,155 L 223,155 L 222,155 L 221,155 L 220,155 L 219,155 L 218,156 L 217,156 L 216,157 L 215,157 L 214,158 L 213,158 L 212,159 L 211,160 L 210,160 L 209,161 L 208,161 L 207,160" />
    <path id="segment_7" d="M 345,135 L 345,136" />
    <path id="segment_8" d="M 346,135 L 347,135 L 348,135 L 349,135" />
    <path id="segment_9" d="M 187,136 L 188,136 L 189,136 L 190,136 L 191,136 L 192,136 L 193,137 L 194,138 L 195,139 L 196,140 L 197,141 L 198,142 L 199,143 L 200,144 L 200,145 L 201,146 L 202,147 L 203,148 L 204,149 L 205,150 L 206,151 L 207,152 L 207,153 L 207,154 L 208,155 L 208,156 L 208,157 L 208,158 L 207,159" />
    <path id="segment_10" d="M 394,136 L 393,137" />
    <path id="segment_11" d="M 395,136 L 396,136 L 397,136 L 398,137 L 398,138 L 398,139 L 398,140 L 398,141 L 398,142 L 398,143 L 398,144 L 398,145 L 398,146 L 398,147 L 397,148 L 396,149" />
    <path id="segment_12" d="M 185,137 L 185,138 L 184,139 L 184,140 L 184,141 L 184,142 L 185,143 L 185,144 L 186,145 L 186,146 L 186,147 L 187,148 L 187,149 L 188,150 L 188,151 L 188,152 L 189,153 L 189,154 L 190,155 L 190,156 L 190,157 L 191,158 L 191,159 L 192,160 L 192,161 L 192,162 L 192,163 L 191,164" />
    <path id="segment_13" d="M 344,137 L 344,138 L 343,139 L 343,140 L 342,141 L 342,142 L 342,143 L 342,144 L 342,145 L 342,146 L 343,147 L 344,148 L 345,149 L 346,150 L 347,151 L 348,151 L 349,152 L 350,153 L 351,154 L 352,155 L 353,155 L 354,155 L 355,155 L 356,155 L 357,155 L 358,154 L 359,154 L 360,153 L 361,152 L 362,152 L 363,151 L 364,151 L 365,150 L 366,150 L 367,150 L 368,150 L 369,150 L 370,150 L 371,150 L 372,150 L 373,150 L 374,150 L 375,149 L 376,149 L 377,149 L 378,149 L 379,149 L 380,149 L 381,149 L 382,149" />
    <path id="segment_14" d="M 389,137 L 388,138" />
    <path id="segment_15" d="M 390,137 L 391,137 L 392,137" />
    <path id="segment_16" d="M 308,138 L 308,139 L 308,140 L 308,141 L 308,142" />
    <path id="segment_17" d="M 386,138 L 385,139" />
    <path id="segment_18" d="M 387,138 L 388,138" />
    <path id="segment_19" d="M 384,140 L 384,141 L 384,142 L 384,143 L 384,144 L 384,145 L 384,146 L 384,147 L 384,148 L 383,149" />
    <path id="segment_20" d="M 309,142 L 310,142 L 311,142 L 312,142 L 313,143 L 314,143 L 315,143 L 316,144 L 317,144" />
    <path id="segment_21" d="M 307,143 L 307,144 L 307,145 L 307,146 L 306,147 L 306,148 L 306,149 L 306,150 L 306,151 L 306,152 L 306,153 L 306,154" />
    <path id="segment_22" d="M 317,145 L 317,146 L 317,147 L 316,148 L 316,149 L 316,150 L 316,151 L 316,152" />
    <path id="segment_23" d="M 384,149 L 385,149 L 386,149 L 387,149 L 388,149 L 389,149 L 390,149 L 391,149 L 392,149 L 393,149 L 394,149 L 395,149" />
    <path id="segment_24" d="M 397,149 L 398,150 L 398,151 L 398,152 L 398,153 L 398,154 L 398,155 L 398,156 L 398,157 L 397,158 L 397,159 L 397,160 L 397,161 L 397,162 L 397,163 L 397,164 L 397,165 L 396,166 L 396,167 L 396,168 L 396,169 L 396,170 L 396,171 L 396,172 L 396,173 L 395,174 L 395,175 L 395,176 L 394,177" />
    <path id="segment_25" d="M 382,150 L 382,151 L 381,152 L 381,153 L 380,154 L 380,155 L 379,156 L 379,157 L 378,158 L 378,159 L 377,160 L 377,161 L 376,162 L 376,163 L 375,164 L 375,165 L 374,166 L 374,167 L 374,168 L 373,169" />
    <path id="segment_26" d="M 317,152 L 318,152 L 319,152 L 320,153 L 321,154 L 321,155 L 322,156 L 322,157 L 322,158 L 322,159 L 322,160 L 322,161 L 322,162 L 322,163 L 322,164 L 321,165 L 320,165 L 319,166 L 318,166 L 317,167 L 316,168 L 315,168 L 314,169 L 313,170 L 312,170 L 311,171 L 310,171 L 309,172 L 308,172 L 307,172 L 306,172" />
    <path id="segment_27" d="M 309,153 L 308,154" />
    <path id="segment_28" d="M 310,153 L 311,153 L 312,153 L 313,153 L 314,153 L 315,153" />
    <path id="segment_29" d="M 307,154 L 306,155 L 305,155" />
    <path id="segment_30" d="M 305,156 L 304,157 L 303,158 L 302,159 L 302,160 L 301,161 L 300,161 L 299,161 L 298,162 L 297,163 L 297,164 L 297,165 L 297,166 L 296,167 L 296,168 L 296,169 L 296,170 L 297,171 L 298,172 L 299,173 L 300,174 L 301,174 L 302,175 L 303,176 L 304,177 L 305,178 L 306,177" />
    <path id="segment_31" d="M 158,158 L 158,159 L 158,160 L 158,161 L 158,162 L 158,163 L 159,164 L 160,165 L 160,166" />
    <path id="segment_32" d="M 207,161 L 207,162 L 206,163" />
    <path id="segment_33" d="M 204,163 L 203,164" />
    <path id="segment_34" d="M 205,163 L 206,163" />
    <path id="segment_35" d="M 207,163 L 207,164 L 207,165 L 208,166 L 208,167 L 209,168 L 210,168 L 211,168 L 212,168 L 213,168" />
    <path id="segment_36" d="M 170,164 L 170,165 L 169,166" />
    <path id="segment_37" d="M 192,164 L 193,164 L 194,165 L 195,165 L 196,165 L 197,165 L 198,165 L 199,164 L 200,164 L 201,164 L 202,164" />
    <path id="segment_38" d="M 187,165 L 186,166" />
    <path id="segment_39" d="M 188,165 L 189,165 L 190,165" />
    <path id="segment_40" d="M 161,166 L 160,167" />
    <path id="segment_41" d="M 162,166 L 163,166 L 164,166 L 165,166 L 166,166 L 167,166 L 168,166" />
    <path id="segment_42" d="M 170,166 L 171,166 L 172,166 L 173,166 L 174,166 L 175,166 L 176,166 L 177,166 L 178,166 L 179,166 L 180,166 L 181,166 L 182,166 L 183,166 L 184,166 L 185,166" />
    <path id="segment_43" d="M 160,168 L 161,169 L 161,170 L 161,171 L 161,172 L 162,173 L 162,174 L 162,175 L 162,176 L 162,177 L 163,178 L 163,179 L 163,180" />
    <path id="segment_44" d="M 213,169 L 213,170 L 212,171 L 212,172 L 212,173 L 212,174 L 211,175 L 211,176 L 211,177 L 211,178 L 211,179 L 210,180 L 210,181 L 210,182 L 210,183 L 210,184 L 210,185 L 209,186" />
    <path id="segment_45" d="M 374,169 L 373,170" />
    <path id="segment_46" d="M 375,169 L 376,169 L 377,169 L 378,169 L 379,169 L 380,170 L 381,171 L 382,172 L 383,173 L 384,174 L 385,175 L 385,176 L 385,177 L 386,178 L 387,179 L 387,180" />
    <path id="segment_47" d="M 372,170 L 371,171 L 370,171 L 369,171 L 368,172 L 367,173 L 366,174 L 365,175 L 364,176 L 363,177 L 362,178 L 361,179 L 361,180 L 361,181 L 360,182" />
    <path id="segment_48" d="M 306,173 L 306,174 L 306,175" />
    <path id="segment_49" d="M 307,175 L 306,176" />
    <path id="segment_50" d="M 307,176 L 307,177 L 306,178" />
    <path id="segment_51" d="M 345,177 L 345,178" />
    <path id="segment_52" d="M 346,177 L 347,178 L 348,178 L 349,178 L 350,179 L 351,179 L 352,179 L 353,180 L 354,180 L 355,180 L 356,180 L 357,181 L 358,181 L 359,181" />
    <path id="segment_53" d="M 393,177 L 392,178 L 391,178 L 390,179 L 389,179" />
    <path id="segment_54" d="M 395,177 L 396,177" />
    <path id="segment_55" d="M 307,178 L 306,179" />
    <path id="segment_56" d="M 308,179 L 308,180 L 308,181 L 308,182 L 309,183 L 309,184 L 309,185 L 309,186" />
    <path id="segment_57" d="M 345,179 L 344,180 L 344,181 L 344,182 L 343,183" />
    <path id="segment_58" d="M 164,180 L 165,180 L 166,180 L 167,180 L 168,180 L 169,180 L 170,180 L 171,181 L 171,182 L 171,183 L 172,184 L 172,185 L 172,186 L 172,187 L 172,188 L 172,189 L 172,190 L 172,191 L 172,192 L 172,193" />
    <path id="segment_59" d="M 388,180 L 388,181" />
    <path id="segment_60" d="M 389,180 L 390,180" />
    <path id="segment_61" d="M 361,182 L 362,182" />
    <path id="segment_62" d="M 387,182 L 386,183" />
    <path id="segment_63" d="M 388,182 L 389,182" />
    <path id="segment_64" d="M 200,183 L 199,184" />
    <path id="segment_65" d="M 201,183 L 202,183 L 203,183 L 204,184 L 205,184 L 206,185 L 207,185 L 208,185" />
    <path id="segment_66" d="M 344,183 L 345,184 L 346,184 L 347,184 L 348,185 L 349,185 L 350,185 L 351,185 L 352,185 L 353,185 L 354,184 L 355,184 L 356,184 L 357,184 L 358,184 L 359,184 L 360,184 L 361,184 L 362,184 L 363,184 L 364,184 L 365,184 L 366,184 L 367,184 L 368,184 L 369,184 L 370,184 L 371,184 L 372,184 L 373,184 L 374,184 L 375,184 L 376,184 L 377,184 L 378,184 L 379,184 L 380,184 L 381,184 L 382,184 L 383,184 L 384,184 L 385,183" />
    <path id="segment_67" d="M 329,184 L 328,185" />
    <path id="segment_68" d="M 330,184 L 331,184 L 332,184 L 333,184 L 334,184 L 335,184 L 336,185 L 337,185" />
    <path id="segment_69" d="M 338,184 L 339,184 L 340,184 L 341,184 L 342,184" />
    <path id="segment_70" d="M 199,185 L 198,186 L 197,187 L 196,188 L 196,189 L 195,190 L 194,191 L 194,192 L 193,193 L 192,194 L 191,195 L 191,196 L 190,197 L 190,198 L 190,199 L 189,200 L 188,201 L 187,202 L 186,203 L 185,203 L 184,203 L 183,204 L 182,204 L 181,204" />
    <path id="segment_71" d="M 325,185 L 324,186" />
    <path id="segment_72" d="M 326,185 L 327,185" />
    <path id="segment_73" d="M 210,186 L 210,187" />
    <path id="segment_74" d="M 310,186 L 311,187 L 312,187 L 313,187 L 314,187 L 315,187 L 316,187 L 317,187 L 318,187 L 319,187 L 320,186 L 321,186 L 322,186 L 323,186" />
    <path id="segment_75" d="M 337,186 L 337,187 L 337,188 L 337,189 L 337,190 L 337,191 L 337,192 L 336,193 L 336,194 L 336,195 L 335,196 L 335,197 L 335,198 L 335,199 L 336,200 L 336,201 L 337,202 L 337,203 L 337,204 L 337,205" />
    <path id="segment_76" d="M 211,187 L 210,188" />
    <path id="segment_77" d="M 306,187 L 305,188" />
    <path id="segment_78" d="M 307,187 L 308,187" />
    <path id="segment_79" d="M 393,187 L 393,188" />
    <path id="segment_80" d="M 394,187 L 395,187 L 396,187 L 397,187" />
    <path id="segment_81" d="M 212,188 L 213,188 L 214,189 L 215,189 L 216,190 L 215,191" />
    <path id="segment_82" d="M 265,188 L 264,189" />
    <path id="segment_83" d="M 266,188 L 267,188 L 268,188 L 269,188 L 270,188 L 271,188 L 272,188 L 273,189 L 274,189 L 275,190 L 276,191 L 277,191 L 278,192 L 279,192 L 280,192 L 281,192 L 282,192 L 283,193 L 284,193 L 285,193 L 286,194 L 287,194 L 288,195 L 289,195 L 290,195" />
    <path id="segment_84" d="M 304,188 L 303,189 L 302,189 L 301,189 L 300,190 L 299,190 L 298,190 L 297,191 L 296,191 L 295,192 L 294,192 L 293,193 L 292,194 L 291,194" />
    <path id="segment_85" d="M 210,189 L 210,190 L 210,191" />
    <path id="segment_86" d="M 261,189 L 261,190" />
    <path id="segment_87" d="M 262,189 L 263,189" />
    <path id="segment_88" d="M 394,189 L 394,190 L 394,191 L 394,192 L 394,193 L 395,194 L 395,195 L 395,196 L 395,197 L 396,198 L 396,199 L 396,200 L 396,201 L 397,202 L 397,203 L 397,204 L 397,205 L 398,206 L 398,207 L 398,208 L 398,209 L 397,210 L 396,210" />
    <path id="segment_89" d="M 40,190 L 40,191 L 40,192 L 39,193 L 39,194 L 39,195 L 39,196 L 39,197 L 39,198 L 39,199 L 39,200 L 39,201 L 39,202 L 39,203 L 39,204 L 40,205 L 40,206 L 41,207 L 42,208 L 43,209 L 43,210 L 44,211 L 44,212 L 44,213 L 45,214 L 46,215 L 46,216 L 47,217 L 48,218 L 49,219 L 49,220 L 50,221 L 51,222 L 51,223 L 51,224 L 51,225 L 51,226 L 51,227 L 51,228 L 51,229 L 51,230 L 50,231 L 50,232 L 49,233 L 48,234 L 48,235 L 47,236 L 46,237 L 45,238 L 45,239 L 44,240 L 43,241 L 43,242 L 42,243 L 42,244 L 42,245 L 42,246 L 42,247 L 42,248 L 42,249 L 42,250 L 42,251 L 42,252 L 42,253 L 42,254 L 41,255" />
    <path id="segment_90" d="M 144,190 L 143,191" />
    <path id="segment_91" d="M 145,190 L 146,190 L 147,190 L 148,190 L 149,190 L 150,190 L 151,190 L 152,190 L 153,190" />
    <path id="segment_92" d="M 124,191 L 123,192" />
    <path id="segment_93" d="M 125,191 L 126,191 L 127,191 L 128,191 L 129,191 L 130,191 L 131,191 L 132,191 L 133,191 L 134,191 L 135,191 L 136,191 L 137,191 L 138,191 L 139,191 L 140,191 L 141,191 L 142,191" />
    <path id="segment_94" d="M 153,191 L 153,192 L 153,193 L 153,194 L 153,195 L 153,196 L 152,197" />
    <path id="segment_95" d="M 211,191 L 210,192" />
    <path id="segment_96" d="M 212,191 L 213,191 L 214,191" />
    <path id="segment_97" d="M 216,191 L 217,191 L 218,191" />
    <path id="segment_98" d="M 261,191 L 261,192 L 260,193 L 259,194 L 258,195 L 258,196 L 258,197 L 258,198 L 257,199" />
    <path id="segment_99" d="M 113,192 L 113,193" />
    <path id="segment_100" d="M 114,192 L 115,192 L 116,192 L 117,192 L 118,192 L 119,192 L 120,192 L 121,192 L 122,192" />
    <path id="segment_101" d="M 218,192 L 219,192 L 220,192" />
    <path id="segment_102" d="M 173,193 L 174,193 L 175,193 L 176,193" />
    <path id="segment_103" d="M 210,193 L 209,194 L 209,195 L 209,196 L 209,197 L 209,198 L 210,199 L 210,200 L 210,201 L 210,202 L 210,203 L 210,204 L 211,205 L 211,206 L 211,207 L 211,208 L 211,209 L 211,210 L 212,211 L 212,212 L 212,213 L 212,214 L 212,215 L 212,216 L 211,217 L 211,218 L 210,219" />
    <path id="segment_104" d="M 220,193 L 221,193 L 222,193" />
    <path id="segment_105" d="M 112,194 L 111,195" />
    <path id="segment_106" d="M 113,194 L 113,195 L 112,196 L 111,197 L 110,196" />
    <path id="segment_107" d="M 222,194 L 223,194 L 224,194" />
    <path id="segment_108" d="M 225,194 L 224,195" />
    <path id="segment_109" d="M 226,195 L 225,196" />
    <path id="segment_110" d="M 227,195 L 226,196" />
    <path id="segment_111" d="M 291,195 L 290,196 L 289,197 L 289,198 L 289,199 L 289,200 L 288,201 L 288,202 L 288,203 L 288,204 L 287,205 L 287,206 L 286,207 L 285,208 L 285,209 L 284,210 L 284,211 L 284,212 L 283,213 L 283,214 L 282,215" />
    <path id="segment_112" d="M 227,196 L 227,197 L 226,198" />
    <path id="segment_113" d="M 109,197 L 108,198" />
    <path id="segment_114" d="M 153,197 L 154,197 L 155,197 L 156,197 L 157,197 L 158,197 L 159,197 L 160,197 L 161,197 L 162,197 L 163,197 L 164,197 L 165,197 L 166,197" />
    <path id="segment_115" d="M 107,198 L 106,199 L 105,200 L 104,201" />
    <path id="segment_116" d="M 110,198 L 109,199 L 108,200 L 107,201 L 106,201 L 105,201" />
    <path id="segment_117" d="M 166,198 L 166,199 L 166,200 L 166,201 L 166,202 L 166,203 L 166,204 L 166,205 L 165,206" />
    <path id="segment_118" d="M 227,198 L 228,199 L 229,199 L 230,199 L 231,200 L 232,200 L 233,201 L 234,202 L 235,202 L 236,202" />
    <path id="segment_119" d="M 255,199 L 254,200" />
    <path id="segment_120" d="M 256,199 L 257,199" />
    <path id="segment_121" d="M 258,199 L 258,200" />
    <path id="segment_122" d="M 259,199 L 260,199 L 261,199" />
    <path id="segment_123" d="M 78,200 L 78,201" />
    <path id="segment_124" d="M 79,200 L 80,200 L 81,200 L 82,200 L 83,200 L 84,200 L 85,200 L 86,201 L 87,201 L 88,201 L 89,201 L 90,201 L 91,201 L 92,201 L 93,201 L 94,201 L 95,201 L 96,201 L 97,201 L 98,201 L 99,201 L 100,201 L 101,201 L 102,201 L 103,201" />
    <path id="segment_125" d="M 249,200 L 248,201" />
    <path id="segment_126" d="M 250,200 L 251,200 L 252,200 L 253,200" />
    <path id="segment_127" d="M 242,201 L 241,202" />
    <path id="segment_128" d="M 243,201 L 244,201 L 245,201 L 246,201 L 247,201" />
    <path id="segment_129" d="M 78,202 L 79,203 L 79,204 L 79,205 L 79,206 L 78,207 L 78,208 L 78,209 L 77,210 L 76,211 L 76,212 L 75,213 L 74,214 L 73,215 L 72,215 L 71,215 L 70,215 L 69,215 L 68,215 L 67,216 L 67,217 L 66,218 L 65,219 L 65,220 L 64,221 L 63,222 L 63,223 L 62,224 L 61,225 L 60,226 L 60,227 L 59,228 L 58,229 L 58,230 L 57,231" />
    <path id="segment_130" d="M 103,202 L 102,203 L 101,204 L 100,205 L 99,206 L 98,207 L 97,208 L 96,208 L 95,209 L 94,210 L 93,211 L 92,212 L 91,213 L 91,214 L 91,215 L 91,216 L 91,217 L 91,218 L 91,219 L 90,220 L 89,221 L 88,222 L 87,223 L 86,224 L 85,225 L 84,225 L 83,225 L 82,225 L 81,226 L 80,226 L 79,226 L 78,227 L 77,227 L 76,228 L 75,229 L 74,229" />
    <path id="segment_131" d="M 237,202 L 236,203" />
    <path id="segment_132" d="M 238,202 L 239,202 L 240,202" />
    <path id="segment_133" d="M 9,204 L 9,205 L 9,206" />
    <path id="segment_134" d="M 236,204 L 236,205 L 237,206 L 237,207 L 237,208 L 238,209 L 239,209 L 240,209 L 241,208 L 242,208 L 243,208 L 244,208 L 245,207 L 246,207 L 247,207" />
    <path id="segment_135" d="M 181,205 L 180,206 L 180,207 L 179,208 L 179,209 L 178,210 L 178,211 L 177,212 L 177,213 L 176,214 L 176,215 L 175,216 L 174,216" />
    <path id="segment_136" d="M 338,205 L 339,206 L 340,206 L 341,206 L 342,207 L 343,207 L 344,207 L 345,208 L 346,208" />
    <path id="segment_137" d="M 0,206 L 1,206 L 2,206 L 3,206 L 4,206 L 5,206 L 6,206 L 7,207 L 7,208" />
    <path id="segment_138" d="M 10,206 L 11,206 L 12,206 L 13,206 L 14,206" />
    <path id="segment_139" d="M 166,206 L 165,207" />
    <path id="segment_140" d="M 167,206 L 168,206 L 169,206 L 170,207 L 171,207 L 172,207 L 173,207 L 174,208 L 174,209 L 174,210 L 174,211 L 174,212 L 174,213 L 173,214 L 173,215 L 172,216" />
    <path id="segment_141" d="M 8,207 L 9,207" />
    <path id="segment_142" d="M 164,207 L 163,208 L 162,209 L 161,209 L 160,209 L 159,210 L 158,210 L 157,210 L 156,210 L 155,210" />
    <path id="segment_143" d="M 247,208 L 248,209 L 248,210 L 249,211 L 249,212 L 249,213 L 250,214 L 250,215 L 251,216 L 251,217 L 251,218 L 252,219 L 252,220 L 252,221 L 253,222 L 253,223 L 254,224 L 254,225 L 254,226 L 255,227 L 255,228 L 256,229 L 256,230" />
    <path id="segment_144" d="M 353,208 L 352,209" />
    <path id="segment_145" d="M 354,208 L 355,208 L 356,208 L 357,208 L 358,208 L 359,208 L 360,209 L 361,209 L 362,209 L 363,210 L 364,210 L 365,210 L 366,210 L 367,210 L 368,211 L 369,211 L 370,211" />
    <path id="segment_146" d="M 7,209 L 8,210 L 8,211 L 8,212 L 8,213 L 8,214 L 8,215 L 8,216 L 8,217 L 8,218 L 8,219 L 8,220 L 7,221 L 7,222 L 6,223 L 6,224 L 5,225 L 5,226 L 4,227 L 4,228 L 3,229 L 3,230 L 3,231 L 3,232" />
    <path id="segment_147" d="M 346,209 L 347,209" />
    <path id="segment_148" d="M 348,209 L 347,210" />
    <path id="segment_149" d="M 349,209 L 350,209 L 351,209" />
    <path id="segment_150" d="M 374,210 L 373,211" />
    <path id="segment_151" d="M 375,210 L 376,210 L 377,210 L 378,210 L 379,210 L 380,210 L 381,210 L 382,210 L 383,210 L 384,210 L 385,210 L 386,210 L 387,210 L 388,210 L 389,210 L 390,210 L 391,210 L 392,210 L 393,210 L 394,210 L 395,210" />
    <path id="segment_152" d="M 347,211 L 347,212 L 347,213 L 347,214 L 347,215 L 346,216 L 346,217 L 346,218 L 346,219 L 346,220 L 346,221 L 346,222 L 346,223 L 346,224 L 346,225 L 346,226 L 347,227 L 347,228 L 347,229 L 347,230 L 347,231 L 347,232 L 347,233 L 347,234 L 347,235 L 347,236 L 347,237 L 347,238 L 347,239 L 347,240 L 347,241 L 346,242" />
    <path id="segment_153" d="M 371,211 L 370,212" />
    <path id="segment_154" d="M 372,211 L 373,211" />
    <path id="segment_155" d="M 397,211 L 398,212 L 398,213 L 398,214 L 398,215 L 398,216 L 397,217 L 397,218 L 397,219 L 397,220 L 396,221 L 396,222 L 396,223 L 396,224 L 395,225 L 395,226 L 395,227 L 394,228 L 394,229 L 394,230 L 394,231 L 393,232 L 392,233" />
    <path id="segment_156" d="M 370,213 L 370,214 L 370,215 L 370,216 L 370,217 L 370,218 L 370,219 L 370,220 L 370,221 L 370,222 L 371,223 L 371,224 L 371,225 L 371,226 L 372,227 L 372,228 L 372,229 L 372,230 L 372,231 L 372,232" />
    <path id="segment_157" d="M 281,215 L 282,215" />
    <path id="segment_158" d="M 283,215 L 284,215" />
    <path id="segment_159" d="M 173,216 L 172,217 L 171,217 L 170,218 L 170,219 L 169,220 L 168,221 L 167,222 L 167,223 L 166,224 L 165,225 L 165,226 L 165,227 L 164,228 L 163,229" />
    <path id="segment_160" d="M 175,217 L 176,217 L 177,218 L 178,218 L 179,218 L 180,218 L 181,218 L 182,218 L 183,219 L 184,220 L 185,221 L 186,222 L 187,223 L 188,224 L 189,225 L 190,226 L 191,227 L 192,228 L 193,229 L 194,229 L 195,229" />
    <path id="segment_161" d="M 287,218 L 287,219" />
    <path id="segment_162" d="M 288,218 L 289,218 L 290,218 L 291,218 L 292,218 L 293,218 L 294,218 L 295,218 L 296,218 L 297,218 L 298,218 L 299,218 L 300,218 L 301,218 L 302,219 L 303,219 L 304,219 L 305,220 L 306,220 L 307,221 L 308,221 L 309,221" />
    <path id="segment_163" d="M 145,219 L 146,219" />
    <path id="segment_164" d="M 208,219 L 207,220" />
    <path id="segment_165" d="M 209,219 L 209,220 L 209,221 L 208,222 L 207,223 L 207,224 L 206,225 L 205,226 L 205,227 L 204,228 L 204,229 L 203,230 L 202,231 L 202,232 L 201,233 L 200,233 L 199,233 L 198,233 L 197,233 L 196,233 L 195,232" />
    <path id="segment_166" d="M 211,219 L 212,219 L 213,220 L 214,221 L 215,221 L 216,221 L 217,221 L 218,222 L 219,223 L 220,223 L 221,224 L 222,224 L 223,224 L 224,225 L 225,225 L 226,225 L 227,225 L 228,226 L 229,226 L 230,226 L 231,227 L 232,227 L 233,227 L 234,228 L 235,228 L 236,228 L 237,228 L 238,228 L 239,229 L 240,229 L 241,229 L 242,230 L 243,230 L 244,230 L 245,231 L 246,231 L 247,231 L 248,232 L 249,232 L 250,232 L 251,233 L 251,234 L 251,235 L 251,236 L 252,237 L 252,238 L 252,239 L 252,240 L 252,241 L 253,242 L 253,243 L 254,244 L 255,245 L 255,246 L 256,247 L 257,248 L 258,249 L 258,250 L 259,251 L 259,252 L 259,253 L 259,254 L 259,255 L 259,256" />
    <path id="segment_167" d="M 146,220 L 147,220" />
    <path id="segment_168" d="M 206,220 L 205,221 L 205,222 L 205,223 L 204,224 L 203,225 L 202,225 L 201,225 L 200,226 L 199,227 L 198,227 L 197,228 L 196,229 L 195,230 L 195,231" />
    <path id="segment_169" d="M 287,220 L 287,221 L 287,222 L 287,223 L 287,224 L 286,225 L 286,226 L 286,227 L 285,228 L 285,229 L 285,230 L 285,231 L 285,232 L 285,233 L 285,234 L 285,235 L 285,236 L 285,237 L 285,238 L 285,239 L 285,240 L 285,241 L 285,242 L 285,243 L 285,244 L 285,245 L 285,246 L 285,247 L 285,248 L 284,249" />
    <path id="segment_170" d="M 310,221 L 309,222 L 309,223 L 310,224 L 310,225 L 310,226 L 310,227 L 310,228 L 310,229 L 310,230 L 310,231 L 310,232 L 310,233 L 310,234 L 310,235 L 310,236 L 310,237 L 310,238 L 310,239 L 310,240 L 310,241 L 310,242 L 309,243" />
    <path id="segment_171" d="M 15,225 L 14,226" />
    <path id="segment_172" d="M 15,226 L 16,226" />
    <path id="segment_173" d="M 156,229 L 155,230" />
    <path id="segment_174" d="M 157,229 L 158,229 L 159,229 L 160,229 L 161,229 L 162,229" />
    <path id="segment_175" d="M 164,229 L 164,230 L 165,231 L 166,232 L 166,233 L 167,234 L 168,235 L 169,236 L 169,237 L 169,238 L 169,239 L 169,240 L 169,241 L 170,242 L 169,243" />
    <path id="segment_176" d="M 60,230 L 59,231" />
    <path id="segment_177" d="M 61,230 L 62,230 L 63,230 L 64,230 L 65,230 L 66,230 L 67,230 L 68,230 L 69,230 L 70,230 L 71,230 L 72,230 L 73,230" />
    <path id="segment_178" d="M 74,230 L 73,231 L 73,232 L 73,233 L 73,234 L 72,235 L 72,236 L 72,237 L 72,238 L 72,239 L 73,240 L 73,241 L 74,242 L 74,243 L 75,244 L 75,245 L 75,246 L 75,247 L 74,248" />
    <path id="segment_179" d="M 257,230 L 258,230" />
    <path id="segment_180" d="M 154,231 L 154,232 L 154,233 L 154,234 L 154,235 L 154,236 L 153,237 L 153,238 L 153,239 L 153,240 L 153,241 L 152,242" />
    <path id="segment_181" d="M 4,232 L 3,233" />
    <path id="segment_182" d="M 5,232 L 6,232 L 7,232 L 8,232 L 9,232 L 10,232 L 11,233 L 12,233 L 13,233 L 14,233 L 15,233 L 16,233 L 17,233 L 18,233 L 19,234 L 20,234 L 21,234 L 22,234" />
    <path id="segment_183" d="M 56,232 L 55,233" />
    <path id="segment_184" d="M 57,232 L 56,233" />
    <path id="segment_185" d="M 58,232 L 59,232" />
    <path id="segment_186" d="M 373,232 L 372,233" />
    <path id="segment_187" d="M 379,232 L 378,233" />
    <path id="segment_188" d="M 380,232 L 381,232 L 382,232 L 383,232 L 384,232 L 385,232 L 386,233 L 387,233 L 388,233 L 389,233 L 390,233 L 391,233" />
    <path id="segment_189" d="M 195,233 L 195,234 L 195,235 L 195,236 L 194,237 L 193,238 L 192,239" />
    <path id="segment_190" d="M 374,233 L 375,233 L 376,233 L 377,233" />
    <path id="segment_191" d="M 393,233 L 394,233" />
    <path id="segment_192" d="M 3,234 L 4,234" />
    <path id="segment_193" d="M 55,234 L 55,235 L 55,236 L 55,237 L 55,238 L 55,239 L 55,240 L 55,241 L 55,242 L 56,243 L 57,244 L 58,245 L 59,245 L 60,246 L 61,247 L 62,248 L 63,248 L 64,248 L 65,248 L 66,248 L 67,248 L 68,248 L 69,248 L 70,248 L 71,248 L 72,248 L 73,248" />
    <path id="segment_194" d="M 394,234 L 394,235 L 394,236 L 395,237 L 395,238 L 395,239 L 395,240 L 395,241 L 395,242 L 396,243 L 396,244 L 396,245 L 396,246 L 396,247 L 396,248 L 396,249 L 397,250 L 397,251 L 397,252 L 396,253" />
    <path id="segment_195" d="M 22,235 L 22,236" />
    <path id="segment_196" d="M 187,239 L 186,240" />
    <path id="segment_197" d="M 188,239 L 189,239 L 190,239 L 191,239" />
    <path id="segment_198" d="M 193,239 L 193,240 L 193,241 L 194,242 L 194,243 L 195,244 L 195,245 L 195,246 L 195,247 L 195,248 L 195,249 L 196,250 L 196,251 L 196,252 L 197,253 L 197,254 L 198,255 L 198,256 L 198,257 L 199,258 L 200,259 L 200,260 L 201,261 L 202,262 L 203,263 L 203,264 L 204,265 L 205,266 L 205,267 L 205,268 L 206,269 L 205,270" />
    <path id="segment_199" d="M 184,240 L 183,241" />
    <path id="segment_200" d="M 185,240 L 186,240" />
    <path id="segment_201" d="M 181,241 L 180,242" />
    <path id="segment_202" d="M 182,241 L 183,241" />
    <path id="segment_203" d="M 153,242 L 154,242 L 155,243 L 156,244 L 157,244 L 158,244 L 159,244 L 160,244 L 161,244 L 162,243 L 163,243 L 164,243 L 165,243 L 166,243 L 167,243 L 168,243" />
    <path id="segment_204" d="M 179,242 L 178,243 L 177,243 L 176,244 L 175,244 L 174,244 L 173,245 L 172,245" />
    <path id="segment_205" d="M 347,242 L 348,242 L 349,242 L 350,242 L 351,242 L 352,242 L 353,242 L 354,242 L 355,242 L 356,242 L 357,242 L 358,242 L 359,242 L 360,242 L 361,242 L 362,242" />
    <path id="segment_206" d="M 96,243 L 96,244" />
    <path id="segment_207" d="M 170,243 L 171,243" />
    <path id="segment_208" d="M 310,243 L 311,243 L 312,244 L 313,244 L 314,244 L 315,244 L 316,245 L 317,245 L 318,245 L 319,246 L 320,246 L 321,246 L 322,246 L 323,246 L 324,247 L 325,247 L 326,247 L 327,247 L 328,247 L 329,247 L 330,247 L 331,247 L 332,246 L 333,246 L 334,246 L 335,246 L 336,246 L 337,246 L 338,246 L 339,246 L 340,245 L 341,245 L 342,244 L 343,243 L 344,243 L 345,243" />
    <path id="segment_209" d="M 362,243 L 362,244 L 362,245 L 362,246 L 362,247 L 362,248 L 362,249 L 362,250 L 362,251" />
    <path id="segment_210" d="M 97,244 L 96,245" />
    <path id="segment_211" d="M 308,244 L 307,245 L 306,246 L 305,246 L 304,247 L 303,248 L 302,249 L 301,250 L 300,250 L 299,250 L 298,250 L 297,250 L 296,250 L 295,250 L 294,250 L 293,250 L 292,250 L 291,249 L 290,249 L 289,249 L 288,249 L 287,249 L 286,249 L 285,249 L 284,250 L 283,250 L 282,251 L 281,251 L 280,252 L 279,252 L 278,253 L 277,253 L 276,253 L 275,254 L 274,254 L 273,254 L 272,254 L 271,254 L 270,254 L 269,254 L 268,254 L 267,254 L 266,255 L 265,255 L 264,255 L 263,255 L 262,255 L 261,255 L 260,256 L 259,257" />
    <path id="segment_212" d="M 98,245 L 99,246 L 100,246 L 101,247 L 102,248 L 103,249 L 104,250 L 105,251 L 106,252 L 107,253 L 108,253 L 109,254 L 110,255 L 111,256 L 112,257 L 113,258 L 114,259 L 115,260 L 116,260 L 117,261 L 118,262 L 119,263 L 118,264" />
    <path id="segment_213" d="M 149,245 L 148,246" />
    <path id="segment_214" d="M 96,246 L 96,247 L 96,248 L 96,249 L 96,250 L 95,251 L 94,251 L 93,251 L 92,251 L 91,251 L 90,251 L 89,252 L 88,252 L 87,252 L 86,252 L 85,252 L 84,252 L 83,252 L 82,252 L 81,252" />
    <path id="segment_215" d="M 147,246 L 146,247 L 145,247 L 144,247 L 143,247 L 142,247" />
    <path id="segment_216" d="M 149,246 L 149,247 L 150,248 L 150,249 L 150,250 L 151,251 L 151,252 L 152,253 L 153,254 L 153,255 L 153,256" />
    <path id="segment_217" d="M 172,246 L 171,247 L 171,248 L 171,249 L 170,250 L 170,251 L 170,252 L 169,253 L 168,254 L 167,255 L 166,256" />
    <path id="segment_218" d="M 75,248 L 76,248" />
    <path id="segment_219" d="M 363,251 L 364,251 L 365,252 L 366,253 L 367,253 L 368,253" />
    <path id="segment_220" d="M 355,252 L 354,253" />
    <path id="segment_221" d="M 356,252 L 357,252 L 358,252 L 359,252 L 360,252 L 361,252" />
    <path id="segment_222" d="M 81,253 L 81,254 L 81,255 L 81,256 L 82,257 L 82,258 L 82,259 L 82,260 L 82,261 L 82,262 L 82,263 L 82,264 L 83,265 L 83,266 L 83,267 L 83,268" />
    <path id="segment_223" d="M 346,253 L 345,254" />
    <path id="segment_224" d="M 347,253 L 348,253 L 349,253 L 350,253 L 351,253 L 352,253 L 353,253" />
    <path id="segment_225" d="M 386,253 L 385,254" />
    <path id="segment_226" d="M 387,253 L 388,253 L 389,253 L 390,253 L 391,253 L 392,253 L 393,253 L 394,253 L 395,253" />
    <path id="segment_227" d="M 397,253 L 398,253" />
    <path id="segment_228" d="M 99,254 L 98,255" />
    <path id="segment_229" d="M 342,254 L 341,255" />
    <path id="segment_230" d="M 343,254 L 344,254" />
    <path id="segment_231" d="M 368,254 L 369,255 L 369,256 L 369,257 L 370,258 L 370,259 L 371,260 L 371,261 L 371,262 L 372,263 L 372,264" />
    <path id="segment_232" d="M 380,254 L 379,255" />
    <path id="segment_233" d="M 381,254 L 382,254 L 383,254 L 384,254" />
    <path id="segment_234" d="M 42,255 L 41,256" />
    <path id="segment_235" d="M 99,255 L 99,256 L 99,257 L 99,258 L 99,259 L 99,260 L 99,261 L 99,262 L 99,263 L 100,264 L 100,265 L 100,266 L 100,267 L 100,268 L 100,269 L 100,270 L 100,271" />
    <path id="segment_236" d="M 374,255 L 373,256" />
    <path id="segment_237" d="M 375,255 L 376,255 L 377,255 L 378,255" />
    <path id="segment_238" d="M 40,256 L 39,257 L 39,258 L 38,259 L 38,260 L 38,261 L 38,262 L 37,263 L 37,264 L 37,265 L 36,266 L 35,267 L 35,268 L 35,269 L 34,270 L 33,270 L 32,271 L 31,272" />
    <path id="segment_239" d="M 43,256 L 44,257 L 45,258 L 46,259 L 47,260 L 48,261 L 49,262 L 50,263 L 50,264 L 51,265 L 52,266 L 53,267 L 54,268 L 55,269 L 56,270 L 57,271 L 57,272 L 57,273 L 58,274 L 58,275 L 58,276 L 58,277 L 58,278 L 58,279 L 59,280 L 59,281 L 59,282 L 59,283 L 59,284 L 59,285 L 59,286 L 59,287 L 59,288 L 59,289" />
    <path id="segment_240" d="M 97,256 L 96,257 L 95,258 L 94,259 L 93,260 L 92,261 L 91,262 L 90,263 L 89,264 L 88,265 L 87,266 L 86,267 L 85,268 L 84,268" />
    <path id="segment_241" d="M 154,256 L 153,257" />
    <path id="segment_242" d="M 155,256 L 156,256 L 157,256 L 158,256 L 159,256 L 160,256 L 161,256 L 162,256 L 163,256 L 164,256 L 165,256" />
    <path id="segment_243" d="M 167,256 L 167,257 L 167,258 L 167,259 L 167,260 L 167,261 L 168,262 L 168,263 L 168,264 L 168,265 L 168,266 L 168,267 L 169,268 L 169,269 L 169,270 L 169,271 L 170,272 L 170,273 L 171,274 L 171,275 L 172,276 L 172,277 L 172,278 L 173,279 L 173,280 L 173,281 L 173,282 L 173,283 L 173,284" />
    <path id="segment_244" d="M 339,256 L 338,257" />
    <path id="segment_245" d="M 340,256 L 339,257 L 340,258 L 340,259 L 340,260 L 341,261 L 342,262 L 343,263 L 344,264 L 345,265 L 345,266" />
    <path id="segment_246" d="M 260,257 L 259,258" />
    <path id="segment_247" d="M 337,257 L 336,258 L 335,258 L 334,259 L 333,259 L 332,259 L 331,259 L 330,259 L 329,259 L 328,259 L 327,259 L 326,259 L 325,259 L 324,259 L 323,259 L 322,259 L 321,259 L 320,259 L 319,260 L 318,260 L 317,260 L 316,260 L 315,260 L 314,260 L 313,260 L 312,261 L 311,261 L 310,261 L 309,261 L 308,261 L 307,261 L 306,261 L 305,261 L 304,262 L 303,262 L 302,263 L 301,264 L 300,264 L 299,264 L 298,264 L 297,264 L 296,264 L 295,265 L 294,265 L 293,266 L 292,266 L 291,266 L 290,267 L 289,267 L 288,268 L 287,269 L 286,269" />
    <path id="segment_248" d="M 373,257 L 373,258 L 373,259 L 373,260 L 373,261 L 373,262" />
    <path id="segment_249" d="M 153,258 L 152,259 L 151,260 L 150,261 L 149,262 L 148,263 L 147,264 L 146,265 L 146,266 L 146,267 L 145,268 L 144,269 L 144,270 L 144,271 L 143,272 L 143,273 L 143,274 L 144,275 L 144,276 L 145,277 L 146,278 L 147,279 L 147,280 L 148,281 L 149,282 L 150,283 L 150,284 L 151,285 L 151,286 L 151,287 L 151,288 L 152,289 L 152,290 L 152,291 L 152,292 L 153,293 L 153,294 L 153,295 L 154,296 L 154,297 L 154,298 L 154,299 L 154,300 L 153,301 L 153,302 L 153,303 L 153,304 L 153,305 L 152,306 L 151,307 L 151,308 L 150,309 L 149,310 L 148,311 L 147,312 L 146,313 L 146,314 L 145,315 L 144,316 L 143,317 L 142,318 L 142,319 L 141,320 L 140,321 L 139,322 L 138,323 L 137,324 L 137,325 L 136,326 L 135,327" />
    <path id="segment_250" d="M 260,258 L 259,259 L 258,259" />
    <path id="segment_251" d="M 248,259 L 247,260" />
    <path id="segment_252" d="M 249,259 L 250,259 L 251,259 L 252,259 L 253,259 L 254,259 L 255,259 L 256,259 L 257,259" />
    <path id="segment_253" d="M 246,260 L 245,261 L 244,262 L 243,262 L 242,263 L 241,264 L 240,264 L 239,265 L 238,266 L 237,266 L 236,267 L 235,267 L 234,267 L 233,268 L 232,269 L 231,270 L 230,271 L 229,271 L 228,271" />
    <path id="segment_254" d="M 259,260 L 260,261 L 260,262 L 260,263 L 260,264 L 260,265 L 260,266 L 260,267 L 260,268 L 261,269 L 261,270 L 261,271 L 261,272 L 261,273 L 261,274 L 261,275 L 261,276 L 260,277 L 260,278 L 260,279 L 260,280 L 260,281 L 260,282 L 260,283 L 260,284 L 260,285 L 259,286 L 259,287 L 259,288 L 258,289" />
    <path id="segment_255" d="M 8,262 L 8,263 L 8,264 L 9,265 L 9,266 L 10,267 L 10,268 L 10,269 L 10,270 L 10,271 L 10,272 L 10,273" />
    <path id="segment_256" d="M 114,264 L 113,265" />
    <path id="segment_257" d="M 115,264 L 116,264 L 117,264" />
    <path id="segment_258" d="M 119,264 L 120,264" />
    <path id="segment_259" d="M 111,265 L 110,266" />
    <path id="segment_260" d="M 112,265 L 113,265" />
    <path id="segment_261" d="M 359,265 L 358,266" />
    <path id="segment_262" d="M 360,265 L 361,265 L 362,265 L 363,265 L 364,265 L 365,265 L 366,265 L 367,265 L 368,265 L 369,265 L 370,265 L 371,265 L 372,265 L 373,265" />
    <path id="segment_263" d="M 109,266 L 108,267 L 107,268 L 106,268 L 105,269 L 104,270 L 103,270 L 102,271 L 101,271" />
    <path id="segment_264" d="M 346,266 L 345,267" />
    <path id="segment_265" d="M 347,266 L 348,266 L 349,266 L 350,266 L 351,266 L 352,266 L 353,266 L 354,266 L 355,266 L 356,266 L 357,266" />
    <path id="segment_266" d="M 373,266 L 374,267 L 375,267 L 376,268 L 376,269 L 376,270 L 376,271 L 376,272 L 376,273" />
    <path id="segment_267" d="M 315,268 L 315,269" />
    <path id="segment_268" d="M 316,268 L 317,268 L 318,269 L 318,270 L 319,271 L 320,272 L 320,273 L 321,274 L 321,275 L 322,276 L 323,277 L 323,278 L 322,279" />
    <path id="segment_269" d="M 345,268 L 345,269 L 345,270 L 345,271 L 345,272 L 344,273 L 343,274 L 343,275 L 343,276 L 344,277 L 345,278 L 346,279 L 347,280 L 347,281 L 348,282 L 347,283" />
    <path id="segment_270" d="M 207,269 L 208,269 L 209,269 L 210,269 L 211,269 L 212,269 L 213,269 L 214,270 L 215,270 L 216,270 L 217,270 L 218,271 L 219,271 L 220,271 L 221,271 L 222,271 L 223,271 L 224,271 L 225,271 L 226,271 L 227,271 L 228,272 L 228,273 L 228,274 L 228,275 L 229,276 L 229,277 L 229,278" />
    <path id="segment_271" d="M 276,270 L 275,271" />
    <path id="segment_272" d="M 277,270 L 278,270 L 279,270 L 280,270 L 281,270 L 282,270 L 283,270 L 284,270 L 285,270" />
    <path id="segment_273" d="M 286,270 L 285,271 L 285,272 L 285,273 L 286,274 L 286,275 L 286,276 L 286,277 L 287,278 L 287,279 L 287,280" />
    <path id="segment_274" d="M 315,270 L 315,271 L 315,272 L 315,273 L 315,274 L 315,275 L 314,276" />
    <path id="segment_275" d="M 20,271 L 19,272" />
    <path id="segment_276" d="M 21,271 L 22,271 L 23,271 L 24,271 L 25,271 L 26,272 L 27,272 L 28,272 L 29,272 L 30,272 L 31,273 L 31,274" />
    <path id="segment_277" d="M 205,271 L 205,272 L 204,273 L 204,274 L 203,275 L 202,276 L 201,277 L 200,278" />
    <path id="segment_278" d="M 18,272 L 17,273 L 16,273 L 15,273 L 14,273 L 13,273 L 12,273 L 11,273 L 10,274 L 10,275 L 10,276" />
    <path id="segment_279" d="M 32,272 L 33,272" />
    <path id="segment_280" d="M 101,272 L 101,273 L 101,274 L 101,275 L 101,276 L 102,277 L 102,278 L 102,279 L 102,280 L 102,281 L 102,282 L 102,283 L 102,284 L 102,285 L 102,286 L 102,287 L 102,288 L 103,289 L 103,290 L 103,291 L 103,292 L 103,293 L 103,294 L 103,295 L 103,296 L 102,297" />
    <path id="segment_281" d="M 274,272 L 273,273 L 272,274 L 271,275 L 270,276 L 270,277 L 270,278 L 270,279 L 270,280 L 270,281 L 270,282 L 270,283 L 270,284 L 270,285 L 270,286 L 270,287 L 270,288 L 270,289 L 270,290 L 270,291 L 270,292" />
    <path id="segment_282" d="M 377,273 L 378,273 L 379,273 L 380,273 L 381,273 L 382,274 L 383,274 L 384,274 L 385,274 L 386,274 L 387,274 L 388,275 L 389,275" />
    <path id="segment_283" d="M 370,274 L 369,275" />
    <path id="segment_284" d="M 371,274 L 372,274 L 373,274 L 374,274 L 375,274" />
    <path id="segment_285" d="M 32,275 L 32,276 L 32,277 L 32,278 L 32,279 L 32,280 L 32,281 L 31,282 L 31,283 L 31,284 L 31,285 L 31,286 L 31,287 L 31,288 L 31,289 L 31,290 L 30,291 L 29,292 L 28,293 L 27,294 L 26,295 L 25,296 L 24,296 L 23,297 L 22,298 L 21,299 L 20,300 L 19,301 L 18,302 L 17,303" />
    <path id="segment_286" d="M 363,275 L 362,276" />
    <path id="segment_287" d="M 364,275 L 365,275 L 366,275 L 367,275 L 368,275" />
    <path id="segment_288" d="M 375,275 L 376,276 L 376,277 L 376,278 L 376,279 L 375,280 L 375,281 L 374,282 L 373,283" />
    <path id="segment_289" d="M 394,275 L 393,276" />
    <path id="segment_290" d="M 395,275 L 396,275" />
    <path id="segment_291" d="M 310,276 L 309,277" />
    <path id="segment_292" d="M 311,276 L 312,276 L 313,276" />
    <path id="segment_293" d="M 315,276 L 316,277 L 316,278" />
    <path id="segment_294" d="M 359,276 L 358,277" />
    <path id="segment_295" d="M 360,276 L 361,276" />
    <path id="segment_296" d="M 389,276 L 390,276" />
    <path id="segment_297" d="M 391,276 L 390,277" />
    <path id="segment_298" d="M 392,276 L 393,276" />
    <path id="segment_299" d="M 237,277 L 236,278" />
    <path id="segment_300" d="M 238,277 L 239,277 L 240,277 L 241,277 L 242,277 L 243,278 L 244,279 L 244,280 L 245,281 L 246,282 L 247,283 L 247,284 L 248,285 L 249,286 L 250,287 L 250,288 L 251,289 L 252,290 L 253,290 L 254,290 L 255,289 L 256,289 L 257,289" />
    <path id="segment_301" d="M 308,277 L 307,278 L 306,278 L 305,278 L 304,279 L 303,279 L 302,279 L 301,279 L 300,280 L 299,281" />
    <path id="segment_302" d="M 357,277 L 356,278 L 355,279 L 354,279 L 353,280 L 352,281 L 351,282 L 350,282 L 349,283 L 348,283" />
    <path id="segment_303" d="M 201,278 L 200,279 L 199,279" />
    <path id="segment_304" d="M 230,278 L 229,279" />
    <path id="segment_305" d="M 231,278 L 232,278 L 233,278 L 234,278 L 235,278" />
    <path id="segment_306" d="M 317,278 L 316,279" />
    <path id="segment_307" d="M 318,278 L 319,278 L 320,278 L 321,278" />
    <path id="segment_308" d="M 325,278 L 324,279" />
    <path id="segment_309" d="M 326,278 L 327,278 L 328,278 L 329,278 L 330,278 L 331,279 L 332,279 L 333,279 L 334,279 L 335,279 L 336,279 L 337,279 L 338,279 L 339,279 L 340,279 L 341,279" />
    <path id="segment_310" d="M 390,278 L 390,279 L 390,280 L 390,281 L 390,282 L 390,283 L 390,284 L 390,285 L 390,286 L 390,287 L 390,288 L 390,289 L 390,290 L 389,291" />
    <path id="segment_311" d="M 198,279 L 197,280 L 196,280 L 195,280 L 194,280 L 193,280 L 192,280 L 191,281 L 190,281 L 189,281 L 188,281 L 187,281 L 186,282 L 185,282 L 184,282 L 183,283 L 182,283 L 181,283 L 180,284 L 179,284 L 178,284 L 177,284 L 176,284 L 175,284 L 174,284 L 173,285 L 172,286 L 172,287 L 172,288 L 171,289 L 171,290 L 170,291 L 169,292 L 169,293 L 168,294 L 167,295 L 166,296 L 166,297 L 165,298" />
    <path id="segment_312" d="M 323,279 L 324,280 L 324,281 L 324,282 L 324,283 L 325,284 L 325,285 L 326,286 L 327,287 L 327,288 L 328,289 L 327,290" />
    <path id="segment_313" d="M 200,280 L 200,281 L 200,282 L 201,283 L 201,284 L 201,285 L 202,286 L 202,287 L 202,288 L 203,289 L 203,290 L 204,291 L 204,292 L 204,293 L 205,294 L 205,295 L 205,296 L 205,297" />
    <path id="segment_314" d="M 229,280 L 229,281 L 229,282 L 229,283 L 229,284 L 229,285 L 229,286 L 229,287 L 229,288 L 229,289 L 229,290 L 229,291 L 229,292 L 229,293" />
    <path id="segment_315" d="M 288,280 L 287,281" />
    <path id="segment_316" d="M 289,280 L 290,280 L 291,280 L 292,280 L 293,280 L 294,280 L 295,281 L 296,281 L 297,281 L 298,281" />
    <path id="segment_317" d="M 341,280 L 342,281 L 343,282 L 344,282 L 345,282 L 346,283" />
    <path id="segment_318" d="M 300,281 L 300,282 L 300,283 L 300,284 L 301,285 L 302,285 L 303,285 L 304,285 L 305,285 L 306,285 L 307,285" />
    <path id="segment_319" d="M 287,282 L 286,283 L 285,283 L 284,284 L 283,284 L 282,285 L 281,286 L 280,286 L 279,287 L 278,287 L 277,288 L 276,289 L 275,289 L 274,290 L 273,290" />
    <path id="segment_320" d="M 362,282 L 361,283" />
    <path id="segment_321" d="M 363,282 L 364,282 L 365,282 L 366,282 L 367,282 L 368,282 L 369,282 L 370,282 L 371,282 L 372,283 L 373,284 L 373,285" />
    <path id="segment_322" d="M 359,283 L 358,284" />
    <path id="segment_323" d="M 360,283 L 361,283" />
    <path id="segment_324" d="M 374,283 L 375,283" />
    <path id="segment_325" d="M 350,284 L 351,285 L 352,286 L 353,287 L 354,288 L 354,289" />
    <path id="segment_326" d="M 356,284 L 355,285" />
    <path id="segment_327" d="M 357,284 L 358,284" />
    <path id="segment_328" d="M 307,286 L 308,287 L 308,288 L 308,289 L 309,290 L 309,291 L 308,292" />
    <path id="segment_329" d="M 355,286 L 355,287 L 355,288 L 355,289 L 354,290" />
    <path id="segment_330" d="M 373,286 L 373,287 L 373,288 L 373,289 L 373,290 L 372,291 L 371,291 L 370,291 L 369,291 L 368,292 L 367,292 L 366,292 L 365,292 L 364,292 L 363,293 L 362,293 L 361,293" />
    <path id="segment_331" d="M 70,287 L 69,288" />
    <path id="segment_332" d="M 71,287 L 72,287 L 73,287 L 74,287" />
    <path id="segment_333" d="M 75,287 L 74,288 L 74,289 L 74,290 L 74,291 L 74,292 L 75,293 L 75,294 L 75,295 L 76,296 L 76,297 L 76,298 L 76,299 L 76,300" />
    <path id="segment_334" d="M 66,288 L 65,289" />
    <path id="segment_335" d="M 67,288 L 68,288" />
    <path id="segment_336" d="M 60,289 L 59,290" />
    <path id="segment_337" d="M 61,289 L 62,289 L 63,289 L 64,289" />
    <path id="segment_338" d="M 259,289 L 260,289" />
    <path id="segment_339" d="M 58,290 L 58,291 L 57,292 L 56,292 L 55,292" />
    <path id="segment_340" d="M 328,290 L 327,291" />
    <path id="segment_341" d="M 329,290 L 330,291 L 331,291 L 332,291 L 333,291 L 334,291 L 335,291 L 336,291 L 337,291 L 338,291 L 339,292 L 339,293 L 340,294 L 340,295 L 341,296 L 341,297 L 342,298 L 343,299 L 343,300 L 344,301 L 344,302" />
    <path id="segment_342" d="M 349,290 L 348,291" />
    <path id="segment_343" d="M 350,290 L 351,290 L 352,290 L 353,290" />
    <path id="segment_344" d="M 355,290 L 356,291 L 357,292 L 358,292 L 359,292 L 360,293 L 361,294 L 361,295 L 361,296 L 361,297 L 361,298 L 361,299 L 361,300 L 360,301 L 360,302 L 360,303 L 359,304" />
    <path id="segment_345" d="M 272,291 L 271,292" />
    <path id="segment_346" d="M 273,291 L 272,292" />
    <path id="segment_347" d="M 274,291 L 275,291 L 276,291 L 277,291 L 278,291 L 279,291 L 280,291 L 281,292 L 281,293 L 281,294 L 282,295 L 283,296 L 284,297 L 284,298 L 284,299 L 283,300 L 283,301 L 283,302 L 283,303 L 283,304 L 283,305 L 282,306" />
    <path id="segment_348" d="M 326,291 L 325,292 L 324,292 L 323,292" />
    <path id="segment_349" d="M 386,291 L 385,292" />
    <path id="segment_350" d="M 387,291 L 388,291" />
    <path id="segment_351" d="M 390,291 L 390,292 L 391,293 L 392,294 L 392,295 L 392,296" />
    <path id="segment_352" d="M 309,292 L 308,293" />
    <path id="segment_353" d="M 310,292 L 311,292 L 312,292 L 313,292 L 314,292 L 315,292 L 316,292 L 317,292 L 318,292 L 319,292 L 320,292 L 321,292 L 322,292 L 323,293 L 323,294 L 323,295 L 323,296 L 323,297 L 323,298 L 323,299 L 323,300 L 322,301" />
    <path id="segment_354" d="M 348,292 L 347,293 L 346,294 L 346,295 L 346,296 L 346,297 L 346,298 L 345,299 L 345,300 L 345,301 L 345,302 L 345,303 L 344,304" />
    <path id="segment_355" d="M 379,292 L 378,293" />
    <path id="segment_356" d="M 380,292 L 381,292 L 382,292 L 383,292 L 384,292" />
    <path id="segment_357" d="M 230,293 L 231,293 L 232,293 L 233,293 L 234,293 L 235,293 L 236,293 L 237,293 L 238,293 L 239,293 L 240,293 L 241,293 L 242,293 L 243,293 L 244,293 L 245,293 L 246,293 L 247,293" />
    <path id="segment_358" d="M 268,293 L 267,294" />
    <path id="segment_359" d="M 269,293 L 270,293" />
    <path id="segment_360" d="M 376,293 L 377,293" />
    <path id="segment_361" d="M 117,294 L 116,295" />
    <path id="segment_362" d="M 118,294 L 119,294" />
    <path id="segment_363" d="M 247,294 L 247,295" />
    <path id="segment_364" d="M 265,294 L 265,295" />
    <path id="segment_365" d="M 266,294 L 267,294" />
    <path id="segment_366" d="M 307,294 L 307,295 L 307,296 L 307,297 L 307,298 L 307,299 L 307,300 L 306,301 L 306,302 L 305,303 L 304,303 L 303,303 L 302,303 L 301,303 L 300,303 L 299,303 L 298,303 L 297,303 L 296,304 L 295,304 L 294,304 L 293,305 L 292,305 L 291,306 L 290,306 L 289,306 L 288,307 L 287,307 L 286,307" />
    <path id="segment_367" d="M 377,294 L 377,295 L 377,296 L 377,297 L 377,298 L 377,299 L 377,300 L 377,301 L 377,302 L 377,303" />
    <path id="segment_368" d="M 215,295 L 214,296" />
    <path id="segment_369" d="M 216,295 L 217,295 L 218,295 L 219,295 L 220,295 L 221,295 L 222,295 L 223,295 L 224,295 L 225,295 L 226,295 L 227,295 L 228,295 L 229,295" />
    <path id="segment_370" d="M 248,295 L 247,296" />
    <path id="segment_371" d="M 395,295 L 394,296" />
    <path id="segment_372" d="M 396,295 L 397,295 L 398,295 L 399,295" />
    <path id="segment_373" d="M 116,296 L 115,297 L 114,298 L 113,299 L 113,300 L 112,301" />
    <path id="segment_374" d="M 207,296 L 206,297" />
    <path id="segment_375" d="M 208,296 L 209,296 L 210,296 L 211,296 L 212,296 L 213,296" />
    <path id="segment_376" d="M 229,296 L 228,297 L 228,298 L 228,299 L 228,300 L 228,301 L 228,302 L 228,303 L 228,304 L 227,305 L 227,306 L 226,307" />
    <path id="segment_377" d="M 248,296 L 247,297" />
    <path id="segment_378" d="M 265,296 L 265,297 L 265,298 L 265,299 L 264,300 L 264,301 L 264,302 L 264,303 L 264,304 L 265,305 L 264,306" />
    <path id="segment_379" d="M 393,296 L 392,297 L 392,298 L 392,299 L 391,300 L 390,300" />
    <path id="segment_380" d="M 101,297 L 102,297" />
    <path id="segment_381" d="M 103,297 L 104,297 L 105,297 L 106,298 L 107,299 L 108,300 L 109,300 L 110,301 L 111,301" />
    <path id="segment_382" d="M 248,297 L 248,298 L 248,299 L 248,300 L 248,301 L 248,302 L 247,303" />
    <path id="segment_383" d="M 156,298 L 157,298 L 158,298 L 159,298 L 160,298 L 161,298 L 162,298 L 163,298 L 164,298" />
    <path id="segment_384" d="M 166,298 L 166,299 L 167,300 L 168,301 L 169,302 L 170,303 L 170,304 L 171,305 L 172,306 L 173,307 L 174,308 L 175,309 L 175,310 L 175,311 L 175,312" />
    <path id="segment_385" d="M 204,298 L 204,299" />
    <path id="segment_386" d="M 205,298 L 206,298" />
    <path id="segment_387" d="M 207,298 L 208,299 L 209,300 L 210,301 L 211,302 L 212,303 L 212,304 L 213,305 L 214,306 L 215,307 L 216,308 L 217,309 L 218,309 L 219,309 L 220,308 L 221,308 L 222,308 L 223,308 L 224,307 L 225,307" />
    <path id="segment_388" d="M 203,300 L 203,301 L 202,302 L 201,303 L 201,304 L 200,305 L 199,306 L 199,307 L 198,308 L 198,309 L 197,310 L 197,311 L 197,312 L 197,313 L 196,314 L 195,315 L 194,316" />
    <path id="segment_389" d="M 385,300 L 384,301" />
    <path id="segment_390" d="M 386,300 L 387,300 L 388,300 L 389,300" />
    <path id="segment_391" d="M 113,301 L 113,302 L 114,303 L 114,304 L 114,305 L 115,306 L 115,307 L 116,308 L 116,309 L 117,310 L 117,311 L 117,312 L 118,313 L 119,314 L 119,315 L 120,316 L 121,317 L 122,318 L 123,319 L 123,320 L 124,321 L 125,322 L 126,323 L 127,324 L 127,325 L 128,326 L 129,327 L 130,327 L 131,327 L 132,327 L 133,327 L 134,327" />
    <path id="segment_392" d="M 323,301 L 324,301" />
    <path id="segment_393" d="M 382,301 L 381,302" />
    <path id="segment_394" d="M 383,301 L 384,301" />
    <path id="segment_395" d="M 392,301 L 392,302 L 392,303 L 392,304 L 392,305 L 392,306 L 392,307 L 392,308 L 392,309 L 392,310 L 393,311 L 392,312" />
    <path id="segment_396" d="M 319,302 L 318,303" />
    <path id="segment_397" d="M 320,302 L 321,302" />
    <path id="segment_398" d="M 324,302 L 325,302" />
    <path id="segment_399" d="M 326,302 L 325,303" />
    <path id="segment_400" d="M 327,302 L 326,303" />
    <path id="segment_401" d="M 379,302 L 378,303" />
    <path id="segment_402" d="M 380,302 L 381,302" />
    <path id="segment_403" d="M 16,303 L 15,304 L 14,304 L 13,304 L 12,305 L 11,305 L 10,306 L 9,306 L 8,306 L 7,307 L 6,308 L 5,308 L 4,308" />
    <path id="segment_404" d="M 18,303 L 18,304" />
    <path id="segment_405" d="M 248,303 L 249,304 L 249,305 L 249,306 L 249,307 L 249,308 L 249,309 L 249,310 L 250,311 L 250,312 L 250,313 L 250,314 L 250,315 L 250,316 L 251,317 L 251,318" />
    <path id="segment_406" d="M 328,303 L 327,304" />
    <path id="segment_407" d="M 329,303 L 330,304 L 331,304 L 332,304 L 333,305 L 334,305 L 335,305 L 336,305 L 337,304 L 338,304 L 339,304 L 340,304 L 341,304 L 342,304 L 343,304" />
    <path id="segment_408" d="M 19,304 L 20,305 L 21,306 L 22,306 L 23,307 L 24,307 L 25,308 L 26,309 L 27,309 L 28,310 L 29,310 L 30,310" />
    <path id="segment_409" d="M 246,304 L 245,305 L 245,306 L 244,307 L 243,308 L 242,308 L 241,308 L 240,308 L 239,309 L 238,309 L 237,309 L 236,309 L 235,309 L 234,309 L 233,309 L 232,309 L 231,310 L 230,310 L 229,310" />
    <path id="segment_410" d="M 315,304 L 314,305" />
    <path id="segment_411" d="M 316,304 L 317,304" />
    <path id="segment_412" d="M 345,304 L 346,305 L 346,306" />
    <path id="segment_413" d="M 354,304 L 353,305" />
    <path id="segment_414" d="M 355,304 L 356,304 L 357,304 L 358,304" />
    <path id="segment_415" d="M 360,304 L 361,304 L 362,305 L 362,306" />
    <path id="segment_416" d="M 365,304 L 364,305" />
    <path id="segment_417" d="M 366,304 L 367,304 L 368,304 L 369,304 L 370,304 L 371,304 L 372,304 L 373,304 L 374,304 L 375,304 L 376,304 L 377,304 L 378,305 L 378,306 L 378,307 L 378,308 L 379,309 L 379,310 L 379,311 L 379,312" />
    <path id="segment_418" d="M 266,305 L 265,306" />
    <path id="segment_419" d="M 267,305 L 268,305 L 269,305 L 270,305 L 271,305 L 272,305 L 273,305 L 274,306 L 275,306 L 276,306 L 277,306 L 278,306 L 279,306 L 280,306 L 281,306" />
    <path id="segment_420" d="M 309,305 L 309,306" />
    <path id="segment_421" d="M 310,305 L 311,305 L 312,305 L 313,305" />
    <path id="segment_422" d="M 327,305 L 327,306 L 328,307 L 328,308 L 328,309 L 328,310 L 328,311 L 328,312 L 328,313 L 329,314 L 329,315 L 329,316 L 329,317 L 329,318 L 329,319 L 330,320 L 329,321" />
    <path id="segment_423" d="M 349,305 L 348,306" />
    <path id="segment_424" d="M 350,305 L 351,305 L 352,305" />
    <path id="segment_425" d="M 363,305 L 364,305" />
    <path id="segment_426" d="M 283,306 L 284,306 L 285,307 L 286,308 L 286,309 L 286,310 L 286,311 L 286,312 L 286,313 L 286,314 L 287,315 L 288,316 L 288,317 L 289,318 L 290,319 L 290,320" />
    <path id="segment_427" d="M 347,306 L 346,307 L 346,308 L 346,309 L 346,310 L 346,311 L 345,312 L 344,312 L 343,312 L 342,312 L 341,313 L 340,313 L 339,314 L 338,315 L 337,315 L 336,316 L 336,317 L 336,318 L 335,319 L 335,320 L 334,321" />
    <path id="segment_428" d="M 227,307 L 227,308" />
    <path id="segment_429" d="M 264,307 L 264,308" />
    <path id="segment_430" d="M 265,307 L 265,308 L 265,309 L 265,310 L 265,311 L 265,312 L 265,313 L 265,314 L 265,315 L 265,316 L 265,317" />
    <path id="segment_431" d="M 309,307 L 310,308 L 310,309 L 311,310 L 312,311 L 312,312 L 313,313 L 314,314 L 314,315 L 313,316" />
    <path id="segment_432" d="M 362,307 L 362,308 L 362,309 L 362,310 L 362,311 L 362,312 L 362,313 L 362,314 L 361,315" />
    <path id="segment_433" d="M 263,309 L 262,310 L 261,310 L 260,310 L 259,310 L 258,310 L 257,311 L 257,312 L 256,313 L 255,314 L 255,315 L 254,316 L 253,317 L 252,318 L 251,319" />
    <path id="segment_434" d="M 31,310 L 30,311 L 31,312 L 31,313 L 31,314 L 31,315 L 32,316 L 32,317 L 32,318 L 32,319 L 32,320 L 32,321 L 32,322 L 32,323 L 32,324 L 31,325 L 31,326 L 31,327 L 31,328 L 31,329 L 31,330 L 31,331 L 31,332 L 31,333 L 31,334 L 31,335 L 31,336 L 30,337 L 30,338 L 30,339 L 30,340 L 29,341 L 29,342 L 29,343 L 29,344 L 29,345 L 29,346 L 29,347 L 29,348 L 28,349 L 28,350 L 28,351 L 28,352" />
    <path id="segment_435" d="M 307,310 L 307,311" />
    <path id="segment_436" d="M 229,311 L 229,312 L 229,313 L 229,314 L 229,315 L 229,316 L 229,317 L 229,318 L 229,319 L 230,320 L 231,321 L 231,322 L 232,323 L 233,324 L 233,325 L 233,326 L 233,327 L 233,328 L 233,329 L 233,330 L 234,331 L 234,332 L 234,333 L 234,334 L 234,335 L 234,336 L 234,337 L 234,338 L 234,339 L 234,340 L 234,341 L 234,342 L 234,343 L 234,344 L 234,345 L 234,346 L 233,347" />
    <path id="segment_437" d="M 308,311 L 307,312" />
    <path id="segment_438" d="M 176,312 L 175,313" />
    <path id="segment_439" d="M 308,312 L 309,313 L 310,314 L 310,315 L 311,316 L 312,316" />
    <path id="segment_440" d="M 380,312 L 379,313" />
    <path id="segment_441" d="M 381,312 L 382,312 L 383,312 L 384,312 L 385,312 L 386,312 L 387,312 L 388,312 L 389,312 L 390,312 L 391,312" />
    <path id="segment_442" d="M 394,312 L 393,313" />
    <path id="segment_443" d="M 177,313 L 177,314 L 177,315 L 178,316 L 178,317 L 178,318" />
    <path id="segment_444" d="M 306,313 L 305,314 L 304,315 L 304,316 L 303,317 L 302,318 L 301,319 L 300,319 L 299,319 L 298,319 L 297,319 L 296,319 L 295,319 L 294,320 L 293,320 L 292,320 L 291,320" />
    <path id="segment_445" d="M 394,313 L 395,313" />
    <path id="segment_446" d="M 396,313 L 395,314 L 395,315 L 395,316 L 395,317 L 395,318 L 395,319 L 394,320 L 394,321 L 394,322 L 394,323" />
    <path id="segment_447" d="M 175,314 L 175,315 L 175,316 L 175,317 L 176,318 L 176,319 L 176,320 L 176,321 L 176,322 L 176,323 L 176,324 L 176,325 L 176,326 L 176,327 L 176,328 L 176,329 L 175,330 L 175,331 L 175,332 L 174,333 L 173,334 L 172,335 L 171,336 L 170,337 L 170,338 L 169,339 L 168,340 L 167,341 L 166,342 L 165,343 L 164,343 L 163,343 L 162,344 L 161,345 L 160,346 L 160,347 L 160,348 L 160,349 L 160,350 L 160,351 L 160,352 L 160,353 L 160,354 L 160,355 L 159,356 L 159,357 L 158,358" />
    <path id="segment_448" d="M 379,314 L 379,315 L 378,316 L 378,317 L 377,318" />
    <path id="segment_449" d="M 362,315 L 361,316" />
    <path id="segment_450" d="M 363,315 L 364,315" />
    <path id="segment_451" d="M 193,316 L 192,317 L 191,317 L 190,317 L 189,317 L 188,318 L 187,318 L 186,318 L 185,319 L 184,319 L 183,319 L 182,319 L 181,319 L 180,319 L 179,318" />
    <path id="segment_452" d="M 195,316 L 195,317" />
    <path id="segment_453" d="M 314,316 L 315,316 L 316,316" />
    <path id="segment_454" d="M 266,317 L 266,318 L 267,319 L 267,320 L 267,321 L 267,322 L 267,323 L 267,324 L 267,325 L 267,326 L 267,327 L 267,328 L 267,329 L 267,330 L 267,331" />
    <path id="segment_455" d="M 316,317 L 316,318 L 316,319 L 316,320 L 316,321 L 316,322 L 316,323 L 316,324 L 315,325" />
    <path id="segment_456" d="M 358,317 L 357,318" />
    <path id="segment_457" d="M 359,317 L 360,317" />
    <path id="segment_458" d="M 365,317 L 365,318" />
    <path id="segment_459" d="M 366,317 L 367,317 L 368,317 L 369,317 L 370,317 L 371,317 L 372,317 L 373,318 L 374,318 L 375,318 L 376,318" />
    <path id="segment_460" d="M 259,318 L 258,319" />
    <path id="segment_461" d="M 260,318 L 261,318 L 262,318 L 263,318 L 264,318" />
    <path id="segment_462" d="M 378,318 L 378,319 L 378,320 L 378,321" />
    <path id="segment_463" d="M 252,319 L 251,320 L 251,321" />
    <path id="segment_464" d="M 257,319 L 256,320 L 255,320 L 254,320 L 253,321 L 252,321 L 251,322 L 251,323 L 251,324 L 251,325 L 251,326 L 251,327 L 251,328 L 251,329 L 251,330 L 252,331 L 252,332 L 253,333 L 253,334 L 253,335 L 254,336 L 254,337 L 254,338" />
    <path id="segment_465" d="M 349,319 L 349,320" />
    <path id="segment_466" d="M 355,319 L 354,320" />
    <path id="segment_467" d="M 356,319 L 357,319" />
    <path id="segment_468" d="M 365,319 L 365,320 L 365,321 L 365,322 L 365,323 L 365,324 L 365,325 L 365,326 L 364,327" />
    <path id="segment_469" d="M 198,320 L 198,321" />
    <path id="segment_470" d="M 199,320 L 200,320 L 201,320 L 202,321 L 203,322 L 204,323 L 205,323 L 206,324 L 207,325 L 208,326 L 209,327 L 210,328 L 211,329 L 212,329 L 213,330 L 214,331 L 215,332 L 214,333" />
    <path id="segment_471" d="M 350,320 L 349,321" />
    <path id="segment_472" d="M 351,320 L 351,321" />
    <path id="segment_473" d="M 352,320 L 352,321" />
    <path id="segment_474" d="M 353,320 L 354,320" />
    <path id="segment_475" d="M 291,321 L 290,322 L 290,323 L 290,324 L 289,325 L 289,326 L 288,327" />
    <path id="segment_476" d="M 330,321 L 329,322" />
    <path id="segment_477" d="M 331,321 L 332,321 L 333,321" />
    <path id="segment_478" d="M 335,321 L 336,321 L 337,321 L 338,322 L 339,322 L 340,323 L 340,324" />
    <path id="segment_479" d="M 379,321 L 378,322" />
    <path id="segment_480" d="M 198,322 L 198,323 L 198,324 L 198,325 L 198,326 L 198,327 L 198,328 L 198,329 L 198,330 L 199,331 L 199,332 L 199,333 L 199,334 L 199,335" />
    <path id="segment_481" d="M 349,322 L 349,323" />
    <path id="segment_482" d="M 353,322 L 354,323 L 355,324 L 356,324 L 357,325 L 358,326 L 359,326 L 360,327 L 361,327 L 362,327 L 363,327" />
    <path id="segment_483" d="M 379,322 L 378,323" />
    <path id="segment_484" d="M 329,323 L 328,324 L 327,324 L 326,325 L 325,326" />
    <path id="segment_485" d="M 350,323 L 350,324 L 350,325 L 350,326 L 351,327 L 351,328 L 351,329 L 351,330 L 351,331 L 351,332 L 350,333 L 350,334 L 350,335 L 350,336 L 351,337 L 351,338 L 351,339 L 352,340 L 352,341 L 352,342 L 352,343" />
    <path id="segment_486" d="M 379,323 L 378,324" />
    <path id="segment_487" d="M 395,323 L 396,323" />
    <path id="segment_488" d="M 341,324 L 341,325" />
    <path id="segment_489" d="M 342,324 L 343,324 L 344,324 L 345,324 L 346,324 L 347,324 L 348,324" />
    <path id="segment_490" d="M 380,324 L 380,325 L 380,326 L 380,327 L 381,328 L 381,329 L 381,330 L 381,331 L 381,332 L 381,333 L 381,334 L 381,335" />
    <path id="segment_491" d="M 316,325 L 317,325 L 318,326 L 319,326 L 320,326 L 321,326 L 322,326 L 323,326 L 324,326" />
    <path id="segment_492" d="M 378,325 L 378,326 L 377,327 L 376,327 L 375,327 L 374,327 L 373,327 L 372,327 L 371,327 L 370,328 L 369,328 L 368,328 L 367,328 L 366,328" />
    <path id="segment_493" d="M 314,326 L 313,327 L 312,327 L 311,327 L 310,328 L 309,328 L 308,328" />
    <path id="segment_494" d="M 326,326 L 326,327 L 327,328 L 327,329 L 327,330 L 328,331 L 328,332 L 329,333 L 329,334 L 329,335" />
    <path id="segment_495" d="M 341,326 L 340,327 L 340,328 L 340,329 L 340,330 L 340,331 L 340,332 L 339,333 L 338,334 L 337,335 L 336,335 L 335,335 L 334,335 L 333,335 L 332,335 L 331,335 L 330,335 L 329,336 L 329,337 L 329,338 L 328,339 L 328,340 L 328,341 L 328,342 L 328,343 L 328,344 L 328,345 L 328,346 L 328,347 L 328,348 L 327,349" />
    <path id="segment_496" d="M 136,327 L 136,328 L 135,329" />
    <path id="segment_497" d="M 285,327 L 284,328" />
    <path id="segment_498" d="M 286,327 L 287,327" />
    <path id="segment_499" d="M 289,327 L 289,328 L 290,329 L 290,330 L 290,331 L 291,332 L 291,333 L 291,334 L 291,335 L 291,336 L 290,337" />
    <path id="segment_500" d="M 365,327 L 366,327" />
    <path id="segment_501" d="M 273,328 L 272,329" />
    <path id="segment_502" d="M 274,328 L 275,328 L 276,329 L 277,329 L 278,329 L 279,329" />
    <path id="segment_503" d="M 281,328 L 280,329" />
    <path id="segment_504" d="M 282,328 L 283,328" />
    <path id="segment_505" d="M 137,329 L 137,330 L 137,331 L 138,332 L 138,333 L 139,334 L 139,335 L 139,336 L 139,337 L 140,338 L 141,339 L 142,340 L 143,341 L 143,342 L 144,343 L 145,344 L 146,345 L 146,346 L 146,347 L 146,348 L 146,349 L 146,350 L 146,351 L 146,352 L 146,353 L 146,354 L 146,355 L 146,356" />
    <path id="segment_506" d="M 216,329 L 216,330" />
    <path id="segment_507" d="M 271,329 L 270,330 L 269,330 L 268,331 L 267,332 L 266,332" />
    <path id="segment_508" d="M 308,329 L 308,330 L 308,331 L 308,332 L 307,333 L 307,334 L 306,335" />
    <path id="segment_509" d="M 366,329 L 366,330 L 366,331 L 366,332 L 366,333 L 366,334 L 366,335 L 366,336 L 366,337 L 366,338 L 366,339 L 365,340" />
    <path id="segment_510" d="M 134,330 L 133,331 L 132,332 L 131,333 L 130,334 L 129,335 L 128,336 L 128,337 L 127,338 L 126,339 L 125,340 L 124,341 L 123,342 L 122,343 L 121,344 L 121,345 L 121,346 L 120,347 L 120,348 L 119,349 L 118,350 L 117,351 L 117,352 L 116,353 L 116,354 L 116,355 L 115,356 L 115,357 L 115,358 L 115,359 L 115,360 L 115,361 L 115,362 L 115,363 L 114,364 L 114,365" />
    <path id="segment_511" d="M 217,330 L 216,331" />
    <path id="segment_512" d="M 279,330 L 279,331 L 279,332 L 280,333 L 280,334 L 280,335 L 280,336 L 280,337 L 280,338 L 280,339 L 280,340" />
    <path id="segment_513" d="M 217,331 L 218,332 L 218,333 L 219,334 L 219,335 L 220,336 L 220,337 L 221,338 L 221,339 L 221,340 L 221,341 L 221,342 L 221,343 L 221,344 L 221,345 L 220,346 L 219,347" />
    <path id="segment_514" d="M 265,332 L 264,333 L 263,334 L 262,334 L 261,335 L 260,335 L 259,336 L 258,336" />
    <path id="segment_515" d="M 213,333 L 212,334 L 211,335 L 210,335 L 209,336 L 208,336 L 207,336 L 206,336 L 205,336 L 204,336 L 203,336 L 202,336" />
    <path id="segment_516" d="M 215,333 L 216,333" />
    <path id="segment_517" d="M 267,333 L 267,334 L 267,335 L 267,336 L 266,337" />
    <path id="segment_518" d="M 200,335 L 201,336 L 202,337 L 202,338 L 202,339 L 202,340 L 202,341 L 202,342 L 202,343 L 202,344 L 202,345 L 202,346 L 202,347 L 202,348 L 202,349 L 202,350 L 201,351" />
    <path id="segment_519" d="M 300,335 L 299,336" />
    <path id="segment_520" d="M 301,335 L 302,335 L 303,335 L 304,335 L 305,335" />
    <path id="segment_521" d="M 307,335 L 307,336 L 308,337 L 308,338 L 308,339 L 309,340 L 309,341 L 309,342" />
    <path id="segment_522" d="M 382,335 L 383,335 L 384,335 L 385,335 L 386,335 L 387,336 L 388,337 L 388,338 L 388,339 L 389,340 L 389,341 L 389,342 L 389,343 L 389,344 L 390,345 L 389,346" />
    <path id="segment_523" d="M 195,336 L 194,337" />
    <path id="segment_524" d="M 196,336 L 197,336 L 198,336" />
    <path id="segment_525" d="M 296,336 L 295,337" />
    <path id="segment_526" d="M 297,336 L 298,336" />
    <path id="segment_527" d="M 192,337 L 191,338" />
    <path id="segment_528" d="M 193,337 L 194,337" />
    <path id="segment_529" d="M 256,337 L 255,338" />
    <path id="segment_530" d="M 257,337 L 256,338" />
    <path id="segment_531" d="M 259,337 L 258,338" />
    <path id="segment_532" d="M 260,337 L 261,337 L 262,337 L 263,337 L 264,337 L 265,337" />
    <path id="segment_533" d="M 267,337 L 268,338 L 268,339 L 268,340 L 268,341 L 269,342 L 269,343" />
    <path id="segment_534" d="M 292,337 L 291,338" />
    <path id="segment_535" d="M 293,337 L 294,337" />
    <path id="segment_536" d="M 257,338 L 258,338" />
    <path id="segment_537" d="M 290,338 L 289,339" />
    <path id="segment_538" d="M 189,339 L 188,340" />
    <path id="segment_539" d="M 190,339 L 191,339" />
    <path id="segment_540" d="M 254,339 L 254,340 L 254,341 L 254,342 L 254,343 L 254,344 L 254,345 L 254,346 L 254,347 L 254,348 L 254,349 L 254,350 L 254,351 L 254,352 L 255,353 L 255,354 L 255,355" />
    <path id="segment_541" d="M 290,339 L 291,339 L 292,340 L 293,341 L 293,342 L 294,343 L 295,344 L 296,345 L 296,346 L 296,347 L 297,348 L 297,349 L 297,350" />
    <path id="segment_542" d="M 281,340 L 282,340 L 283,340 L 284,340 L 285,340 L 286,340 L 287,340 L 288,340" />
    <path id="segment_543" d="M 366,340 L 366,341" />
    <path id="segment_544" d="M 187,341 L 186,342 L 185,342 L 184,342 L 183,343 L 182,344 L 182,345 L 182,346 L 182,347 L 182,348 L 181,349 L 181,350 L 181,351 L 181,352 L 180,353 L 180,354 L 180,355 L 180,356 L 181,357 L 182,358 L 182,359 L 183,360 L 184,361 L 184,362 L 184,363 L 184,364" />
    <path id="segment_545" d="M 271,341 L 270,342" />
    <path id="segment_546" d="M 272,341 L 273,341 L 274,341 L 275,341 L 276,341 L 277,341 L 278,341 L 279,341" />
    <path id="segment_547" d="M 362,341 L 361,342" />
    <path id="segment_548" d="M 363,341 L 364,341" />
    <path id="segment_549" d="M 367,341 L 366,342" />
    <path id="segment_550" d="M 368,341 L 369,341 L 370,341 L 371,341 L 372,341 L 373,341 L 374,341 L 375,341 L 376,341 L 377,341 L 378,342 L 378,343 L 378,344 L 379,345 L 380,346 L 380,347 L 381,348 L 382,349 L 382,350" />
    <path id="segment_551" d="M 279,342 L 279,343 L 279,344 L 279,345 L 279,346 L 279,347 L 279,348 L 279,349 L 279,350 L 279,351 L 280,352 L 280,353 L 280,354 L 280,355 L 280,356 L 280,357 L 280,358" />
    <path id="segment_552" d="M 310,342 L 309,343" />
    <path id="segment_553" d="M 311,342 L 312,342 L 313,342 L 314,342 L 315,342 L 316,342 L 317,342 L 318,342 L 319,342 L 320,343 L 321,344 L 322,345 L 323,345 L 324,346 L 325,347 L 326,348 L 325,349" />
    <path id="segment_554" d="M 359,342 L 358,343" />
    <path id="segment_555" d="M 360,342 L 361,342" />
    <path id="segment_556" d="M 353,343 L 352,344" />
    <path id="segment_557" d="M 354,343 L 355,343 L 356,343 L 357,343" />
    <path id="segment_558" d="M 365,343 L 364,344 L 364,345 L 363,346 L 362,347 L 361,348 L 360,349 L 359,350 L 359,351 L 358,352 L 357,353 L 356,354 L 355,354 L 354,354 L 353,355 L 352,355" />
    <path id="segment_559" d="M 268,344 L 268,345 L 268,346 L 267,347 L 267,348 L 267,349 L 266,350 L 266,351 L 265,352 L 264,353" />
    <path id="segment_560" d="M 309,344 L 309,345 L 309,346 L 308,347 L 308,348 L 307,349" />
    <path id="segment_561" d="M 352,345 L 351,346 L 351,347 L 351,348 L 350,349 L 350,350 L 350,351 L 350,352 L 350,353 L 350,354 L 351,355 L 351,356 L 350,357 L 350,358 L 350,359 L 350,360 L 350,361 L 350,362 L 349,363" />
    <path id="segment_562" d="M 226,346 L 225,347" />
    <path id="segment_563" d="M 227,346 L 228,346 L 229,346 L 230,346 L 231,346 L 232,346" />
    <path id="segment_564" d="M 390,346 L 389,347" />
    <path id="segment_565" d="M 391,346 L 392,346 L 393,346 L 394,346 L 395,346 L 396,346 L 397,346 L 398,347 L 398,348 L 398,349 L 398,350 L 398,351 L 398,352 L 398,353 L 398,354 L 398,355 L 398,356 L 398,357 L 398,358 L 397,359 L 396,359 L 395,360 L 394,360 L 393,361 L 392,361 L 391,362 L 390,362 L 389,362 L 388,363 L 387,363 L 386,363 L 385,363" />
    <path id="segment_566" d="M 220,347 L 221,347 L 222,347 L 223,347 L 224,347" />
    <path id="segment_567" d="M 234,347 L 233,348" />
    <path id="segment_568" d="M 388,347 L 387,348 L 386,349 L 385,350 L 384,350 L 383,350 L 382,351 L 382,352 L 382,353 L 381,354 L 381,355 L 381,356 L 380,357 L 379,358" />
    <path id="segment_569" d="M 234,348 L 233,349" />
    <path id="segment_570" d="M 234,349 L 233,350" />
    <path id="segment_571" d="M 303,349 L 302,350" />
    <path id="segment_572" d="M 304,349 L 305,349 L 306,349" />
    <path id="segment_573" d="M 308,349 L 308,350" />
    <path id="segment_574" d="M 321,349 L 320,350" />
    <path id="segment_575" d="M 322,349 L 323,349 L 324,349" />
    <path id="segment_576" d="M 326,349 L 327,349" />
    <path id="segment_577" d="M 328,349 L 328,350 L 328,351 L 329,352 L 329,353 L 329,354 L 329,355 L 329,356 L 329,357 L 329,358 L 329,359 L 329,360 L 329,361 L 329,362 L 329,363 L 329,364 L 328,365" />
    <path id="segment_578" d="M 234,350 L 233,351" />
    <path id="segment_579" d="M 298,350 L 299,350 L 300,350 L 301,350" />
    <path id="segment_580" d="M 309,350 L 310,351 L 311,352 L 311,353 L 312,354 L 313,355 L 314,355 L 315,355" />
    <path id="segment_581" d="M 202,351 L 201,352" />
    <path id="segment_582" d="M 203,351 L 204,352 L 205,352 L 206,353 L 207,353 L 208,353" />
    <path id="segment_583" d="M 234,351 L 234,352 L 234,353 L 234,354" />
    <path id="segment_584" d="M 296,351 L 296,352 L 296,353 L 295,354 L 294,355" />
    <path id="segment_585" d="M 319,351 L 318,352 L 317,353 L 316,354 L 316,355 L 315,356 L 315,357 L 315,358 L 315,359 L 315,360 L 316,361 L 316,362 L 316,363 L 316,364 L 316,365 L 316,366 L 317,367 L 317,368" />
    <path id="segment_586" d="M 29,352 L 29,353" />
    <path id="segment_587" d="M 24,353 L 23,354" />
    <path id="segment_588" d="M 25,353 L 26,353 L 27,353" />
    <path id="segment_589" d="M 30,353 L 31,354 L 32,354 L 33,354 L 34,354 L 35,354 L 36,355 L 37,355 L 38,355 L 39,355" />
    <path id="segment_590" d="M 200,353 L 200,354 L 200,355 L 199,356 L 198,357 L 197,358 L 196,359 L 196,360 L 195,361 L 194,362 L 193,363 L 192,364 L 191,364 L 190,364 L 189,364 L 188,364 L 187,364 L 186,364 L 185,364 L 184,365 L 184,366 L 184,367 L 185,368 L 185,369 L 186,370 L 186,371 L 187,372 L 187,373 L 188,374 L 188,375 L 187,376" />
    <path id="segment_591" d="M 209,353 L 208,354" />
    <path id="segment_592" d="M 210,353 L 211,354 L 212,355 L 213,356 L 214,357 L 215,358 L 216,359 L 217,360 L 218,361 L 219,362 L 220,363 L 221,364 L 221,365 L 221,366 L 220,367" />
    <path id="segment_593" d="M 260,353 L 259,354" />
    <path id="segment_594" d="M 261,353 L 262,353 L 263,353" />
    <path id="segment_595" d="M 265,353 L 266,353" />
    <path id="segment_596" d="M 22,354 L 21,355 L 20,356 L 19,357 L 18,357 L 17,358 L 16,359 L 15,360 L 14,360 L 13,361 L 12,361 L 11,361 L 10,362 L 9,363 L 8,363 L 7,364 L 6,365 L 5,365 L 4,365" />
    <path id="segment_597" d="M 235,354 L 234,355" />
    <path id="segment_598" d="M 258,354 L 257,355 L 256,355 L 255,356 L 254,356" />
    <path id="segment_599" d="M 40,355 L 39,356 L 39,357 L 38,358 L 38,359 L 38,360 L 38,361 L 38,362 L 38,363 L 38,364 L 39,365 L 39,366 L 39,367 L 39,368 L 39,369 L 38,370" />
    <path id="segment_600" d="M 208,355 L 208,356 L 208,357 L 208,358 L 208,359 L 208,360 L 208,361 L 208,362 L 208,363 L 208,364 L 208,365 L 208,366 L 208,367 L 208,368" />
    <path id="segment_601" d="M 235,355 L 234,356" />
    <path id="segment_602" d="M 287,355 L 286,356" />
    <path id="segment_603" d="M 288,355 L 289,355 L 290,355 L 291,355 L 292,355 L 293,355" />
    <path id="segment_604" d="M 295,355 L 295,356 L 295,357 L 295,358 L 295,359 L 295,360 L 295,361 L 294,362 L 294,363 L 294,364 L 294,365 L 293,366 L 293,367 L 293,368 L 293,369 L 293,370 L 293,371 L 293,372 L 293,373" />
    <path id="segment_605" d="M 147,356 L 148,357 L 149,357 L 150,357 L 151,357 L 152,357 L 153,357 L 154,358 L 155,358 L 156,358 L 157,358" />
    <path id="segment_606" d="M 235,356 L 234,357" />
    <path id="segment_607" d="M 285,356 L 284,357 L 283,357 L 282,357 L 281,358 L 280,359" />
    <path id="segment_608" d="M 353,356 L 354,357 L 355,358 L 356,358 L 357,359 L 358,360 L 358,361 L 358,362" />
    <path id="segment_609" d="M 143,357 L 142,358" />
    <path id="segment_610" d="M 144,357 L 145,357" />
    <path id="segment_611" d="M 235,357 L 235,358 L 235,359 L 235,360 L 235,361 L 235,362 L 235,363" />
    <path id="segment_612" d="M 252,357 L 251,358" />
    <path id="segment_613" d="M 253,357 L 254,357" />
    <path id="segment_614" d="M 255,357 L 256,357" />
    <path id="segment_615" d="M 159,358 L 159,359 L 159,360 L 160,361 L 160,362 L 160,363 L 159,364" />
    <path id="segment_616" d="M 250,358 L 249,359 L 248,359 L 247,360 L 246,360 L 245,361 L 244,361 L 243,362 L 242,362 L 241,363 L 240,363 L 239,363 L 238,363 L 237,363 L 236,363" />
    <path id="segment_617" d="M 256,358 L 256,359 L 256,360" />
    <path id="segment_618" d="M 377,358 L 376,359" />
    <path id="segment_619" d="M 378,358 L 379,358" />
    <path id="segment_620" d="M 380,358 L 381,358" />
    <path id="segment_621" d="M 141,359 L 140,360 L 139,361 L 138,362 L 137,362 L 136,363 L 135,364 L 134,365 L 133,366 L 132,366" />
    <path id="segment_622" d="M 281,359 L 280,360 L 279,360" />
    <path id="segment_623" d="M 375,359 L 374,360 L 373,360 L 372,360 L 371,361 L 370,361 L 369,362 L 368,362 L 367,362 L 366,362 L 365,363 L 364,363 L 363,363 L 362,362 L 361,362 L 360,362 L 359,362" />
    <path id="segment_624" d="M 257,360 L 256,361" />
    <path id="segment_625" d="M 277,360 L 276,361" />
    <path id="segment_626" d="M 278,360 L 279,360" />
    <path id="segment_627" d="M 257,361 L 256,362" />
    <path id="segment_628" d="M 272,361 L 271,362" />
    <path id="segment_629" d="M 273,361 L 274,361 L 275,361" />
    <path id="segment_630" d="M 280,361 L 281,362 L 281,363 L 281,364 L 281,365 L 282,366 L 282,367 L 282,368 L 281,369 L 281,370 L 281,371 L 281,372 L 281,373 L 281,374 L 280,375" />
    <path id="segment_631" d="M 258,362 L 258,363 L 258,364 L 259,365 L 259,366 L 260,367 L 260,368 L 260,369 L 260,370 L 260,371 L 260,372 L 261,373 L 262,374 L 263,374 L 264,374 L 265,374 L 266,375 L 267,375" />
    <path id="segment_632" d="M 342,362 L 341,363" />
    <path id="segment_633" d="M 343,362 L 344,362 L 345,362 L 346,362 L 347,362 L 348,362" />
    <path id="segment_634" d="M 255,363 L 255,364 L 254,365 L 253,366 L 253,367 L 252,368 L 252,369 L 251,370 L 251,371 L 251,372 L 252,373 L 252,374 L 252,375 L 252,376 L 252,377 L 252,378 L 252,379 L 252,380 L 252,381 L 252,382 L 253,383 L 253,384" />
    <path id="segment_635" d="M 271,363 L 271,364 L 271,365 L 271,366 L 271,367 L 271,368 L 271,369 L 270,370 L 270,371 L 270,372 L 270,373 L 269,374" />
    <path id="segment_636" d="M 338,363 L 337,364" />
    <path id="segment_637" d="M 339,363 L 340,363" />
    <path id="segment_638" d="M 350,363 L 349,364" />
    <path id="segment_639" d="M 351,363 L 352,363 L 353,363 L 354,363 L 355,363 L 356,363 L 357,363" />
    <path id="segment_640" d="M 160,364 L 161,364 L 162,364 L 163,364 L 164,364 L 165,364 L 166,365 L 167,364" />
    <path id="segment_641" d="M 168,364 L 167,365" />
    <path id="segment_642" d="M 169,364 L 170,365 L 171,365 L 172,366 L 173,366 L 174,367 L 175,367 L 176,368 L 177,368 L 178,369 L 179,369 L 180,370 L 181,370" />
    <path id="segment_643" d="M 334,364 L 333,365" />
    <path id="segment_644" d="M 335,364 L 336,364" />
    <path id="segment_645" d="M 385,364 L 386,365 L 386,366" />
    <path id="segment_646" d="M 115,365 L 114,366" />
    <path id="segment_647" d="M 157,365 L 156,366" />
    <path id="segment_648" d="M 158,365 L 159,365" />
    <path id="segment_649" d="M 330,365 L 329,366" />
    <path id="segment_650" d="M 331,365 L 332,365" />
    <path id="segment_651" d="M 349,365 L 349,366 L 349,367 L 349,368 L 349,369 L 349,370 L 349,371 L 349,372 L 349,373 L 348,374" />
    <path id="segment_652" d="M 4,366 L 4,367 L 4,368 L 4,369 L 4,370 L 4,371 L 3,372 L 3,373 L 3,374 L 3,375 L 3,376 L 3,377 L 3,378 L 3,379 L 3,380 L 3,381 L 3,382 L 3,383 L 2,384 L 2,385 L 2,386 L 2,387 L 2,388 L 2,389 L 2,390" />
    <path id="segment_653" d="M 113,366 L 112,367 L 111,368 L 110,369 L 109,369 L 108,370 L 107,371 L 106,372 L 105,373 L 104,374 L 103,375 L 102,376 L 101,377 L 100,377 L 99,378 L 98,379 L 97,380 L 96,381 L 95,381 L 94,381 L 93,381 L 92,381 L 91,381 L 90,381 L 89,381 L 88,381 L 87,381 L 86,381 L 85,381 L 84,381 L 83,380 L 82,380 L 81,380 L 80,380 L 79,379 L 78,379 L 77,379 L 76,379 L 75,379 L 74,378 L 73,378 L 72,378 L 71,378 L 70,377 L 69,377 L 68,377 L 67,377 L 66,377 L 65,376 L 64,376 L 63,376 L 62,376 L 61,375 L 60,375 L 59,375 L 58,375 L 57,375 L 56,375 L 55,374 L 54,374 L 53,374 L 52,374 L 51,373 L 50,373 L 49,373 L 48,372 L 47,372 L 46,372 L 45,372 L 44,371 L 43,371 L 42,371 L 41,371 L 40,370 L 39,370" />
    <path id="segment_654" d="M 116,366 L 117,366 L 118,366 L 119,366 L 120,366 L 121,366 L 122,366 L 123,366 L 124,366 L 125,366 L 126,366 L 127,366 L 128,366 L 129,366 L 130,366 L 131,366 L 132,367 L 132,368 L 132,369 L 132,370 L 133,371 L 133,372 L 133,373 L 134,374 L 135,375 L 136,375 L 137,376 L 137,377" />
    <path id="segment_655" d="M 167,366 L 167,367" />
    <path id="segment_656" d="M 328,366 L 327,367" />
    <path id="segment_657" d="M 387,366 L 386,367" />
    <path id="segment_658" d="M 155,367 L 154,368 L 153,369 L 152,369 L 151,370 L 150,371 L 150,372 L 150,373 L 149,374 L 148,374 L 147,375 L 146,375 L 145,375 L 144,375 L 143,375 L 142,376 L 141,376 L 140,377 L 139,377 L 138,377" />
    <path id="segment_659" d="M 168,367 L 167,368" />
    <path id="segment_660" d="M 212,367 L 211,368" />
    <path id="segment_661" d="M 213,367 L 214,367 L 215,367 L 216,367 L 217,367 L 218,367 L 219,367" />
    <path id="segment_662" d="M 222,367 L 223,367 L 224,367 L 225,368 L 226,368 L 227,368 L 228,369 L 229,369 L 230,369" />
    <path id="segment_663" d="M 328,367 L 329,368 L 329,369 L 329,370 L 330,371 L 330,372 L 330,373" />
    <path id="segment_664" d="M 388,367 L 389,368 L 389,369 L 390,370 L 391,371 L 392,372 L 393,373 L 394,374 L 395,375 L 396,376 L 396,377 L 397,378 L 398,379 L 399,380 L 399,381 L 399,382 L 398,383 L 397,384 L 397,385 L 396,386 L 395,386 L 394,386 L 393,386 L 392,386 L 391,386" />
    <path id="segment_665" d="M 168,368 L 167,369" />
    <path id="segment_666" d="M 209,368 L 210,368 L 211,369 L 212,369 L 213,370 L 214,370 L 215,371 L 216,371 L 217,372 L 218,372 L 219,373 L 220,373 L 221,374 L 222,374 L 223,375 L 224,375 L 225,376 L 226,376 L 227,376 L 228,376 L 229,376 L 230,376 L 231,375" />
    <path id="segment_667" d="M 318,368 L 317,369" />
    <path id="segment_668" d="M 319,368 L 320,368 L 321,368 L 322,368 L 323,368 L 324,368 L 325,368 L 326,368" />
    <path id="segment_669" d="M 386,368 L 386,369 L 386,370 L 386,371 L 385,372 L 385,373 L 385,374 L 385,375 L 385,376 L 385,377 L 385,378 L 385,379 L 385,380 L 385,381 L 384,382" />
    <path id="segment_670" d="M 169,369 L 170,370 L 171,371 L 172,372 L 173,373 L 173,374 L 174,375 L 175,376 L 174,377" />
    <path id="segment_671" d="M 37,370 L 36,371 L 35,372 L 34,373 L 33,373 L 32,374 L 31,375 L 30,375 L 29,376 L 28,376 L 27,376" />
    <path id="segment_672" d="M 167,370 L 167,371 L 168,372 L 168,373 L 168,374 L 168,375 L 169,376 L 170,376 L 171,377 L 172,377 L 173,377" />
    <path id="segment_673" d="M 230,370 L 230,371 L 230,372 L 230,373 L 231,374 L 232,374 L 233,374 L 234,374 L 235,374 L 236,375 L 237,376 L 238,377 L 239,377 L 240,378 L 241,379 L 242,380 L 243,381 L 244,382 L 245,383 L 246,384 L 247,384 L 248,385 L 249,386 L 249,387" />
    <path id="segment_674" d="M 317,370 L 317,371 L 316,372 L 316,373 L 315,374" />
    <path id="segment_675" d="M 39,371 L 38,372 L 38,373 L 37,374 L 36,375 L 35,376 L 34,377 L 33,378 L 33,379 L 32,380 L 31,381 L 30,382 L 29,383 L 29,384 L 28,385 L 27,386 L 26,387 L 25,388 L 25,389 L 24,390 L 23,391 L 22,392 L 21,393 L 20,394 L 19,393" />
    <path id="segment_676" d="M 181,371 L 181,372 L 181,373 L 181,374 L 182,375 L 183,375 L 184,375 L 185,375 L 186,376" />
    <path id="segment_677" d="M 333,372 L 332,373" />
    <path id="segment_678" d="M 334,372 L 335,372 L 336,372 L 337,372 L 338,372 L 339,372 L 340,373 L 341,373 L 342,373 L 343,373 L 344,373 L 345,373 L 346,374 L 347,374" />
    <path id="segment_679" d="M 294,373 L 293,374" />
    <path id="segment_680" d="M 331,373 L 330,374 L 330,375 L 330,376 L 330,377 L 330,378 L 329,379" />
    <path id="segment_681" d="M 268,374 L 269,374" />
    <path id="segment_682" d="M 270,374 L 271,374 L 272,374 L 273,374 L 274,374 L 275,375 L 276,375 L 277,375 L 278,375 L 279,375" />
    <path id="segment_683" d="M 295,374 L 296,374 L 297,374 L 298,374 L 299,374 L 300,374 L 301,374 L 302,374 L 303,374 L 304,374 L 305,374 L 306,374 L 307,374 L 308,374 L 309,374 L 310,374 L 311,374 L 312,374 L 313,374 L 314,375 L 314,376 L 314,377 L 314,378 L 314,379 L 313,380 L 313,381 L 313,382 L 313,383 L 313,384 L 312,385 L 312,386 L 312,387 L 311,388 L 310,388 L 309,388 L 308,388 L 307,389 L 306,390 L 305,390 L 304,391 L 303,392 L 303,393 L 303,394 L 303,395 L 303,396" />
    <path id="segment_684" d="M 316,374 L 317,374" />
    <path id="segment_685" d="M 333,374 L 334,374 L 335,374 L 336,375 L 337,375 L 338,375 L 339,376 L 340,376 L 341,376 L 342,376 L 343,376 L 344,376 L 345,376 L 346,376 L 347,376 L 348,376 L 349,375 L 349,374" />
    <path id="segment_686" d="M 195,375 L 194,376" />
    <path id="segment_687" d="M 196,375 L 197,375 L 198,375 L 199,375 L 200,375 L 201,375" />
    <path id="segment_688" d="M 281,375 L 282,375 L 283,375 L 284,375 L 285,376 L 286,376 L 287,376 L 288,376 L 289,376 L 290,377 L 290,378 L 291,379 L 291,380 L 291,381 L 291,382 L 291,383 L 291,384 L 291,385 L 290,386 L 289,387" />
    <path id="segment_689" d="M 317,375 L 318,375 L 319,376 L 320,376 L 321,377 L 322,377 L 323,378 L 324,378 L 325,378 L 326,378 L 327,379 L 328,379" />
    <path id="segment_690" d="M 350,375 L 351,375 L 352,375 L 353,375 L 354,375 L 355,375" />
    <path id="segment_691" d="M 189,376 L 188,377" />
    <path id="segment_692" d="M 193,376 L 192,377 L 191,377" />
    <path id="segment_693" d="M 201,376 L 201,377 L 202,378 L 202,379 L 202,380 L 202,381 L 202,382 L 201,383" />
    <path id="segment_694" d="M 231,376 L 231,377 L 231,378 L 231,379 L 231,380 L 231,381 L 232,382 L 232,383 L 232,384 L 232,385" />
    <path id="segment_695" d="M 267,376 L 267,377 L 267,378 L 267,379 L 267,380 L 267,381 L 267,382 L 266,383" />
    <path id="segment_696" d="M 279,376 L 279,377 L 278,378 L 277,378 L 276,379 L 275,379 L 274,380 L 273,380 L 272,381 L 271,382 L 270,382 L 269,383 L 268,383 L 267,383" />
    <path id="segment_697" d="M 355,376 L 355,377 L 355,378 L 356,379 L 357,380 L 358,380 L 359,381 L 360,382 L 360,383" />
    <path id="segment_698" d="M 27,377 L 26,378 L 26,379 L 25,380 L 25,381 L 24,382 L 24,383 L 23,384 L 23,385 L 22,386 L 22,387 L 21,388 L 21,389 L 20,390 L 20,391 L 19,392 L 18,391" />
    <path id="segment_699" d="M 175,377 L 176,377 L 177,377" />
    <path id="segment_700" d="M 189,377 L 189,378" />
    <path id="segment_701" d="M 138,378 L 138,379 L 139,380 L 139,381 L 139,382 L 140,383 L 141,384 L 141,385 L 141,386 L 142,387 L 142,388 L 143,389 L 143,390 L 143,391 L 143,392 L 143,393 L 143,394 L 143,395 L 143,396 L 143,397" />
    <path id="segment_702" d="M 177,378 L 178,379 L 178,380 L 178,381 L 178,382 L 178,383 L 178,384 L 178,385 L 178,386 L 178,387 L 178,388 L 178,389 L 177,390 L 177,391 L 177,392 L 176,393 L 175,394" />
    <path id="segment_703" d="M 190,378 L 190,379" />
    <path id="segment_704" d="M 191,378 L 192,378" />
    <path id="segment_705" d="M 330,379 L 331,380 L 331,381 L 331,382 L 331,383 L 332,384 L 332,385 L 332,386 L 332,387 L 332,388 L 332,389 L 332,390 L 332,391 L 332,392 L 332,393 L 333,394 L 333,395 L 333,396" />
    <path id="segment_706" d="M 190,380 L 190,381 L 190,382 L 190,383" />
    <path id="segment_707" d="M 258,382 L 257,383" />
    <path id="segment_708" d="M 259,382 L 260,382 L 261,382 L 262,382 L 263,382 L 264,382 L 265,383" />
    <path id="segment_709" d="M 375,382 L 374,383" />
    <path id="segment_710" d="M 376,382 L 377,382 L 378,382 L 379,382 L 380,382 L 381,382 L 382,382 L 383,382" />
    <path id="segment_711" d="M 385,382 L 386,382" />
    <path id="segment_712" d="M 159,383 L 159,384" />
    <path id="segment_713" d="M 160,383 L 161,383" />
    <path id="segment_714" d="M 191,383 L 192,383 L 193,383 L 194,383 L 195,383 L 196,383 L 197,383 L 198,383 L 199,383 L 200,383" />
    <path id="segment_715" d="M 202,383 L 202,384" />
    <path id="segment_716" d="M 254,383 L 255,383 L 256,383" />
    <path id="segment_717" d="M 361,383 L 360,384" />
    <path id="segment_718" d="M 362,383 L 363,383 L 364,383 L 365,384 L 366,384 L 367,384 L 368,384 L 369,383 L 370,383 L 371,383 L 372,383 L 373,383" />
    <path id="segment_719" d="M 189,384 L 189,385 L 189,386 L 189,387 L 189,388 L 188,389 L 188,390 L 188,391 L 188,392 L 188,393 L 188,394 L 187,395" />
    <path id="segment_720" d="M 203,384 L 203,385 L 204,386 L 204,387 L 205,388 L 205,389 L 205,390" />
    <path id="segment_721" d="M 267,384 L 267,385 L 267,386 L 267,387 L 267,388 L 267,389 L 267,390" />
    <path id="segment_722" d="M 359,384 L 358,385 L 357,386 L 356,386 L 355,387 L 354,387 L 353,388 L 352,388 L 351,388 L 350,388 L 349,388 L 348,389 L 347,389 L 346,390 L 345,390 L 344,391 L 343,391 L 342,392 L 341,392 L 340,393 L 339,393 L 338,394 L 337,394 L 336,395 L 335,395 L 334,396" />
    <path id="segment_723" d="M 159,385 L 159,386 L 158,387" />
    <path id="segment_724" d="M 233,385 L 234,385 L 235,385 L 236,385 L 237,385 L 238,385 L 239,386 L 240,386 L 241,387 L 242,387 L 243,388 L 244,388 L 245,388 L 246,388 L 247,388 L 248,388" />
    <path id="segment_725" d="M 231,386 L 231,387 L 231,388 L 230,389 L 229,390" />
    <path id="segment_726" d="M 159,387 L 158,388" />
    <path id="segment_727" d="M 250,387 L 251,387" />
    <path id="segment_728" d="M 283,387 L 282,388" />
    <path id="segment_729" d="M 284,387 L 285,387 L 286,387 L 287,387 L 288,387" />
    <path id="segment_730" d="M 290,387 L 290,388 L 291,389 L 292,390 L 293,391 L 293,392 L 293,393 L 293,394 L 293,395 L 293,396 L 293,397" />
    <path id="segment_731" d="M 391,387 L 391,388 L 391,389 L 391,390 L 391,391 L 391,392 L 390,393 L 390,394 L 390,395 L 390,396 L 390,397" />
    <path id="segment_732" d="M 95,388 L 96,388 L 97,388 L 98,388" />
    <path id="segment_733" d="M 159,388 L 158,389" />
    <path id="segment_734" d="M 251,388 L 251,389 L 251,390 L 251,391 L 251,392 L 251,393 L 251,394 L 251,395 L 251,396 L 251,397 L 251,398" />
    <path id="segment_735" d="M 280,388 L 279,389" />
    <path id="segment_736" d="M 281,388 L 282,388" />
    <path id="segment_737" d="M 9,389 L 8,390" />
    <path id="segment_738" d="M 10,389 L 11,389 L 12,389 L 13,389 L 14,389 L 15,389 L 16,389 L 17,389 L 18,390" />
    <path id="segment_739" d="M 159,389 L 158,390" />
    <path id="segment_740" d="M 277,389 L 276,390" />
    <path id="segment_741" d="M 278,389 L 279,389" />
    <path id="segment_742" d="M 3,390 L 4,390 L 5,390 L 6,390 L 7,390" />
    <path id="segment_743" d="M 159,390 L 160,390 L 161,391 L 162,391 L 163,391 L 164,392 L 165,392 L 166,392 L 167,392 L 168,393 L 169,393 L 170,393 L 171,393 L 172,393 L 173,393 L 174,393" />
    <path id="segment_744" d="M 206,390 L 207,390 L 208,390 L 209,390 L 210,390 L 211,390 L 212,390 L 213,391 L 214,391 L 215,391 L 216,392 L 217,393 L 218,393" />
    <path id="segment_745" d="M 225,390 L 224,391" />
    <path id="segment_746" d="M 226,390 L 227,390 L 228,390" />
    <path id="segment_747" d="M 230,390 L 231,391 L 231,392 L 231,393 L 231,394 L 231,395 L 231,396 L 231,397 L 231,398" />
    <path id="segment_748" d="M 268,390 L 267,391" />
    <path id="segment_749" d="M 269,390 L 270,390 L 271,390 L 272,390 L 273,390 L 274,390 L 275,390" />
    <path id="segment_750" d="M 315,390 L 314,391" />
    <path id="segment_751" d="M 316,390 L 316,391 L 316,392 L 316,393 L 316,394 L 317,395 L 317,396 L 317,397 L 318,398 L 319,398 L 320,398 L 321,398" />
    <path id="segment_752" d="M 157,391 L 157,392 L 157,393 L 157,394 L 157,395 L 156,396" />
    <path id="segment_753" d="M 204,391 L 204,392 L 204,393 L 203,394 L 203,395 L 203,396" />
    <path id="segment_754" d="M 223,391 L 222,392 L 221,393 L 220,393 L 219,393 L 218,394 L 218,395 L 218,396" />
    <path id="segment_755" d="M 313,391 L 312,392 L 311,392 L 310,393 L 309,393 L 308,394 L 307,394 L 306,395 L 305,395 L 304,396" />
    <path id="segment_756" d="M 18,392 L 18,393 L 18,394 L 18,395 L 18,396" />
    <path id="segment_757" d="M 267,392 L 267,393 L 267,394 L 267,395 L 267,396 L 267,397 L 267,398" />
    <path id="segment_758" d="M 176,394 L 175,395" />
    <path id="segment_759" d="M 20,395 L 19,396 L 18,397" />
    <path id="segment_760" d="M 176,395 L 175,396 L 175,397 L 175,398" />
    <path id="segment_761" d="M 186,395 L 185,396 L 184,396 L 183,396 L 182,396 L 181,397 L 180,397 L 179,397 L 178,397 L 177,398 L 176,398" />
    <path id="segment_762" d="M 188,395 L 189,395" />
    <path id="segment_763" d="M 147,396 L 146,397" />
    <path id="segment_764" d="M 148,396 L 149,396 L 150,396 L 151,396 L 152,396 L 153,396 L 154,396 L 155,396" />
    <path id="segment_765" d="M 157,396 L 158,396" />
    <path id="segment_766" d="M 144,397 L 145,397" />
  </g>
  <g id="endpoints" fill="blue">
    <circle cx="349" cy="30" r="3" id="endpoint_0" />
    <circle cx="376" cy="42" r="3" id="endpoint_1" />
    <circle cx="189" cy="129" r="3" id="endpoint_2" />
    <circle cx="349" cy="135" r="3" id="endpoint_3" />
    <circle cx="158" cy="158" r="3" id="endpoint_4" />
    <circle cx="170" cy="164" r="3" id="endpoint_5" />
    <circle cx="397" cy="187" r="3" id="endpoint_6" />
    <circle cx="40" cy="190" r="3" id="endpoint_7" />
    <circle cx="176" cy="193" r="3" id="endpoint_8" />
    <circle cx="261" cy="199" r="3" id="endpoint_9" />
    <circle cx="9" cy="204" r="3" id="endpoint_10" />
    <circle cx="14" cy="206" r="3" id="endpoint_11" />
    <circle cx="155" cy="210" r="3" id="endpoint_12" />
    <circle cx="281" cy="215" r="3" id="endpoint_13" />
    <circle cx="258" cy="230" r="3" id="endpoint_14" />
    <circle cx="3" cy="234" r="3" id="endpoint_15" />
    <circle cx="22" cy="236" r="3" id="endpoint_16" />
    <circle cx="142" cy="247" r="3" id="endpoint_17" />
    <circle cx="8" cy="262" r="3" id="endpoint_18" />
    <circle cx="396" cy="275" r="3" id="endpoint_19" />
    <circle cx="10" cy="276" r="3" id="endpoint_20" />
    <circle cx="55" cy="292" r="3" id="endpoint_21" />
    <circle cx="119" cy="294" r="3" id="endpoint_22" />
    <circle cx="101" cy="297" r="3" id="endpoint_23" />
    <circle cx="156" cy="298" r="3" id="endpoint_24" />
    <circle cx="76" cy="300" r="3" id="endpoint_25" />
    <circle cx="4" cy="308" r="3" id="endpoint_26" />
    <circle cx="95" cy="388" r="3" id="endpoint_27" />
    <circle cx="98" cy="388" r="3" id="endpoint_28" />
    <circle cx="203" cy="396" r="3" id="endpoint_29" />
    <circle cx="218" cy="396" r="3" id="endpoint_30" />
    <circle cx="293" cy="397" r="3" id="endpoint_31" />
    <circle cx="390" cy="397" r="3" id="endpoint_32" />
    <circle cx="231" cy="398" r="3" id="endpoint_33" />
    <circle cx="251" cy="398" r="3" id="endpoint_34" />
    <circle cx="267" cy="398" r="3" id="endpoint_35" />
    <circle cx="321" cy="398" r="3" id="endpoint_36" />
  </g>
</svg>